<svg width="106" height="122" viewBox="0 0 106 122" fill="none" xmlns="http://www.w3.org/2000/svg">
<path d="M80 62V73H98" stroke="black" stroke-opacity="0.3" stroke-linecap="round" stroke-dasharray="2 2"/>
<path d="M65 62V82H98.5" stroke="black" stroke-opacity="0.3" stroke-linecap="round" stroke-dasharray="2 2"/>
<path d="M50 62V91H99" stroke="black" stroke-opacity="0.3" stroke-linecap="round" stroke-dasharray="2 2"/>
<path d="M35 62V100H99" stroke="black" stroke-opacity="0.3" stroke-linecap="round" stroke-dasharray="2 2"/>
<path d="M20 62V109H99" stroke="black" stroke-opacity="0.3" stroke-linecap="round" stroke-dasharray="2 2"/>
<path d="M5 62V118H99" stroke="black" stroke-opacity="0.3" stroke-linecap="round" stroke-dasharray="2 2"/>
<rect y="9" width="9" height="53" fill="#CDE6D4"/>
<rect x="15" y="9" width="9" height="53" fill="#CDE6D4"/>
<rect x="30" y="9" width="9" height="53" fill="#CDE6D4"/>
<rect x="45" y="9" width="9" height="53" fill="#CDE6D4"/>
<rect x="60" y="9" width="9" height="53" fill="#CDE6D4"/>
<rect x="75" y="9" width="9" height="53" fill="#CDE6D4"/>
<rect y="37" width="9" height="25" fill="#37BD5D"/>
<rect x="15" y="30" width="9" height="32" fill="#37BD5D"/>
<rect x="30" y="19" width="9" height="43" fill="#37BD5D"/>
<rect x="45" y="25" width="9" height="37" fill="#37BD5D"/>
<rect x="60" y="9" width="9" height="53" fill="#37BD5D"/>
<rect x="75" y="22" width="9" height="40" fill="#37BD5D"/>
<path d="M93.32 81.38C93.4933 81.2533 93.65 81.1 93.79 80.92C93.93 80.7333 94.0467 80.64 94.14 80.64C94.24 80.64 94.29 80.7867 94.29 81.08C94.29 81.3667 94.2067 81.64 94.04 81.9C93.88 82.1533 93.6667 82.3667 93.4 82.54C92.8533 82.9 92.2067 83.08 91.46 83.08C90.5533 83.08 89.85 82.8533 89.35 82.4C88.85 81.9467 88.6 81.3167 88.6 80.51C88.6 79.5167 88.84 78.5733 89.32 77.68C89.48 77.3867 89.66 77.1167 89.86 76.87C89.7067 76.69 89.5833 76.5033 89.49 76.31C89.4033 76.11 89.36 75.96 89.36 75.86C89.36 75.68 89.4267 75.59 89.56 75.59C89.6533 75.5967 89.76 75.66 89.88 75.78L90.19 76.08C90.27 76.16 90.3533 76.2267 90.44 76.28C91.1 75.72 91.81 75.44 92.57 75.44C93.3367 75.44 93.8333 75.6533 94.06 76.08C94.14 76.24 94.18 76.4367 94.18 76.67C94.18 77.0233 94.0267 77.32 93.72 77.56C93.4133 77.8 93 77.92 92.48 77.92C91.9667 77.92 91.4333 77.8133 90.88 77.6C90.4067 78.4067 90.17 79.25 90.17 80.13C90.17 81.35 90.6567 81.96 91.63 81.96C92.23 81.96 92.7933 81.7667 93.32 81.38ZM91.36 76.98C91.7 77.0933 92.07 77.15 92.47 77.15C92.87 77.15 93.07 77.04 93.07 76.82C93.07 76.56 92.9067 76.43 92.58 76.43C92.1333 76.43 91.7267 76.6133 91.36 76.98ZM95.1783 80.89C95.1783 81.47 95.4249 81.76 95.9183 81.76C96.4583 81.76 96.8216 81.5733 97.0083 81.2C97.0749 81.0667 97.1083 80.8967 97.1083 80.69C97.1083 80.4767 97.0583 80.28 96.9583 80.1C96.7916 79.8133 96.5049 79.4967 96.0983 79.15C95.4249 78.5767 95.0883 77.9833 95.0883 77.37C95.0883 76.75 95.2816 76.2733 95.6683 75.94C96.0549 75.6067 96.4983 75.44 96.9983 75.44C97.4983 75.44 97.8949 75.5667 98.1883 75.82C98.4816 76.0733 98.6283 76.4533 98.6283 76.96C98.6283 77.2933 98.5149 77.5833 98.2883 77.83C98.0683 78.0767 97.7749 78.23 97.4083 78.29C97.5749 78.43 97.7416 78.5733 97.9083 78.72C98.0683 78.8667 98.2149 79.0267 98.3483 79.2C98.6416 79.5933 98.7883 80.0633 98.7883 80.61C98.7883 80.99 98.6983 81.3333 98.5183 81.64C98.3449 81.9467 98.1149 82.2067 97.8283 82.42C97.5483 82.6267 97.2316 82.7867 96.8783 82.9C96.5249 83.0133 96.1949 83.07 95.8883 83.07C95.2349 83.07 94.7283 82.92 94.3683 82.62C93.9483 82.28 93.7383 81.79 93.7383 81.15C93.7383 80.73 93.8749 80.3233 94.1483 79.93C94.4216 79.5367 94.7116 79.34 95.0183 79.34C95.2583 79.34 95.3783 79.4133 95.3783 79.56C95.3783 79.7733 95.3449 79.9867 95.2783 80.2C95.2116 80.4067 95.1783 80.6367 95.1783 80.89ZM97.1183 78.05C97.4983 77.67 97.6883 77.2733 97.6883 76.86C97.6883 76.7333 97.6216 76.6267 97.4883 76.54C97.3416 76.46 97.1883 76.42 97.0283 76.42C96.6683 76.42 96.4083 76.5367 96.2483 76.77C96.3283 77.0567 96.4449 77.3 96.5983 77.5C96.7583 77.7 96.9316 77.8833 97.1183 78.05ZM100.881 80.89C100.881 81.47 101.128 81.76 101.621 81.76C102.161 81.76 102.525 81.5733 102.711 81.2C102.778 81.0667 102.811 80.8967 102.811 80.69C102.811 80.4767 102.761 80.28 102.661 80.1C102.495 79.8133 102.208 79.4967 101.801 79.15C101.128 78.5767 100.791 77.9833 100.791 77.37C100.791 76.75 100.985 76.2733 101.371 75.94C101.758 75.6067 102.201 75.44 102.701 75.44C103.201 75.44 103.598 75.5667 103.891 75.82C104.185 76.0733 104.331 76.4533 104.331 76.96C104.331 77.2933 104.218 77.5833 103.991 77.83C103.771 78.0767 103.478 78.23 103.111 78.29C103.278 78.43 103.445 78.5733 103.611 78.72C103.771 78.8667 103.918 79.0267 104.051 79.2C104.345 79.5933 104.491 80.0633 104.491 80.61C104.491 80.99 104.401 81.3333 104.221 81.64C104.048 81.9467 103.818 82.2067 103.531 82.42C103.251 82.6267 102.935 82.7867 102.581 82.9C102.228 83.0133 101.898 83.07 101.591 83.07C100.938 83.07 100.431 82.92 100.071 82.62C99.6514 82.28 99.4414 81.79 99.4414 81.15C99.4414 80.73 99.5781 80.3233 99.8514 79.93C100.125 79.5367 100.415 79.34 100.721 79.34C100.961 79.34 101.081 79.4133 101.081 79.56C101.081 79.7733 101.048 79.9867 100.981 80.2C100.915 80.4067 100.881 80.6367 100.881 80.89ZM102.821 78.05C103.201 77.67 103.391 77.2733 103.391 76.86C103.391 76.7333 103.325 76.6267 103.191 76.54C103.045 76.46 102.891 76.42 102.731 76.42C102.371 76.42 102.111 76.5367 101.951 76.77C102.031 77.0567 102.148 77.3 102.301 77.5C102.461 77.7 102.635 77.8833 102.821 78.05Z" fill="black"/>
<path d="M69.26 78.83C69.9667 78.83 70.62 78.8367 71.22 78.85C71.5333 77.5833 71.84 76.7033 72.14 76.21C72.34 75.9233 72.54 75.7167 72.74 75.59C72.82 75.5367 72.9 75.51 72.98 75.51C73.0667 75.51 73.11 75.64 73.11 75.9C73.11 76.16 73.0867 76.4333 73.04 76.72C73 77.0067 72.9467 77.3367 72.88 77.71C72.66 78.9367 72.4933 79.9167 72.38 80.65C72.2733 81.3833 72.22 82.09 72.22 82.77C72.22 82.9567 72.0867 83.05 71.82 83.05C71.4 83.05 71.1133 82.97 70.96 82.81C70.8067 82.6433 70.73 82.3467 70.73 81.92C70.73 81.4867 70.8167 80.8067 70.99 79.88C70.2567 79.8467 69.7933 79.83 69.6 79.83H69.19C69.1167 79.83 69.0433 79.8333 68.97 79.84C68.67 80.9867 68.52 81.8933 68.52 82.56C68.52 82.9533 68.1367 83.15 67.37 83.15C67.2033 83.15 67.1033 83.0667 67.07 82.9C67.0433 82.7267 67.03 82.45 67.03 82.07C67.03 81.6833 67.15 80.9933 67.39 80C66.9833 80.06 66.6867 80.09 66.5 80.09C66.4133 80.09 66.37 80.0567 66.37 79.99C66.37 79.8433 66.4767 79.6767 66.69 79.49C66.91 79.3033 67.23 79.1533 67.65 79.04C67.8967 78.1867 68.1433 77.4867 68.39 76.94C67.67 76.9533 67.14 77.0933 66.8 77.36C66.6933 77.44 66.6067 77.5133 66.54 77.58C66.4733 77.64 66.4133 77.67 66.36 77.67C66.3133 77.67 66.2667 77.63 66.22 77.55C66.1733 77.47 66.15 77.3633 66.15 77.23C66.15 76.7433 66.56 76.3733 67.38 76.12C68.0333 75.92 68.7933 75.8167 69.66 75.81H69.68C69.7267 75.81 69.79 75.8367 69.87 75.89C69.9567 75.9433 70 76.03 70 76.15C70 76.27 69.9767 76.4067 69.93 76.56C69.89 76.7067 69.8333 76.8167 69.76 76.89C69.72 77.2033 69.5533 77.85 69.26 78.83ZM73.8982 82.46C73.8249 82.28 73.7715 82.0733 73.7382 81.84C73.7049 81.6 73.6882 81.2667 73.6882 80.84C73.6882 80.4133 73.7682 79.8367 73.9282 79.11H73.4782C73.3982 79.11 73.3582 79.0767 73.3582 79.01C73.3582 78.85 73.3715 78.72 73.3982 78.62C73.4315 78.5133 73.5049 78.3933 73.6182 78.26H73.8582C73.9515 78.26 74.0515 78.2567 74.1582 78.25C74.4782 77.2233 74.8049 76.71 75.1382 76.71C75.4049 76.7167 75.5915 76.8867 75.6982 77.22C75.7249 77.3133 75.7549 77.4133 75.7882 77.52L75.3782 78.24C75.8449 78.2533 76.1382 78.26 76.2582 78.26C76.3849 78.26 76.4515 78.2733 76.4582 78.3C76.4715 78.32 76.4782 78.3533 76.4782 78.4C76.4782 78.52 76.4482 78.67 76.3882 78.85C76.3349 79.03 76.2715 79.1167 76.1982 79.11L75.1982 79.06C75.0582 79.8733 74.9882 80.5467 74.9882 81.08C74.9882 81.6133 75.0649 81.88 75.2182 81.88C75.3449 81.88 75.5749 81.7767 75.9082 81.57C76.2415 81.3567 76.4815 81.1533 76.6282 80.96C76.7749 80.7667 76.8949 80.67 76.9882 80.67C77.0815 80.67 77.1282 80.7833 77.1282 81.01C77.1282 81.2367 77.0482 81.47 76.8882 81.71C76.7282 81.9433 76.5249 82.16 76.2782 82.36C76.0382 82.5533 75.7682 82.7133 75.4682 82.84C75.1749 82.9667 74.9182 83.03 74.6982 83.03C74.4782 83.03 74.3082 82.98 74.1882 82.88C74.0749 82.7733 73.9782 82.6333 73.8982 82.46ZM82.112 79.96C82.112 79.74 81.9854 79.63 81.732 79.63C81.5587 79.63 81.3654 79.8 81.152 80.14C80.9387 80.4733 80.7854 80.8333 80.692 81.22V81.24C80.692 81.4667 80.7254 81.7 80.792 81.94C80.8654 82.18 80.902 82.3467 80.902 82.44C80.902 82.6667 80.6187 82.89 80.052 83.11C79.9654 83.1433 79.8887 83.16 79.822 83.16C79.6554 83.16 79.5387 83.0733 79.472 82.9C79.412 82.7267 79.382 82.4933 79.382 82.2C79.382 81.9 79.3887 81.62 79.402 81.36C79.422 81.0933 79.4387 80.85 79.452 80.63C79.472 80.4033 79.4887 80.2067 79.502 80.04C79.522 79.8667 79.532 79.7267 79.532 79.62C79.532 79.3933 79.4287 79.28 79.222 79.28C79.0154 79.28 78.7754 79.5233 78.502 80.01C78.2287 80.49 78.092 80.8733 78.092 81.16C78.092 81.44 78.1254 81.7 78.192 81.94C78.2654 82.18 78.302 82.3467 78.302 82.44C78.302 82.6667 78.0187 82.89 77.452 83.11C77.3654 83.1433 77.2887 83.16 77.222 83.16C77.0554 83.16 76.9387 83.0733 76.872 82.9C76.812 82.7267 76.782 82.46 76.782 82.1C76.782 81.1533 76.8187 80.47 76.892 80.05C76.992 79.43 77.2187 78.8433 77.572 78.29C77.692 78.1033 77.822 78.01 77.962 78.01C78.182 78.01 78.3854 78.19 78.572 78.55C78.6254 78.6433 78.6654 78.73 78.692 78.81C79.012 78.41 79.3887 78.21 79.822 78.21C80.1087 78.21 80.3654 78.3067 80.592 78.5C80.8187 78.6867 80.932 78.9233 80.932 79.21V79.32C81.3387 78.8133 81.8354 78.56 82.422 78.56C82.782 78.56 83.0554 78.6533 83.242 78.84C83.4287 79.0267 83.522 79.2567 83.522 79.53C83.522 79.8033 83.502 80.05 83.462 80.27C83.422 80.49 83.3754 80.6967 83.322 80.89C83.2754 81.0833 83.232 81.2567 83.192 81.41C83.152 81.5567 83.132 81.6733 83.132 81.76C83.132 81.84 83.1587 81.88 83.212 81.88C83.312 81.88 83.4354 81.8167 83.582 81.69C83.7287 81.5633 83.8754 81.4267 84.022 81.28C84.1687 81.1267 84.302 80.9867 84.422 80.86C84.5487 80.7333 84.6354 80.67 84.682 80.67C84.7754 80.67 84.822 80.7833 84.822 81.01C84.822 81.4767 84.5854 81.93 84.112 82.37C83.6454 82.81 83.1454 83.03 82.612 83.03C82.132 83.03 81.892 82.5933 81.892 81.72C81.892 81.5 81.9287 81.1967 82.002 80.81C82.0754 80.4233 82.112 80.14 82.112 79.96ZM86.5476 83.03C85.5942 83.0367 84.9442 82.68 84.5976 81.96C84.4776 81.7067 84.4176 81.39 84.4176 81.01C84.4176 80.6233 84.4509 80.2133 84.5176 79.78C84.6509 78.9133 84.9076 78.1133 85.2876 77.38C85.4809 77.0067 85.6976 76.6867 85.9376 76.42C86.4642 75.8333 87.0509 75.5433 87.6976 75.55C87.9842 75.55 88.2076 75.63 88.3676 75.79C88.5342 75.9433 88.6176 76.1667 88.6176 76.46C88.6176 76.7533 88.5309 77.05 88.3576 77.35C88.1842 77.6433 87.9609 77.95 87.6876 78.27C87.4209 78.5833 87.1242 78.9133 86.7976 79.26C86.4709 79.6067 86.1509 79.9833 85.8376 80.39V80.79C85.8376 81.1633 85.9176 81.4367 86.0776 81.61C86.2376 81.7833 86.4242 81.87 86.6376 81.87C87.2109 81.87 87.7176 81.5867 88.1576 81.02C88.3376 80.7867 88.4742 80.67 88.5676 80.67C88.6609 80.67 88.7076 80.7833 88.7076 81.01C88.7076 81.2367 88.6442 81.47 88.5176 81.71C88.3976 81.9433 88.2376 82.16 88.0376 82.36C87.8376 82.5533 87.6076 82.7133 87.3476 82.84C87.0876 82.9667 86.8209 83.03 86.5476 83.03ZM87.0876 77.66C87.2276 77.4867 87.3376 77.33 87.4176 77.19C87.4976 77.05 87.5376 76.9067 87.5376 76.76C87.5376 76.6067 87.4842 76.53 87.3776 76.53C87.1442 76.53 86.8842 76.77 86.5976 77.25C86.3176 77.73 86.1076 78.36 85.9676 79.14C86.1942 78.7933 86.4009 78.5033 86.5876 78.27C86.7809 78.0367 86.9476 77.8333 87.0876 77.66Z" fill="black"/>
<path d="M62.08 94.93C61.8067 94.7633 61.54 94.68 61.28 94.68C60.86 94.68 60.4 94.7467 59.9 94.88L59.36 95.01C59.2 95.05 59.0767 95.07 58.99 95.07C58.79 95.07 58.69 94.9967 58.69 94.85C58.69 94.7633 58.7633 94.6567 58.91 94.53C59.05 94.3967 59.24 94.27 59.48 94.15C60.0733 93.8567 60.7167 93.71 61.41 93.71C62.4033 93.71 63.04 93.88 63.32 94.22C63.4 94.3133 63.44 94.4433 63.44 94.61C63.4267 95.2567 63.1267 96.9767 62.54 99.77C63.3267 99.45 63.8067 99.1867 63.98 98.98C64.16 98.7733 64.3 98.67 64.4 98.67C64.5 98.67 64.55 98.7733 64.55 98.98C64.55 99.1867 64.4867 99.3667 64.36 99.52C64.24 99.6733 64.0467 99.8467 63.78 100.04C63.52 100.233 63.04 100.48 62.34 100.78C62.2867 101.047 62.1867 101.343 62.04 101.67C61.54 103.05 60.7233 103.74 59.59 103.74C59.0367 103.74 58.5667 103.62 58.18 103.38C57.7933 103.14 57.6 102.77 57.6 102.27C57.6 102.09 57.6933 101.92 57.88 101.76C58.06 101.6 58.3267 101.43 58.68 101.25C59.0267 101.077 59.7067 100.81 60.72 100.45C60.76 100.217 60.7933 100 60.82 99.8C60.8467 99.5933 60.8767 99.4167 60.91 99.27C61.05 98.3167 61.3267 97.1933 61.74 95.9C61.86 95.5333 61.9733 95.21 62.08 94.93ZM58.92 102.8C59.12 102.907 59.31 102.96 59.49 102.96C59.67 102.967 59.8067 102.927 59.9 102.84C59.9933 102.76 60.0933 102.627 60.2 102.44C60.3133 102.253 60.4233 101.927 60.53 101.46C60.1833 101.58 59.8867 101.68 59.64 101.76C59.4 101.84 59.2033 101.913 59.05 101.98C58.9033 102.047 58.7967 102.11 58.73 102.17C58.6567 102.23 58.62 102.303 58.62 102.39C58.62 102.557 58.72 102.693 58.92 102.8ZM70.1373 98.64C70.2573 98.64 70.3173 98.7933 70.3173 99.1C70.3173 99.2667 70.2473 99.47 70.1073 99.71C69.9673 99.9433 69.7839 100.16 69.5573 100.36C69.3373 100.553 69.0906 100.713 68.8173 100.84C68.5439 100.967 68.2773 101.03 68.0173 101.03C67.6639 101.03 67.4273 100.72 67.3073 100.1C67.1339 100.387 66.9073 100.623 66.6273 100.81C66.3473 100.99 65.9706 101.08 65.4973 101.08C65.0306 101.08 64.6539 100.933 64.3673 100.64C64.0806 100.347 63.9406 99.99 63.9473 99.57C63.9473 98.4367 64.3239 97.5433 65.0773 96.89C65.3973 96.6167 65.6939 96.4367 65.9673 96.35C66.2473 96.2633 66.5406 96.22 66.8473 96.22C67.1539 96.22 67.4039 96.2733 67.5973 96.38C67.6906 96.1867 67.7973 96.09 67.9173 96.09C68.1506 96.09 68.3706 96.1933 68.5773 96.4C68.7906 96.6 68.8973 96.79 68.8973 96.97C68.8039 97.19 68.6673 97.4533 68.4873 97.76C68.4339 98.0667 68.4073 98.4967 68.4073 99.05C68.4073 99.6033 68.4773 99.88 68.6173 99.88C68.7906 99.88 69.2106 99.5333 69.8773 98.84C69.9973 98.7067 70.0839 98.64 70.1373 98.64ZM65.4173 99.24C65.4173 99.7533 65.6073 100.01 65.9873 100.01C66.3939 100.003 66.7306 99.7867 66.9973 99.36C67.0906 99.2133 67.1673 99.0333 67.2273 98.82C67.2273 98.0733 67.2939 97.4333 67.4273 96.9C66.8873 97.0067 66.4173 97.2667 66.0173 97.68C65.6173 98.0933 65.4173 98.6133 65.4173 99.24ZM71.3976 96.6C71.3976 97.0467 71.3176 97.5533 71.1576 98.12C71.1709 98.3333 71.1776 98.54 71.1776 98.74C71.1776 98.94 71.1909 99.1133 71.2176 99.26C71.3176 99.5267 71.4442 99.69 71.5976 99.75C71.7309 99.75 71.8776 99.6367 72.0376 99.41C72.1976 99.1767 72.3609 98.9 72.5276 98.58C72.4476 98.2733 72.4076 97.9833 72.4076 97.71C72.4076 97.23 72.4809 96.88 72.6276 96.66C72.8076 96.38 73.0809 96.24 73.4476 96.24C73.8142 96.24 74.0576 96.38 74.1776 96.66C74.2242 96.7667 74.2476 96.8867 74.2476 97.02C74.2476 97.26 74.1876 97.5067 74.0676 97.76C73.9476 98.0067 73.7542 98.3333 73.4876 98.74C73.6076 99.0933 73.7876 99.27 74.0276 99.27C74.3209 99.2633 74.5742 99.16 74.7876 98.96C74.8676 98.88 74.9342 98.81 74.9876 98.75C75.0476 98.69 75.1076 98.66 75.1676 98.66C75.2609 98.66 75.3076 98.77 75.3076 98.99C75.3076 99.4033 75.1876 99.7067 74.9476 99.9C74.7142 100.087 74.4176 100.18 74.0576 100.18C73.5842 100.18 73.2076 99.9733 72.9276 99.56C72.1476 100.573 71.4942 101.08 70.9676 101.08C70.7609 101.08 70.5576 100.787 70.3576 100.2C70.1576 99.6133 70.0042 98.82 69.8976 97.82C69.8176 97.1867 69.8642 96.7333 70.0376 96.46C70.1842 96.2467 70.4709 96.14 70.8976 96.14C71.0576 96.14 71.1809 96.19 71.2676 96.29C71.3542 96.3833 71.3976 96.4867 71.3976 96.6ZM80.9966 98.64C81.1166 98.64 81.1766 98.7933 81.1766 99.1C81.1766 99.2667 81.1066 99.47 80.9666 99.71C80.8266 99.9433 80.6433 100.16 80.4166 100.36C80.1966 100.553 79.95 100.713 79.6766 100.84C79.4033 100.967 79.1366 101.03 78.8766 101.03C78.5233 101.03 78.2866 100.72 78.1666 100.1C77.9933 100.387 77.7666 100.623 77.4866 100.81C77.2066 100.99 76.83 101.08 76.3566 101.08C75.89 101.08 75.5133 100.933 75.2266 100.64C74.94 100.347 74.8 99.99 74.8066 99.57C74.8066 98.4367 75.1833 97.5433 75.9366 96.89C76.2566 96.6167 76.5533 96.4367 76.8266 96.35C77.1066 96.2633 77.4 96.22 77.7066 96.22C78.0133 96.22 78.2633 96.2733 78.4566 96.38C78.55 96.1867 78.6566 96.09 78.7766 96.09C79.01 96.09 79.23 96.1933 79.4366 96.4C79.65 96.6 79.7566 96.79 79.7566 96.97C79.6633 97.19 79.5266 97.4533 79.3466 97.76C79.2933 98.0667 79.2666 98.4967 79.2666 99.05C79.2666 99.6033 79.3366 99.88 79.4766 99.88C79.65 99.88 80.07 99.5333 80.7366 98.84C80.8566 98.7067 80.9433 98.64 80.9966 98.64ZM76.2766 99.24C76.2766 99.7533 76.4666 100.01 76.8466 100.01C77.2533 100.003 77.59 99.7867 77.8566 99.36C77.95 99.2133 78.0266 99.0333 78.0866 98.82C78.0866 98.0733 78.1533 97.4333 78.2866 96.9C77.7466 97.0067 77.2766 97.2667 76.8766 97.68C76.4766 98.0933 76.2766 98.6133 76.2766 99.24ZM82.957 96.16C83.4036 96.1533 83.737 96.2367 83.957 96.41C84.177 96.5767 84.287 96.82 84.287 97.14C84.287 97.4533 84.1903 97.7233 83.997 97.95C83.8103 98.17 83.5803 98.3267 83.307 98.42C83.5003 98.62 83.6736 98.8233 83.827 99.03C83.987 99.2367 84.067 99.4533 84.067 99.68C84.067 100.127 83.8903 100.473 83.537 100.72C83.1836 100.96 82.6903 101.08 82.057 101.08C81.4303 101.08 80.9603 100.957 80.647 100.71C80.3336 100.457 80.177 100.173 80.177 99.86C80.177 99.54 80.2536 99.25 80.407 98.99C80.567 98.73 80.737 98.6 80.917 98.6C81.0236 98.6 81.1003 98.64 81.147 98.72C81.1936 98.7933 81.2803 99.0133 81.407 99.38C81.4536 99.5133 81.5303 99.64 81.637 99.76C81.8836 100.033 82.2736 100.17 82.807 100.17C82.727 99.9167 82.597 99.7 82.417 99.52C82.2436 99.3333 82.0703 99.1533 81.897 98.98C81.7236 98.8067 81.5703 98.6233 81.437 98.43C81.3036 98.23 81.237 97.9967 81.237 97.73C81.237 97.25 81.417 96.86 81.777 96.56C82.117 96.2933 82.5103 96.16 82.957 96.16ZM82.917 98.01C83.1836 97.7233 83.317 97.4933 83.317 97.32C83.317 97.24 83.287 97.17 83.227 97.11C83.1736 97.0433 83.0936 97.01 82.987 97.01C82.8803 97.01 82.777 97.0233 82.677 97.05C82.5836 97.0767 82.507 97.0967 82.447 97.11C82.447 97.3633 82.6036 97.6633 82.917 98.01ZM88.6606 98.64C88.7806 98.64 88.8406 98.7433 88.8406 98.95C88.8406 99.15 88.7873 99.3667 88.6806 99.6C88.5806 99.8333 88.424 100.06 88.2106 100.28C88.004 100.493 87.7373 100.677 87.4106 100.83C87.084 100.983 86.6973 101.06 86.2506 101.06C85.8106 101.06 85.424 100.93 85.0906 100.67C84.7573 100.403 84.5906 100.023 84.5906 99.53C84.5906 99.03 84.6673 98.58 84.8206 98.18C84.9806 97.7733 85.1873 97.4233 85.4406 97.13C85.7006 96.8367 85.994 96.61 86.3206 96.45C86.6473 96.2833 86.9573 96.2 87.2506 96.2C87.764 96.2 88.0206 96.4033 88.0206 96.81C88.0206 97.0433 87.9706 97.23 87.8706 97.37C87.7773 97.51 87.6806 97.58 87.5806 97.58C87.4473 97.58 87.3306 97.5333 87.2306 97.44C87.1306 97.3467 87.0206 97.3 86.9006 97.3C86.7806 97.2933 86.664 97.35 86.5506 97.47C86.444 97.59 86.354 97.7433 86.2806 97.93C86.134 98.3033 86.0606 98.74 86.0606 99.24C86.0673 99.48 86.1773 99.66 86.3906 99.78C86.5373 99.86 86.7106 99.9033 86.9106 99.91C87.1106 99.91 87.3006 99.8433 87.4806 99.71C87.6673 99.5767 87.8373 99.4333 87.9906 99.28C88.144 99.12 88.2773 98.9733 88.3906 98.84C88.5106 98.7067 88.6006 98.64 88.6606 98.64ZM89.803 99.32L89.863 100.54C89.863 100.7 89.7796 100.843 89.613 100.97C89.4463 101.097 89.2196 101.16 88.933 101.16C88.7663 101.16 88.6496 101.073 88.583 100.9C88.523 100.727 88.493 100.473 88.493 100.14C88.493 99.44 88.5263 98.8933 88.593 98.5C88.6663 98.1 88.8063 97.6967 89.013 97.29C88.7063 96.9967 88.553 96.7433 88.553 96.53C88.553 96.0833 88.793 95.86 89.273 95.86C89.5196 95.86 89.7363 95.99 89.923 96.25C90.0563 96.43 90.153 96.64 90.213 96.88C90.3063 96.9133 90.423 96.93 90.563 96.93C90.7563 96.93 90.9796 96.8667 91.233 96.74L91.493 96.61C91.573 96.57 91.643 96.55 91.703 96.55C91.8963 96.55 92.0896 96.8333 92.283 97.4C92.223 97.66 92.1563 97.91 92.083 98.15C92.0163 98.39 91.9363 98.68 91.843 99.02C91.7496 99.36 91.6996 99.59 91.693 99.71C91.693 99.8233 91.7296 99.88 91.803 99.88C91.903 99.88 92.0263 99.8167 92.173 99.69C92.3196 99.5633 92.4663 99.4267 92.613 99.28C92.7596 99.1267 92.893 98.9867 93.013 98.86C93.1396 98.7333 93.2263 98.67 93.273 98.67C93.3663 98.67 93.413 98.7833 93.413 99.01C93.413 99.47 93.2096 99.9233 92.803 100.37C92.403 100.817 91.943 101.037 91.423 101.03C91.1163 101.03 90.8863 100.907 90.733 100.66C90.5796 100.413 90.4996 100.113 90.493 99.76C90.493 99.06 90.6496 98.3967 90.963 97.77C90.8163 97.83 90.6496 97.86 90.463 97.86C90.283 97.86 90.153 97.8533 90.073 97.84C90.013 98.0933 89.953 98.35 89.893 98.61C89.833 98.8633 89.803 99.1 89.803 99.32ZM94.1133 101.03C93.4466 101.03 93.1133 100.407 93.1133 99.16C93.1133 98.48 93.1966 97.8633 93.3633 97.31C93.6233 96.4567 93.9166 96.03 94.2433 96.03C94.4366 96.03 94.5899 96.16 94.7033 96.42C94.7966 96.62 94.8399 96.8167 94.8333 97.01C94.8333 97.2767 94.7533 97.7467 94.5933 98.42C94.4399 99.0067 94.3633 99.37 94.3633 99.51C94.3633 99.65 94.3966 99.7467 94.4633 99.8C94.5366 99.8533 94.6199 99.88 94.7133 99.88C94.8133 99.88 94.9366 99.8167 95.0833 99.69C95.2299 99.5633 95.3766 99.4267 95.5233 99.28C95.6699 99.1267 95.8033 98.9867 95.9233 98.86C96.0499 98.7333 96.1366 98.67 96.1833 98.67C96.2766 98.67 96.3233 98.7833 96.3233 99.01C96.3233 99.4767 96.0866 99.9333 95.6133 100.38C95.1466 100.82 94.6466 101.037 94.1133 101.03ZM94.5233 95.22C94.3433 94.9533 94.2533 94.6667 94.2533 94.36C94.2533 94.0533 94.2999 93.8 94.3933 93.6C94.4933 93.3933 94.5866 93.2433 94.6733 93.15C94.7599 93.05 94.8599 93 94.9733 93C95.1599 93 95.3299 93.14 95.4833 93.42C95.6366 93.6933 95.7133 93.9233 95.7133 94.11C95.7133 94.4567 95.5899 94.73 95.3433 94.93C95.1033 95.1233 94.8299 95.22 94.5233 95.22ZM97.7134 96.81C98.0601 96.4167 98.5034 96.22 99.0434 96.22C99.8168 96.22 100.307 96.5333 100.513 97.16C100.573 97.3467 100.603 97.5533 100.603 97.78C100.603 98.2867 100.437 98.7867 100.103 99.28C99.7768 99.7733 99.3801 100.107 98.9134 100.28H99.0334C99.5201 100.28 100.013 100.1 100.513 99.74C100.833 99.5133 101.083 99.28 101.263 99.04C101.45 98.7933 101.59 98.67 101.683 98.67C101.777 98.67 101.823 98.7767 101.823 98.99C101.823 99.3633 101.663 99.74 101.343 100.12C100.863 100.667 100.25 100.987 99.5034 101.08C98.9634 101.14 98.5801 101.15 98.3534 101.11C98.1268 101.07 97.9534 101.02 97.8334 100.96C97.5734 100.827 97.4434 100.627 97.4434 100.36C97.4434 100.213 97.4734 100.08 97.5334 99.96C98.0601 99.96 98.4601 99.76 98.7334 99.36C99.0068 98.96 99.1434 98.46 99.1434 97.86C99.1434 97.7133 99.0901 97.5833 98.9834 97.47C98.8768 97.35 98.7334 97.29 98.5534 97.29C98.3801 97.29 98.1901 97.3667 97.9834 97.52C97.7768 97.6733 97.6101 97.8667 97.4834 98.1C97.3634 98.3267 97.2534 98.5533 97.1534 98.78C97.0534 99 96.9734 99.28 96.9134 99.62C96.8068 100.233 96.6834 101.007 96.5434 101.94C96.4101 102.88 96.3268 103.383 96.2934 103.45C96.2601 103.523 96.2101 103.59 96.1434 103.65C96.0768 103.71 96.0068 103.74 95.9334 103.74C95.8001 103.74 95.6901 103.7 95.6034 103.62C95.3634 103.413 95.2234 103.253 95.1834 103.14C95.1434 103.033 95.1234 102.893 95.1234 102.72C95.1234 102.067 95.2334 101.15 95.4534 99.97C95.6734 98.79 96.0534 97.5633 96.5934 96.29C96.6734 96.1033 96.8134 96.01 97.0134 96.01C97.2201 96.01 97.4168 96.19 97.6034 96.55C97.6568 96.6433 97.6934 96.73 97.7134 96.81ZM101.761 100.46C101.688 100.28 101.635 100.073 101.601 99.84C101.568 99.6 101.551 99.2667 101.551 98.84C101.551 98.4133 101.631 97.8367 101.791 97.11H101.341C101.261 97.11 101.221 97.0767 101.221 97.01C101.221 96.85 101.235 96.72 101.261 96.62C101.295 96.5133 101.368 96.3933 101.481 96.26H101.721C101.815 96.26 101.915 96.2567 102.021 96.25C102.341 95.2233 102.668 94.71 103.001 94.71C103.268 94.7167 103.455 94.8867 103.561 95.22C103.588 95.3133 103.618 95.4133 103.651 95.52L103.241 96.24C103.708 96.2533 104.001 96.26 104.121 96.26C104.248 96.26 104.315 96.2733 104.321 96.3C104.335 96.32 104.341 96.3533 104.341 96.4C104.341 96.52 104.311 96.67 104.251 96.85C104.198 97.03 104.135 97.1167 104.061 97.11L103.061 97.06C102.921 97.8733 102.851 98.5467 102.851 99.08C102.851 99.6133 102.928 99.88 103.081 99.88C103.208 99.88 103.438 99.7767 103.771 99.57C104.105 99.3567 104.345 99.1533 104.491 98.96C104.638 98.7667 104.758 98.67 104.851 98.67C104.945 98.67 104.991 98.7833 104.991 99.01C104.991 99.2367 104.911 99.47 104.751 99.71C104.591 99.9433 104.388 100.16 104.141 100.36C103.901 100.553 103.631 100.713 103.331 100.84C103.038 100.967 102.781 101.03 102.561 101.03C102.341 101.03 102.171 100.98 102.051 100.88C101.938 100.773 101.841 100.633 101.761 100.46Z" fill="black"/>
<path d="M75.26 105.29C75.34 105.103 75.47 105.013 75.65 105.02C75.83 105.02 76.0033 105.15 76.17 105.41C76.3367 105.663 76.42 105.853 76.42 105.98C76.42 106.167 76.3467 106.573 76.2 107.2C76.0533 107.82 75.8767 108.477 75.67 109.17C76.15 108.857 76.68 108.4 77.26 107.8C77.3467 107.707 77.4133 107.663 77.46 107.67C77.5533 107.67 77.6 107.773 77.6 107.98C77.6 108.367 77.38 108.793 76.94 109.26C76.5 109.72 75.95 110.097 75.29 110.39L75.03 111.2C74.8633 111.707 74.66 112.073 74.42 112.3C74.1067 112.593 73.6967 112.74 73.19 112.74C72.6833 112.74 72.2767 112.613 71.97 112.36C71.6567 112.107 71.5 111.793 71.5 111.42C71.5 111.047 71.76 110.74 72.28 110.5C72.52 110.393 72.7967 110.29 73.11 110.19C73.4167 110.097 73.7467 109.993 74.1 109.88C74.1667 109.527 74.2267 109.187 74.28 108.86C74.34 108.447 74.54 107.647 74.88 106.46C75.04 105.94 75.1667 105.55 75.26 105.29ZM76.59 102.08C77.0033 102.08 77.2833 102.237 77.43 102.55C77.41 102.943 77.25 103.33 76.95 103.71C76.65 104.09 76.3133 104.277 75.94 104.27C75.7667 103.997 75.68 103.693 75.68 103.36C75.68 103.027 75.76 102.73 75.92 102.47C76.08 102.21 76.3033 102.08 76.59 102.08ZM73.84 110.94C73.6 111.027 73.3933 111.097 73.22 111.15C73.0467 111.21 72.87 111.27 72.69 111.33C72.51 111.39 72.42 111.457 72.42 111.53C72.42 111.657 72.5 111.767 72.66 111.86C72.86 111.933 73.0067 111.97 73.1 111.97C73.38 111.97 73.6267 111.627 73.84 110.94ZM80.6527 110.36C80.1661 110.493 79.6127 110.56 78.9927 110.56C78.3727 110.56 77.8694 110.427 77.4827 110.16C77.0961 109.9 76.9027 109.527 76.9027 109.04C76.9027 108.727 77.0494 108.46 77.3427 108.24C77.6361 108.013 78.0627 107.9 78.6227 107.9C79.3427 107.9 79.9361 108.117 80.4027 108.55C80.5361 108.677 80.6627 108.81 80.7827 108.95C81.4094 108.637 81.8927 108.193 82.2327 107.62C82.5727 107.04 82.7427 106.4 82.7427 105.7C82.7427 104.993 82.5794 104.473 82.2527 104.14C81.9261 103.807 81.5227 103.64 81.0427 103.64C80.3627 103.64 79.8094 103.86 79.3827 104.3C78.9561 104.74 78.7427 105.33 78.7427 106.07C78.7427 106.35 78.7727 106.587 78.8327 106.78C78.8994 106.967 78.9327 107.107 78.9327 107.2C78.9327 107.293 78.8961 107.34 78.8227 107.34C78.5361 107.34 78.2794 107.193 78.0527 106.9C77.8261 106.6 77.7127 106.19 77.7127 105.67C77.7127 105.143 77.8094 104.683 78.0027 104.29C78.2027 103.89 78.4627 103.557 78.7827 103.29C79.4294 102.757 80.2027 102.49 81.1027 102.49C82.0094 102.49 82.7627 102.743 83.3627 103.25C84.0294 103.81 84.3661 104.577 84.3727 105.55C84.3727 106.663 84.1027 107.62 83.5627 108.42C83.1027 109.1 82.4661 109.627 81.6527 110C81.9394 110.287 82.2527 110.43 82.5927 110.43C82.9394 110.43 83.2194 110.417 83.4327 110.39C83.6527 110.37 83.8294 110.36 83.9627 110.36C84.1027 110.36 84.1727 110.39 84.1727 110.45C84.1727 110.603 84.0227 110.773 83.7227 110.96C83.4294 111.153 82.9994 111.25 82.4327 111.25C81.7394 111.25 81.1461 110.953 80.6527 110.36ZM79.8427 109.27C79.5294 108.957 79.2027 108.8 78.8627 108.8C78.6561 108.8 78.4761 108.823 78.3227 108.87C78.1761 108.917 78.1027 108.987 78.1027 109.08C78.1027 109.28 78.4027 109.38 79.0027 109.38C79.2161 109.38 79.4961 109.343 79.8427 109.27ZM88.1327 105.78C88.1327 105.333 88.4793 105.11 89.1727 105.11C89.346 105.11 89.4527 105.167 89.4927 105.28C89.5393 105.393 89.5627 105.567 89.5627 105.8C89.5627 106.127 89.4893 106.633 89.3427 107.32C89.196 108.007 89.126 108.47 89.1327 108.71C89.1327 108.823 89.1693 108.88 89.2427 108.88C89.3427 108.88 89.466 108.817 89.6127 108.69C89.7593 108.563 89.906 108.427 90.0527 108.28C90.1993 108.127 90.3327 107.987 90.4527 107.86C90.5793 107.733 90.666 107.67 90.7127 107.67C90.806 107.67 90.8527 107.783 90.8527 108.01C90.8527 108.477 90.6227 108.927 90.1627 109.36C89.3893 109.813 88.8993 110.04 88.6927 110.04C88.6727 110.04 88.656 110.037 88.6427 110.03C88.3893 110.03 88.2093 109.947 88.1027 109.78C88.0027 109.613 87.9393 109.403 87.9127 109.15C87.7793 109.397 87.596 109.61 87.3627 109.79C87.1293 109.963 86.8627 110.05 86.5627 110.05C86.036 110.05 85.6293 109.95 85.3427 109.75C85.0627 109.55 84.9227 109.253 84.9227 108.86C84.9227 108.687 84.946 108.527 84.9927 108.38C85.046 108.233 85.1293 108.053 85.2427 107.84L85.5327 105.38C85.7393 105.22 86.036 105.14 86.4227 105.14C86.7293 105.14 86.9027 105.34 86.9427 105.74C86.976 106.067 86.9593 106.36 86.8927 106.62C86.8327 106.873 86.7493 107.197 86.6427 107.59C86.536 107.977 86.4827 108.32 86.4827 108.62C86.4827 108.86 86.6327 108.98 86.9327 108.98C87.2593 108.98 87.5427 108.693 87.7827 108.12C87.9693 107.68 88.096 107.19 88.1627 106.65C88.156 106.597 88.1493 106.53 88.1427 106.45C88.1427 106.363 88.1393 106.28 88.1327 106.2C88.1327 106.12 88.1327 106.04 88.1327 105.96V105.78ZM92.6847 108.91C93.2047 108.91 93.708 108.703 94.1947 108.29C94.3747 108.137 94.5214 107.997 94.6347 107.87C94.748 107.737 94.8347 107.67 94.8947 107.67C94.988 107.67 95.0347 107.763 95.0347 107.95C95.0347 108.137 94.9847 108.347 94.8847 108.58C94.7847 108.807 94.618 109.03 94.3847 109.25C93.8114 109.79 93.0247 110.06 92.0247 110.06C91.2314 110.06 90.6914 109.773 90.4047 109.2C90.3047 109 90.2547 108.713 90.2547 108.34C90.2547 107.967 90.328 107.58 90.4747 107.18C90.6214 106.773 90.8147 106.423 91.0547 106.13C91.3014 105.837 91.5847 105.61 91.9047 105.45C92.2247 105.283 92.5647 105.2 92.9247 105.2C93.2914 105.2 93.5714 105.29 93.7647 105.47C93.9647 105.65 94.0647 105.883 94.0647 106.17C94.0647 106.457 93.9914 106.693 93.8447 106.88C93.7047 107.06 93.5214 107.213 93.2947 107.34C93.068 107.46 92.8147 107.57 92.5347 107.67C92.2614 107.763 91.9914 107.87 91.7247 107.99V108.24C91.7314 108.48 91.8314 108.65 92.0247 108.75C92.218 108.85 92.438 108.903 92.6847 108.91ZM92.5147 106.09C92.168 106.09 91.928 106.493 91.7947 107.3C91.9347 107.207 92.0647 107.123 92.1847 107.05C92.3114 106.977 92.4214 106.907 92.5147 106.84C92.7147 106.693 92.818 106.527 92.8247 106.34C92.8247 106.173 92.7214 106.09 92.5147 106.09ZM95.9944 108.32L96.0544 109.54C96.0544 109.7 95.971 109.843 95.8044 109.97C95.6377 110.097 95.411 110.16 95.1244 110.16C94.9577 110.16 94.841 110.073 94.7744 109.9C94.7144 109.727 94.6844 109.473 94.6844 109.14C94.6844 108.44 94.7177 107.893 94.7844 107.5C94.8577 107.1 94.9977 106.697 95.2044 106.29C94.8977 105.997 94.7444 105.743 94.7444 105.53C94.7444 105.083 94.9844 104.86 95.4644 104.86C95.711 104.86 95.9277 104.99 96.1144 105.25C96.2477 105.43 96.3444 105.64 96.4044 105.88C96.4977 105.913 96.6144 105.93 96.7544 105.93C96.9477 105.93 97.171 105.867 97.4244 105.74L97.6844 105.61C97.7644 105.57 97.8344 105.55 97.8944 105.55C98.0877 105.55 98.281 105.833 98.4744 106.4C98.4144 106.66 98.3477 106.91 98.2744 107.15C98.2077 107.39 98.1277 107.68 98.0344 108.02C97.941 108.36 97.891 108.59 97.8844 108.71C97.8844 108.823 97.921 108.88 97.9944 108.88C98.0944 108.88 98.2177 108.817 98.3644 108.69C98.511 108.563 98.6577 108.427 98.8044 108.28C98.951 108.127 99.0844 107.987 99.2044 107.86C99.331 107.733 99.4177 107.67 99.4644 107.67C99.5577 107.67 99.6044 107.783 99.6044 108.01C99.6044 108.47 99.401 108.923 98.9944 109.37C98.5944 109.817 98.1344 110.037 97.6144 110.03C97.3077 110.03 97.0777 109.907 96.9244 109.66C96.771 109.413 96.691 109.113 96.6844 108.76C96.6844 108.06 96.841 107.397 97.1544 106.77C97.0077 106.83 96.841 106.86 96.6544 106.86C96.4744 106.86 96.3444 106.853 96.2644 106.84C96.2044 107.093 96.1444 107.35 96.0844 107.61C96.0244 107.863 95.9944 108.1 95.9944 108.32ZM101.795 109.27C101.461 109.73 101.015 109.96 100.455 109.96C100.001 109.96 99.638 109.867 99.3647 109.68C99.098 109.487 98.9647 109.183 98.9647 108.77C98.9647 108.597 98.988 108.437 99.0347 108.29C99.088 108.143 99.1714 107.963 99.2847 107.75L99.5747 105.38C99.7814 105.22 100.061 105.14 100.415 105.14C100.715 105.14 100.885 105.34 100.925 105.74C100.938 105.86 100.945 106.003 100.945 106.17C100.945 106.33 100.918 106.5 100.865 106.68C100.598 107.6 100.468 108.217 100.475 108.53C100.475 108.77 100.615 108.89 100.895 108.89C101.175 108.89 101.381 108.8 101.515 108.62C101.648 108.44 101.761 108.217 101.855 107.95C102.028 107.21 102.188 106.6 102.335 106.12C102.488 105.64 102.585 105.353 102.625 105.26C102.691 105.1 102.818 105.017 103.005 105.01C103.191 105.017 103.368 105.15 103.535 105.41C103.701 105.663 103.785 105.86 103.785 106C103.771 106.467 103.481 107.643 102.915 109.53C103.348 109.19 103.778 108.773 104.205 108.28C104.351 108.107 104.475 107.963 104.575 107.85C104.675 107.73 104.755 107.67 104.815 107.67C104.908 107.67 104.955 107.777 104.955 107.99C104.955 108.41 104.718 108.9 104.245 109.46C103.778 110.02 103.205 110.457 102.525 110.77C102.445 111.037 102.358 111.29 102.265 111.53C102.171 111.77 102.051 111.98 101.905 112.16C101.585 112.547 101.098 112.74 100.445 112.74C100.005 112.74 99.628 112.613 99.3147 112.36C99.008 112.107 98.8547 111.79 98.8547 111.41C98.8547 111.197 98.9247 111.027 99.0647 110.9C99.2114 110.773 99.408 110.667 99.6547 110.58C99.908 110.5 100.201 110.427 100.535 110.36C100.868 110.3 101.225 110.223 101.605 110.13C101.698 109.73 101.761 109.443 101.795 109.27ZM100.435 111.97C100.748 111.97 101.031 111.697 101.285 111.15C101.045 111.197 100.831 111.23 100.645 111.25C100.458 111.277 100.298 111.3 100.165 111.32C99.898 111.36 99.768 111.43 99.7747 111.53C99.7747 111.657 99.848 111.763 99.9947 111.85C100.148 111.937 100.295 111.977 100.435 111.97Z" fill="black"/>
<path d="M88.14 116.64C88.2533 116.64 88.31 116.793 88.31 117.1C88.31 117.267 88.24 117.47 88.1 117.71C87.96 117.943 87.7767 118.16 87.55 118.36C87.33 118.553 87.0833 118.713 86.81 118.84C86.5367 118.967 86.2767 119.03 86.03 119.03C85.7833 119.03 85.59 118.983 85.45 118.89C85.31 118.797 85.2 118.67 85.12 118.51C85.0067 118.283 84.9133 117.853 84.84 117.22C84.7667 116.58 84.6933 116.133 84.62 115.88C84.4467 115.847 84.2933 115.78 84.16 115.68C84.0333 115.573 83.97 115.447 83.97 115.3C83.97 115.147 84.0367 115.037 84.17 114.97C84.31 114.903 84.4667 114.87 84.64 114.87C84.82 114.87 84.98 114.913 85.12 115C85.3067 114.847 85.4567 114.667 85.57 114.46C85.69 114.247 85.75 113.963 85.75 113.61C85.75 113.25 85.63 112.963 85.39 112.75C85.15 112.537 84.7967 112.43 84.33 112.43C83.87 112.43 83.5167 112.467 83.27 112.54C83.0233 112.613 82.81 112.693 82.63 112.78C82.4567 112.867 82.3 112.947 82.16 113.02C82.0267 113.093 81.9 113.13 81.78 113.13C81.66 113.13 81.6 113.093 81.6 113.02C81.6 112.94 81.6633 112.813 81.79 112.64C81.9167 112.467 82.1033 112.293 82.35 112.12C82.97 111.687 83.67 111.473 84.45 111.48C85.23 111.48 85.8733 111.627 86.38 111.92C86.9733 112.267 87.27 112.787 87.27 113.48C87.2767 114.053 87.1267 114.53 86.82 114.91C86.5133 115.29 86.1333 115.563 85.68 115.73C85.78 115.95 85.86 116.187 85.92 116.44C85.9867 116.693 86.05 116.927 86.11 117.14C86.17 117.353 86.2367 117.53 86.31 117.67C86.39 117.81 86.4833 117.88 86.59 117.88C86.7033 117.88 86.8367 117.817 86.99 117.69C87.15 117.557 87.3067 117.413 87.46 117.26C87.6133 117.107 87.75 116.967 87.87 116.84C87.9967 116.707 88.0867 116.64 88.14 116.64ZM83.79 113.04C83.8767 113.04 83.92 113.153 83.92 113.38C83.92 113.607 83.9067 113.82 83.88 114.02C83.82 114.407 83.7433 114.767 83.65 115.1C83.41 116.007 83.29 116.537 83.29 116.69V118.16C83.29 118.52 83.1533 118.767 82.88 118.9C82.7533 118.96 82.63 119.017 82.51 119.07C82.3967 119.123 82.2667 119.15 82.12 119.15C81.84 119.15 81.7 118.83 81.7 118.19C81.7 117.543 81.85 116.73 82.15 115.75C82.45 114.77 82.7633 114.023 83.09 113.51C83.1567 113.41 83.2533 113.307 83.38 113.2C83.5067 113.093 83.6433 113.04 83.79 113.04ZM90.1437 117.91C90.6637 117.91 91.167 117.703 91.6537 117.29C91.8337 117.137 91.9803 116.997 92.0937 116.87C92.207 116.737 92.2937 116.67 92.3537 116.67C92.447 116.67 92.4937 116.763 92.4937 116.95C92.4937 117.137 92.4437 117.347 92.3437 117.58C92.2437 117.807 92.077 118.03 91.8437 118.25C91.2703 118.79 90.4837 119.06 89.4837 119.06C88.6903 119.06 88.1503 118.773 87.8637 118.2C87.7637 118 87.7137 117.713 87.7137 117.34C87.7137 116.967 87.787 116.58 87.9337 116.18C88.0803 115.773 88.2737 115.423 88.5137 115.13C88.7603 114.837 89.0437 114.61 89.3637 114.45C89.6837 114.283 90.0237 114.2 90.3837 114.2C90.7503 114.2 91.0303 114.29 91.2237 114.47C91.4237 114.65 91.5237 114.883 91.5237 115.17C91.5237 115.457 91.4503 115.693 91.3037 115.88C91.1637 116.06 90.9803 116.213 90.7537 116.34C90.527 116.46 90.2737 116.57 89.9937 116.67C89.7203 116.763 89.4503 116.87 89.1837 116.99V117.24C89.1903 117.48 89.2903 117.65 89.4837 117.75C89.677 117.85 89.897 117.903 90.1437 117.91ZM89.9737 115.09C89.627 115.09 89.387 115.493 89.2537 116.3C89.3937 116.207 89.5237 116.123 89.6437 116.05C89.7703 115.977 89.8803 115.907 89.9737 115.84C90.1737 115.693 90.277 115.527 90.2837 115.34C90.2837 115.173 90.1803 115.09 89.9737 115.09ZM98.1334 116.64C98.2534 116.64 98.3134 116.793 98.3134 117.1C98.3134 117.267 98.2434 117.47 98.1034 117.71C97.9634 117.943 97.78 118.16 97.5534 118.36C97.3334 118.553 97.0867 118.713 96.8134 118.84C96.54 118.967 96.2734 119.03 96.0134 119.03C95.66 119.03 95.4234 118.72 95.3034 118.1C95.13 118.387 94.9034 118.623 94.6234 118.81C94.3434 118.99 93.9667 119.08 93.4934 119.08C93.0267 119.08 92.65 118.933 92.3634 118.64C92.0767 118.347 91.9367 117.99 91.9434 117.57C91.9434 116.437 92.32 115.543 93.0734 114.89C93.3934 114.617 93.69 114.437 93.9634 114.35C94.2434 114.263 94.5367 114.22 94.8434 114.22C95.15 114.22 95.4 114.273 95.5934 114.38C95.6867 114.187 95.7934 114.09 95.9134 114.09C96.1467 114.09 96.3667 114.193 96.5734 114.4C96.7867 114.6 96.8934 114.79 96.8934 114.97C96.8 115.19 96.6634 115.453 96.4834 115.76C96.43 116.067 96.4034 116.497 96.4034 117.05C96.4034 117.603 96.4734 117.88 96.6134 117.88C96.7867 117.88 97.2067 117.533 97.8734 116.84C97.9934 116.707 98.08 116.64 98.1334 116.64ZM93.4134 117.24C93.4134 117.753 93.6034 118.01 93.9834 118.01C94.39 118.003 94.7267 117.787 94.9934 117.36C95.0867 117.213 95.1634 117.033 95.2234 116.82C95.2234 116.073 95.29 115.433 95.4234 114.9C94.8834 115.007 94.4134 115.267 94.0134 115.68C93.6134 116.093 93.4134 116.613 93.4134 117.24ZM101.784 116.64C101.904 116.64 101.964 116.743 101.964 116.95C101.964 117.15 101.91 117.367 101.804 117.6C101.704 117.833 101.547 118.06 101.334 118.28C101.127 118.493 100.86 118.677 100.534 118.83C100.207 118.983 99.8203 119.06 99.3737 119.06C98.9337 119.06 98.547 118.93 98.2137 118.67C97.8803 118.403 97.7137 118.023 97.7137 117.53C97.7137 117.03 97.7903 116.58 97.9437 116.18C98.1037 115.773 98.3103 115.423 98.5637 115.13C98.8237 114.837 99.117 114.61 99.4437 114.45C99.7703 114.283 100.08 114.2 100.374 114.2C100.887 114.2 101.144 114.403 101.144 114.81C101.144 115.043 101.094 115.23 100.994 115.37C100.9 115.51 100.804 115.58 100.704 115.58C100.57 115.58 100.454 115.533 100.354 115.44C100.254 115.347 100.144 115.3 100.024 115.3C99.9037 115.293 99.787 115.35 99.6737 115.47C99.567 115.59 99.477 115.743 99.4037 115.93C99.257 116.303 99.1837 116.74 99.1837 117.24C99.1903 117.48 99.3003 117.66 99.5137 117.78C99.6603 117.86 99.8337 117.903 100.034 117.91C100.234 117.91 100.424 117.843 100.604 117.71C100.79 117.577 100.96 117.433 101.114 117.28C101.267 117.12 101.4 116.973 101.514 116.84C101.634 116.707 101.724 116.64 101.784 116.64ZM101.906 118.46C101.833 118.28 101.779 118.073 101.746 117.84C101.713 117.6 101.696 117.267 101.696 116.84C101.696 116.413 101.776 115.837 101.936 115.11H101.486C101.406 115.11 101.366 115.077 101.366 115.01C101.366 114.85 101.379 114.72 101.406 114.62C101.439 114.513 101.513 114.393 101.626 114.26H101.866C101.959 114.26 102.059 114.257 102.166 114.25C102.486 113.223 102.813 112.71 103.146 112.71C103.413 112.717 103.599 112.887 103.706 113.22C103.733 113.313 103.763 113.413 103.796 113.52L103.386 114.24C103.853 114.253 104.146 114.26 104.266 114.26C104.393 114.26 104.459 114.273 104.466 114.3C104.479 114.32 104.486 114.353 104.486 114.4C104.486 114.52 104.456 114.67 104.396 114.85C104.343 115.03 104.279 115.117 104.206 115.11L103.206 115.06C103.066 115.873 102.996 116.547 102.996 117.08C102.996 117.613 103.073 117.88 103.226 117.88C103.353 117.88 103.583 117.777 103.916 117.57C104.249 117.357 104.489 117.153 104.636 116.96C104.783 116.767 104.903 116.67 104.996 116.67C105.089 116.67 105.136 116.783 105.136 117.01C105.136 117.237 105.056 117.47 104.896 117.71C104.736 117.943 104.533 118.16 104.286 118.36C104.046 118.553 103.776 118.713 103.476 118.84C103.183 118.967 102.926 119.03 102.706 119.03C102.486 119.03 102.316 118.98 102.196 118.88C102.083 118.773 101.986 118.633 101.906 118.46Z" fill="black"/>
<path d="M86.69 71.89C86.69 72.47 86.9367 72.76 87.43 72.76C87.97 72.76 88.3333 72.5733 88.52 72.2C88.5867 72.0667 88.62 71.8967 88.62 71.69C88.62 71.4767 88.57 71.28 88.47 71.1C88.3033 70.8133 88.0167 70.4967 87.61 70.15C86.9367 69.5767 86.6 68.9833 86.6 68.37C86.6 67.75 86.7933 67.2733 87.18 66.94C87.5667 66.6067 88.01 66.44 88.51 66.44C89.01 66.44 89.4067 66.5667 89.7 66.82C89.9933 67.0733 90.14 67.4533 90.14 67.96C90.14 68.2933 90.0267 68.5833 89.8 68.83C89.58 69.0767 89.2867 69.23 88.92 69.29C89.0867 69.43 89.2533 69.5733 89.42 69.72C89.58 69.8667 89.7267 70.0267 89.86 70.2C90.1533 70.5933 90.3 71.0633 90.3 71.61C90.3 71.99 90.21 72.3333 90.03 72.64C89.8567 72.9467 89.6267 73.2067 89.34 73.42C89.06 73.6267 88.7433 73.7867 88.39 73.9C88.0367 74.0133 87.7067 74.07 87.4 74.07C86.7467 74.07 86.24 73.92 85.88 73.62C85.46 73.28 85.25 72.79 85.25 72.15C85.25 71.73 85.3867 71.3233 85.66 70.93C85.9333 70.5367 86.2233 70.34 86.53 70.34C86.77 70.34 86.89 70.4133 86.89 70.56C86.89 70.7733 86.8567 70.9867 86.79 71.2C86.7233 71.4067 86.69 71.6367 86.69 71.89ZM88.63 69.05C89.01 68.67 89.2 68.2733 89.2 67.86C89.2 67.7333 89.1333 67.6267 89 67.54C88.8533 67.46 88.7 67.42 88.54 67.42C88.18 67.42 87.92 67.5367 87.76 67.77C87.84 68.0567 87.9567 68.3 88.11 68.5C88.27 68.7 88.4433 68.8833 88.63 69.05ZM97.1431 71.64C97.2631 71.64 97.3231 71.7933 97.3231 72.1C97.3231 72.2667 97.2531 72.47 97.1131 72.71C96.9731 72.9433 96.7898 73.16 96.5631 73.36C96.3431 73.5533 96.0965 73.7133 95.8231 73.84C95.5498 73.9667 95.2831 74.03 95.0231 74.03C94.6698 74.03 94.4331 73.72 94.3131 73.1C94.1398 73.3867 93.9131 73.6233 93.6331 73.81C93.3531 73.99 92.9765 74.08 92.5031 74.08C92.0365 74.08 91.6598 73.9333 91.3731 73.64C91.0865 73.3467 90.9465 72.99 90.9531 72.57C90.9531 71.4367 91.3298 70.5433 92.0831 69.89C92.4031 69.6167 92.6998 69.4367 92.9731 69.35C93.2531 69.2633 93.5465 69.22 93.8531 69.22C94.1598 69.22 94.4098 69.2733 94.6031 69.38C94.6965 69.1867 94.8031 69.09 94.9231 69.09C95.1565 69.09 95.3765 69.1933 95.5831 69.4C95.7965 69.6 95.9031 69.79 95.9031 69.97C95.8098 70.19 95.6731 70.4533 95.4931 70.76C95.4398 71.0667 95.4131 71.4967 95.4131 72.05C95.4131 72.6033 95.4831 72.88 95.6231 72.88C95.7965 72.88 96.2165 72.5333 96.8831 71.84C97.0031 71.7067 97.0898 71.64 97.1431 71.64ZM92.4231 72.24C92.4231 72.7533 92.6131 73.01 92.9931 73.01C93.3998 73.0033 93.7365 72.7867 94.0031 72.36C94.0965 72.2133 94.1731 72.0333 94.2331 71.82C94.2331 71.0733 94.2998 70.4333 94.4331 69.9C93.8931 70.0067 93.4231 70.2667 93.0231 70.68C92.6231 71.0933 92.4231 71.6133 92.4231 72.24ZM99.1034 69.16C99.5501 69.1533 99.8834 69.2367 100.103 69.41C100.323 69.5767 100.433 69.82 100.433 70.14C100.433 70.4533 100.337 70.7233 100.143 70.95C99.9568 71.17 99.7268 71.3267 99.4534 71.42C99.6468 71.62 99.8201 71.8233 99.9734 72.03C100.133 72.2367 100.213 72.4533 100.213 72.68C100.213 73.1267 100.037 73.4733 99.6834 73.72C99.3301 73.96 98.8368 74.08 98.2034 74.08C97.5768 74.08 97.1068 73.9567 96.7934 73.71C96.4801 73.4567 96.3234 73.1733 96.3234 72.86C96.3234 72.54 96.4001 72.25 96.5534 71.99C96.7134 71.73 96.8834 71.6 97.0634 71.6C97.1701 71.6 97.2468 71.64 97.2934 71.72C97.3401 71.7933 97.4268 72.0133 97.5534 72.38C97.6001 72.5133 97.6768 72.64 97.7834 72.76C98.0301 73.0333 98.4201 73.17 98.9534 73.17C98.8734 72.9167 98.7434 72.7 98.5634 72.52C98.3901 72.3333 98.2168 72.1533 98.0434 71.98C97.8701 71.8067 97.7168 71.6233 97.5834 71.43C97.4501 71.23 97.3834 70.9967 97.3834 70.73C97.3834 70.25 97.5634 69.86 97.9234 69.56C98.2634 69.2933 98.6568 69.16 99.1034 69.16ZM99.0634 71.01C99.3301 70.7233 99.4634 70.4933 99.4634 70.32C99.4634 70.24 99.4334 70.17 99.3734 70.11C99.3201 70.0433 99.2401 70.01 99.1334 70.01C99.0268 70.01 98.9234 70.0233 98.8234 70.05C98.7301 70.0767 98.6534 70.0967 98.5934 70.11C98.5934 70.3633 98.7501 70.6633 99.0634 71.01ZM103.117 69.16C103.564 69.1533 103.897 69.2367 104.117 69.41C104.337 69.5767 104.447 69.82 104.447 70.14C104.447 70.4533 104.35 70.7233 104.157 70.95C103.97 71.17 103.74 71.3267 103.467 71.42C103.66 71.62 103.834 71.8233 103.987 72.03C104.147 72.2367 104.227 72.4533 104.227 72.68C104.227 73.1267 104.05 73.4733 103.697 73.72C103.344 73.96 102.85 74.08 102.217 74.08C101.59 74.08 101.12 73.9567 100.807 73.71C100.494 73.4567 100.337 73.1733 100.337 72.86C100.337 72.54 100.414 72.25 100.567 71.99C100.727 71.73 100.897 71.6 101.077 71.6C101.184 71.6 101.26 71.64 101.307 71.72C101.354 71.7933 101.44 72.0133 101.567 72.38C101.614 72.5133 101.69 72.64 101.797 72.76C102.044 73.0333 102.434 73.17 102.967 73.17C102.887 72.9167 102.757 72.7 102.577 72.52C102.404 72.3333 102.23 72.1533 102.057 71.98C101.884 71.8067 101.73 71.6233 101.597 71.43C101.464 71.23 101.397 70.9967 101.397 70.73C101.397 70.25 101.577 69.86 101.937 69.56C102.277 69.2933 102.67 69.16 103.117 69.16ZM103.077 71.01C103.344 70.7233 103.477 70.4933 103.477 70.32C103.477 70.24 103.447 70.17 103.387 70.11C103.334 70.0433 103.254 70.01 103.147 70.01C103.04 70.01 102.937 70.0233 102.837 70.05C102.744 70.0767 102.667 70.0967 102.607 70.11C102.607 70.3633 102.764 70.6633 103.077 71.01Z" fill="black"/>
<path d="M64.08 88.49C63.4333 88.49 63.1167 88.3267 63.13 88C63.13 87.6933 63.44 87.54 64.06 87.54C64.2067 87.54 64.3467 87.5567 64.48 87.59C64.7 87.37 64.81 87.0367 64.81 86.59C64.81 85.8167 64.2933 85.43 63.26 85.43C62.72 85.43 62.2067 85.5467 61.72 85.78C61.54 85.8667 61.3767 85.9467 61.23 86.02C61.09 86.0933 60.96 86.13 60.84 86.13C60.72 86.13 60.66 86.0933 60.66 86.02C60.66 85.9333 60.7267 85.8067 60.86 85.64C60.9933 85.4667 61.18 85.2933 61.42 85.12C62.0333 84.6933 62.73 84.4767 63.51 84.47C64.53 84.47 65.28 84.6733 65.76 85.08C66.1733 85.42 66.38 85.8833 66.38 86.47C66.38 87.15 66.0467 87.67 65.38 88.03C66.02 88.3967 66.4 88.8467 66.52 89.38C66.56 89.5667 66.58 89.8133 66.58 90.12C66.58 90.4267 66.4967 90.7167 66.33 90.99C66.1633 91.2633 65.94 91.4933 65.66 91.68C65.1 92.04 64.3833 92.22 63.51 92.22C62.89 92.22 62.2 92.08 61.44 91.8C60.9333 91.6133 60.56 91.39 60.32 91.13C60.2 91.0033 60.14 90.8767 60.14 90.75C60.1467 90.6233 60.21 90.56 60.33 90.56C60.4567 90.56 60.6933 90.6033 61.04 90.69V90.68C61.04 90.16 61.1 89.6267 61.22 89.08C61.4267 88.1267 61.6667 87.38 61.94 86.84C62.2333 86.24 62.5367 85.94 62.85 85.94C62.9367 85.94 62.98 86.09 62.98 86.39C62.98 86.69 62.95 86.9967 62.89 87.31C62.8367 87.6233 62.7767 87.9333 62.71 88.24C62.65 88.54 62.59 88.8133 62.53 89.06C62.4767 89.3067 62.45 89.4833 62.45 89.59L62.35 91.1C62.7433 91.2067 63.0767 91.26 63.35 91.26C63.6233 91.26 63.87 91.2133 64.09 91.12C64.6433 90.8867 64.92 90.48 64.92 89.9C64.92 89.5533 64.8867 89.2667 64.82 89.04C64.7533 88.8133 64.6333 88.6133 64.46 88.44C64.3067 88.4733 64.18 88.49 64.08 88.49ZM71.4201 91.15C70.8934 91.77 70.2601 92.08 69.5201 92.08C68.7867 92.08 68.2367 91.8933 67.8701 91.52C67.5034 91.14 67.3234 90.67 67.3301 90.11C67.3234 89.3167 67.5734 88.6333 68.0801 88.06C68.5867 87.4867 69.2501 87.2 70.0701 87.2C70.4434 87.2 70.7434 87.2467 70.9701 87.34C71.3634 87.5 71.5601 87.65 71.5601 87.79C71.5601 87.8967 71.2834 87.9533 70.7301 87.96C70.1834 87.96 69.7234 88.15 69.3501 88.53C68.9834 88.9033 68.8001 89.3767 68.8001 89.95C68.8001 90.25 68.8867 90.5033 69.0601 90.71C69.2401 90.91 69.4901 91.01 69.8101 91.01C70.1367 91.01 70.4067 90.9433 70.6201 90.81C70.1467 90.49 69.9101 90.0267 69.9101 89.42C69.9034 89.1 70.0167 88.81 70.2501 88.55C70.4901 88.2833 70.7934 88.15 71.1601 88.15C71.5334 88.1433 71.8001 88.2433 71.9601 88.45C72.1201 88.6567 72.2001 88.9233 72.2001 89.25C72.2001 89.57 72.1234 89.91 71.9701 90.27H72.0301C72.3234 90.2633 72.5767 90.16 72.7901 89.96C72.8701 89.88 72.9367 89.81 72.9901 89.75C73.0501 89.69 73.1101 89.66 73.1701 89.66C73.2634 89.66 73.3101 89.77 73.3101 89.99C73.3101 90.3967 73.1901 90.7033 72.9501 90.91C72.7101 91.11 72.4434 91.21 72.1501 91.21C71.8634 91.21 71.6201 91.19 71.4201 91.15ZM71.3301 89.99C71.4434 89.75 71.5001 89.5167 71.5001 89.29C71.5001 89.0633 71.4267 88.95 71.2801 88.95C71.2201 88.95 71.1701 88.9933 71.1301 89.08C71.0901 89.1667 71.0701 89.25 71.0701 89.33C71.0701 89.5967 71.1567 89.8167 71.3301 89.99ZM76.8498 91.15C76.3231 91.77 75.6898 92.08 74.9498 92.08C74.2164 92.08 73.6664 91.8933 73.2998 91.52C72.9331 91.14 72.7531 90.67 72.7598 90.11C72.7531 89.3167 73.0031 88.6333 73.5098 88.06C74.0164 87.4867 74.6798 87.2 75.4998 87.2C75.8731 87.2 76.1731 87.2467 76.3998 87.34C76.7931 87.5 76.9898 87.65 76.9898 87.79C76.9898 87.8967 76.7131 87.9533 76.1598 87.96C75.6131 87.96 75.1531 88.15 74.7798 88.53C74.4131 88.9033 74.2298 89.3767 74.2298 89.95C74.2298 90.25 74.3164 90.5033 74.4898 90.71C74.6698 90.91 74.9198 91.01 75.2398 91.01C75.5664 91.01 75.8364 90.9433 76.0498 90.81C75.5764 90.49 75.3398 90.0267 75.3398 89.42C75.3331 89.1 75.4464 88.81 75.6798 88.55C75.9198 88.2833 76.2231 88.15 76.5898 88.15C76.9631 88.1433 77.2298 88.2433 77.3898 88.45C77.5498 88.6567 77.6298 88.9233 77.6298 89.25C77.6298 89.57 77.5531 89.91 77.3998 90.27H77.4598C77.7531 90.2633 78.0064 90.16 78.2198 89.96C78.2998 89.88 78.3664 89.81 78.4198 89.75C78.4798 89.69 78.5398 89.66 78.5998 89.66C78.6931 89.66 78.7398 89.77 78.7398 89.99C78.7398 90.3967 78.6198 90.7033 78.3798 90.91C78.1398 91.11 77.8731 91.21 77.5798 91.21C77.2931 91.21 77.0498 91.19 76.8498 91.15ZM76.7598 89.99C76.8731 89.75 76.9298 89.5167 76.9298 89.29C76.9298 89.0633 76.8564 88.95 76.7098 88.95C76.6498 88.95 76.5998 88.9933 76.5598 89.08C76.5198 89.1667 76.4998 89.25 76.4998 89.33C76.4998 89.5967 76.5864 89.8167 76.7598 89.99ZM78.6795 91.46C78.6061 91.28 78.5528 91.0733 78.5195 90.84C78.4861 90.6 78.4695 90.2667 78.4695 89.84C78.4695 89.4133 78.5495 88.8367 78.7095 88.11H78.2595C78.1795 88.11 78.1395 88.0767 78.1395 88.01C78.1395 87.85 78.1528 87.72 78.1795 87.62C78.2128 87.5133 78.2861 87.3933 78.3995 87.26H78.6395C78.7328 87.26 78.8328 87.2567 78.9395 87.25C79.2595 86.2233 79.5861 85.71 79.9195 85.71C80.1861 85.7167 80.3728 85.8867 80.4795 86.22C80.5061 86.3133 80.5361 86.4133 80.5695 86.52L80.1595 87.24C80.6261 87.2533 80.9195 87.26 81.0395 87.26C81.1661 87.26 81.2328 87.2733 81.2395 87.3C81.2528 87.32 81.2595 87.3533 81.2595 87.4C81.2595 87.52 81.2295 87.67 81.1695 87.85C81.1161 88.03 81.0528 88.1167 80.9795 88.11L79.9795 88.06C79.8395 88.8733 79.7695 89.5467 79.7695 90.08C79.7695 90.6133 79.8461 90.88 79.9995 90.88C80.1261 90.88 80.3561 90.7767 80.6895 90.57C81.0228 90.3567 81.2628 90.1533 81.4095 89.96C81.5561 89.7667 81.6761 89.67 81.7695 89.67C81.8628 89.67 81.9095 89.7833 81.9095 90.01C81.9095 90.2367 81.8295 90.47 81.6695 90.71C81.5095 90.9433 81.3061 91.16 81.0595 91.36C80.8195 91.5533 80.5495 91.7133 80.2495 91.84C79.9561 91.9667 79.6995 92.03 79.4795 92.03C79.2595 92.03 79.0895 91.98 78.9695 91.88C78.8561 91.7733 78.7595 91.6333 78.6795 91.46ZM83.6933 87.16C84.1399 87.1533 84.4733 87.2367 84.6933 87.41C84.9133 87.5767 85.0233 87.82 85.0233 88.14C85.0233 88.4533 84.9266 88.7233 84.7333 88.95C84.5466 89.17 84.3166 89.3267 84.0433 89.42C84.2366 89.62 84.4099 89.8233 84.5633 90.03C84.7233 90.2367 84.8033 90.4533 84.8033 90.68C84.8033 91.1267 84.6266 91.4733 84.2733 91.72C83.9199 91.96 83.4266 92.08 82.7933 92.08C82.1666 92.08 81.6966 91.9567 81.3833 91.71C81.0699 91.4567 80.9133 91.1733 80.9133 90.86C80.9133 90.54 80.9899 90.25 81.1433 89.99C81.3033 89.73 81.4733 89.6 81.6533 89.6C81.7599 89.6 81.8366 89.64 81.8833 89.72C81.9299 89.7933 82.0166 90.0133 82.1433 90.38C82.1899 90.5133 82.2666 90.64 82.3733 90.76C82.6199 91.0333 83.0099 91.17 83.5433 91.17C83.4633 90.9167 83.3333 90.7 83.1533 90.52C82.9799 90.3333 82.8066 90.1533 82.6333 89.98C82.4599 89.8067 82.3066 89.6233 82.1733 89.43C82.0399 89.23 81.9733 88.9967 81.9733 88.73C81.9733 88.25 82.1533 87.86 82.5133 87.56C82.8533 87.2933 83.2466 87.16 83.6933 87.16ZM83.6533 89.01C83.9199 88.7233 84.0533 88.4933 84.0533 88.32C84.0533 88.24 84.0233 88.17 83.9633 88.11C83.9099 88.0433 83.8299 88.01 83.7233 88.01C83.6166 88.01 83.5133 88.0233 83.4133 88.05C83.3199 88.0767 83.2433 88.0967 83.1833 88.11C83.1833 88.3633 83.3399 88.6633 83.6533 89.01ZM85.867 91.46C85.7936 91.28 85.7403 91.0733 85.707 90.84C85.6736 90.6 85.657 90.2667 85.657 89.84C85.657 89.4133 85.737 88.8367 85.897 88.11H85.447C85.367 88.11 85.327 88.0767 85.327 88.01C85.327 87.85 85.3403 87.72 85.367 87.62C85.4003 87.5133 85.4736 87.3933 85.587 87.26H85.827C85.9203 87.26 86.0203 87.2567 86.127 87.25C86.447 86.2233 86.7736 85.71 87.107 85.71C87.3736 85.7167 87.5603 85.8867 87.667 86.22C87.6936 86.3133 87.7236 86.4133 87.757 86.52L87.347 87.24C87.8136 87.2533 88.107 87.26 88.227 87.26C88.3536 87.26 88.4203 87.2733 88.427 87.3C88.4403 87.32 88.447 87.3533 88.447 87.4C88.447 87.52 88.417 87.67 88.357 87.85C88.3036 88.03 88.2403 88.1167 88.167 88.11L87.167 88.06C87.027 88.8733 86.957 89.5467 86.957 90.08C86.957 90.6133 87.0336 90.88 87.187 90.88C87.3136 90.88 87.5436 90.7767 87.877 90.57C88.2103 90.3567 88.4503 90.1533 88.597 89.96C88.7436 89.7667 88.8636 89.67 88.957 89.67C89.0503 89.67 89.097 89.7833 89.097 90.01C89.097 90.2367 89.017 90.47 88.857 90.71C88.697 90.9433 88.4936 91.16 88.247 91.36C88.007 91.5533 87.737 91.7133 87.437 91.84C87.1436 91.9667 86.887 92.03 86.667 92.03C86.447 92.03 86.277 91.98 86.157 91.88C86.0436 91.7733 85.947 91.6333 85.867 91.46ZM90.0608 90.32L90.1208 91.54C90.1208 91.7 90.0374 91.8433 89.8708 91.97C89.7041 92.0967 89.4774 92.16 89.1908 92.16C89.0241 92.16 88.9074 92.0733 88.8408 91.9C88.7808 91.7267 88.7508 91.4733 88.7508 91.14C88.7508 90.44 88.7841 89.8933 88.8508 89.5C88.9241 89.1 89.0641 88.6967 89.2708 88.29C88.9641 87.9967 88.8108 87.7433 88.8108 87.53C88.8108 87.0833 89.0508 86.86 89.5308 86.86C89.7774 86.86 89.9941 86.99 90.1808 87.25C90.3141 87.43 90.4108 87.64 90.4708 87.88C90.5641 87.9133 90.6808 87.93 90.8208 87.93C91.0141 87.93 91.2374 87.8667 91.4908 87.74L91.7508 87.61C91.8308 87.57 91.9008 87.55 91.9608 87.55C92.1541 87.55 92.3474 87.8333 92.5408 88.4C92.4808 88.66 92.4141 88.91 92.3408 89.15C92.2741 89.39 92.1941 89.68 92.1008 90.02C92.0074 90.36 91.9574 90.59 91.9508 90.71C91.9508 90.8233 91.9874 90.88 92.0608 90.88C92.1608 90.88 92.2841 90.8167 92.4308 90.69C92.5774 90.5633 92.7241 90.4267 92.8708 90.28C93.0174 90.1267 93.1508 89.9867 93.2708 89.86C93.3974 89.7333 93.4841 89.67 93.5308 89.67C93.6241 89.67 93.6708 89.7833 93.6708 90.01C93.6708 90.47 93.4674 90.9233 93.0608 91.37C92.6608 91.8167 92.2008 92.0367 91.6808 92.03C91.3741 92.03 91.1441 91.9067 90.9908 91.66C90.8374 91.4133 90.7574 91.1133 90.7508 90.76C90.7508 90.06 90.9074 89.3967 91.2208 88.77C91.0741 88.83 90.9074 88.86 90.7208 88.86C90.5408 88.86 90.4108 88.8533 90.3308 88.84C90.2708 89.0933 90.2108 89.35 90.1508 89.61C90.0908 89.8633 90.0608 90.1 90.0608 90.32ZM99.3111 89.64C99.4311 89.64 99.4911 89.7933 99.4911 90.1C99.4911 90.2667 99.4211 90.47 99.2811 90.71C99.1411 90.9433 98.9578 91.16 98.7311 91.36C98.5111 91.5533 98.2644 91.7133 97.9911 91.84C97.7178 91.9667 97.4511 92.03 97.1911 92.03C96.8378 92.03 96.6011 91.72 96.4811 91.1C96.3078 91.3867 96.0811 91.6233 95.8011 91.81C95.5211 91.99 95.1444 92.08 94.6711 92.08C94.2044 92.08 93.8278 91.9333 93.5411 91.64C93.2544 91.3467 93.1144 90.99 93.1211 90.57C93.1211 89.4367 93.4978 88.5433 94.2511 87.89C94.5711 87.6167 94.8678 87.4367 95.1411 87.35C95.4211 87.2633 95.7144 87.22 96.0211 87.22C96.3278 87.22 96.5778 87.2733 96.7711 87.38C96.8644 87.1867 96.9711 87.09 97.0911 87.09C97.3244 87.09 97.5444 87.1933 97.7511 87.4C97.9644 87.6 98.0711 87.79 98.0711 87.97C97.9778 88.19 97.8411 88.4533 97.6611 88.76C97.6078 89.0667 97.5811 89.4967 97.5811 90.05C97.5811 90.6033 97.6511 90.88 97.7911 90.88C97.9644 90.88 98.3844 90.5333 99.0511 89.84C99.1711 89.7067 99.2578 89.64 99.3111 89.64ZM94.5911 90.24C94.5911 90.7533 94.7811 91.01 95.1611 91.01C95.5678 91.0033 95.9044 90.7867 96.1711 90.36C96.2644 90.2133 96.3411 90.0333 96.4011 89.82C96.4011 89.0733 96.4678 88.4333 96.6011 87.9C96.0611 88.0067 95.5911 88.2667 95.1911 88.68C94.7911 89.0933 94.5911 89.6133 94.5911 90.24ZM100.881 87.81C101.228 87.4167 101.671 87.22 102.211 87.22C102.985 87.22 103.475 87.5333 103.681 88.16C103.741 88.3467 103.771 88.5533 103.771 88.78C103.771 89.2867 103.605 89.7867 103.271 90.28C102.945 90.7733 102.548 91.1067 102.081 91.28H102.201C102.688 91.28 103.181 91.1 103.681 90.74C104.001 90.5133 104.251 90.28 104.431 90.04C104.618 89.7933 104.758 89.67 104.851 89.67C104.945 89.67 104.991 89.7767 104.991 89.99C104.991 90.3633 104.831 90.74 104.511 91.12C104.031 91.6667 103.418 91.9867 102.671 92.08C102.131 92.14 101.748 92.15 101.521 92.11C101.295 92.07 101.121 92.02 101.001 91.96C100.741 91.8267 100.611 91.6267 100.611 91.36C100.611 91.2133 100.641 91.08 100.701 90.96C101.228 90.96 101.628 90.76 101.901 90.36C102.175 89.96 102.311 89.46 102.311 88.86C102.311 88.7133 102.258 88.5833 102.151 88.47C102.045 88.35 101.901 88.29 101.721 88.29C101.548 88.29 101.358 88.3667 101.151 88.52C100.945 88.6733 100.778 88.8667 100.651 89.1C100.531 89.3267 100.421 89.5533 100.321 89.78C100.221 90 100.141 90.28 100.081 90.62C99.9747 91.2333 99.8514 92.0067 99.7114 92.94C99.5781 93.88 99.4947 94.3833 99.4614 94.45C99.4281 94.5233 99.3781 94.59 99.3114 94.65C99.2447 94.71 99.1747 94.74 99.1014 94.74C98.9681 94.74 98.8581 94.7 98.7714 94.62C98.5314 94.4133 98.3914 94.2533 98.3514 94.14C98.3114 94.0333 98.2914 93.8933 98.2914 93.72C98.2914 93.0667 98.4014 92.15 98.6214 90.97C98.8414 89.79 99.2214 88.5633 99.7614 87.29C99.8414 87.1033 99.9814 87.01 100.181 87.01C100.388 87.01 100.585 87.19 100.771 87.55C100.825 87.6433 100.861 87.73 100.881 87.81Z" fill="black"/>
<path d="M32.21 3.03C32.58 3.27 32.765 3.55333 32.765 3.88C32.765 4.22333 32.6467 4.51333 32.41 4.75C32.1533 4.99667 31.8217 5.12167 31.415 5.125C31.0717 5.12833 30.7917 5.04167 30.575 4.865C30.3583 4.68833 30.25 4.47 30.25 4.21C30.25 3.76333 30.4467 3.43 30.84 3.21C30.9533 3.15 31.07 3.095 31.19 3.045C30.9733 2.915 30.83 2.81 30.76 2.73C30.6167 2.56667 30.545 2.395 30.545 2.215C30.545 1.89167 30.64 1.64833 30.83 1.485C31.0233 1.31833 31.285 1.235 31.615 1.235C31.845 1.23167 32.05 1.3 32.23 1.44C32.41 1.57333 32.4983 1.71833 32.495 1.875C32.495 1.905 32.4817 1.92 32.455 1.92C32.3783 1.92 32.2533 1.88667 32.08 1.82C31.91 1.75333 31.75 1.72 31.6 1.72C31.4533 1.71667 31.3383 1.75 31.255 1.82C31.1717 1.89 31.13 1.97333 31.13 2.07C31.13 2.23667 31.195 2.37833 31.325 2.495C31.4117 2.57167 31.5633 2.66833 31.78 2.785C31.8967 2.72167 31.99 2.64833 32.06 2.565C32.1333 2.48167 32.17 2.37167 32.17 2.235C32.17 2.195 32.1583 2.15667 32.135 2.12C32.115 2.08333 32.105 2.04833 32.105 2.015C32.105 1.98167 32.1167 1.965 32.14 1.965C32.22 1.965 32.2983 2.00833 32.375 2.095C32.4517 2.18167 32.49 2.29333 32.49 2.43C32.49 2.69667 32.3967 2.89667 32.21 3.03ZM31.465 4.485C31.6083 4.485 31.7267 4.44167 31.82 4.355C31.9167 4.265 31.965 4.14167 31.965 3.985C31.965 3.715 31.85 3.49167 31.62 3.315C31.43 3.40167 31.3 3.485 31.23 3.565C31.0967 3.715 31.03 3.90167 31.03 4.125C31.03 4.22833 31.0667 4.315 31.14 4.385C31.2167 4.45167 31.325 4.485 31.465 4.485ZM35.9977 1.75C35.9977 1.78667 35.956 1.805 35.8727 1.805C35.7894 1.805 35.721 1.8 35.6677 1.79C35.6177 1.78 35.5344 1.765 35.4177 1.745C35.301 1.725 35.1694 1.715 35.0227 1.715C34.8794 1.715 34.7444 1.765 34.6177 1.865C34.4944 1.96167 34.3894 2.08667 34.3027 2.24C34.1294 2.55 34.0444 2.90833 34.0477 3.315C34.051 3.66167 34.126 3.925 34.2727 4.105C34.4194 4.28167 34.6044 4.37 34.8277 4.37C34.961 4.37 35.096 4.33667 35.2327 4.27C35.3727 4.20333 35.4994 4.10667 35.6127 3.98C35.866 3.69333 35.991 3.335 35.9877 2.905C35.991 2.635 35.9094 2.42333 35.7427 2.27C35.6827 2.21 35.626 2.16 35.5727 2.12C35.5194 2.08 35.4927 2.02833 35.4927 1.965C35.4927 1.92833 35.5294 1.91 35.6027 1.91C35.7894 1.91 35.9594 1.98 36.1127 2.12C36.3194 2.31 36.4227 2.58333 36.4227 2.94C36.4227 3.60667 36.251 4.12333 35.9077 4.49C35.5644 4.85333 35.136 5.035 34.6227 5.035C34.236 5.035 33.9194 4.91 33.6727 4.66C33.3994 4.38 33.2627 3.995 33.2627 3.505C33.2627 3.14833 33.336 2.8 33.4827 2.46C33.7227 1.89333 34.0794 1.51667 34.5527 1.33C34.7194 1.26333 34.8894 1.23 35.0627 1.23C35.366 1.23333 35.5977 1.29 35.7577 1.4C35.921 1.50667 36.001 1.62333 35.9977 1.75ZM38.1148 1.5L37.8098 1.475C37.6998 1.475 37.6148 1.53333 37.5548 1.65C37.5015 1.75 37.4731 1.86667 37.4698 2C37.4698 2.13333 37.4931 2.22833 37.5398 2.285C37.5898 2.33833 37.6415 2.365 37.6948 2.365C37.7981 2.365 37.8915 2.32 37.9748 2.23C38.0581 2.13667 38.0998 2.015 38.0998 1.865C38.0998 1.82167 38.0931 1.78 38.0798 1.74C38.0665 1.7 38.0598 1.66333 38.0598 1.63C38.0598 1.57 38.0915 1.54 38.1548 1.54C38.2181 1.54 38.2681 1.57333 38.3048 1.64C38.3415 1.70333 38.3598 1.795 38.3598 1.915C38.3598 2.16167 38.2881 2.35667 38.1448 2.5C38.0115 2.64 37.8431 2.71 37.6398 2.71C37.3898 2.71 37.2181 2.59667 37.1248 2.37C37.0915 2.29 37.0748 2.19667 37.0748 2.09C37.0748 1.86667 37.1431 1.66167 37.2798 1.475C37.4165 1.28833 37.5931 1.195 37.8098 1.195C37.9398 1.195 38.0365 1.22 38.0998 1.27C38.1665 1.31667 38.1998 1.37167 38.1998 1.435C38.1998 1.47833 38.1715 1.5 38.1148 1.5ZM39.2548 1.285C39.2648 1.25833 39.2815 1.245 39.3048 1.245C39.3515 1.245 39.4081 1.29167 39.4748 1.385C39.5415 1.47833 39.5731 1.56167 39.5698 1.635C39.5698 1.70833 39.5531 1.78167 39.5198 1.855C39.4898 1.925 39.4465 2.005 39.3898 2.095C39.3365 2.18167 39.2748 2.27667 39.2048 2.38C38.8748 2.86667 38.5415 3.405 38.2048 3.995C37.8681 4.585 37.6581 5.005 37.5748 5.255C37.5681 5.265 37.5515 5.27 37.5248 5.27C37.4715 5.27 37.4148 5.22667 37.3548 5.14C37.2948 5.05333 37.2648 4.985 37.2648 4.935C37.2648 4.885 37.2698 4.845 37.2798 4.815L39.2548 1.285ZM39.5848 3.85L39.2798 3.825C39.1698 3.825 39.0848 3.88333 39.0248 4C38.9715 4.1 38.9431 4.21667 38.9398 4.35C38.9398 4.48333 38.9631 4.57833 39.0098 4.635C39.0598 4.68833 39.1115 4.715 39.1648 4.715C39.2681 4.715 39.3615 4.67 39.4448 4.58C39.5281 4.48667 39.5698 4.365 39.5698 4.215C39.5698 4.17167 39.5631 4.13 39.5498 4.09C39.5365 4.05 39.5298 4.01333 39.5298 3.98C39.5298 3.92 39.5615 3.89 39.6248 3.89C39.6881 3.89 39.7381 3.92333 39.7748 3.99C39.8115 4.05333 39.8298 4.145 39.8298 4.265C39.8298 4.51167 39.7581 4.70667 39.6148 4.85C39.4815 4.99 39.3131 5.06 39.1098 5.06C38.8598 5.06 38.6881 4.94667 38.5948 4.72C38.5615 4.64 38.5448 4.54667 38.5448 4.44C38.5448 4.21667 38.6131 4.01167 38.7498 3.825C38.8865 3.63833 39.0631 3.545 39.2798 3.545C39.4098 3.545 39.5065 3.57 39.5698 3.62C39.6365 3.66667 39.6698 3.72167 39.6698 3.785C39.6698 3.82833 39.6415 3.85 39.5848 3.85Z" fill="black" fill-opacity="0.6"/>
<path d="M15.2 3.74C15.2 3.65333 15.29 3.565 15.47 3.475C15.4733 3.21833 15.5167 2.95667 15.6 2.69C15.6833 2.42333 15.8033 2.18333 15.96 1.97C16.1167 1.75333 16.3067 1.57667 16.53 1.44C16.7567 1.30333 17.0117 1.235 17.295 1.235C17.5783 1.235 17.8017 1.29 17.965 1.4C18.1283 1.50667 18.2083 1.62333 18.205 1.75C18.205 1.81667 18.1783 1.85 18.125 1.85C18.095 1.85 17.9933 1.82667 17.82 1.78C17.6467 1.73333 17.475 1.71167 17.305 1.715C17.1383 1.715 16.9983 1.75167 16.885 1.825C16.775 1.895 16.6783 1.98667 16.595 2.1C16.425 2.33667 16.315 2.62 16.265 2.95C16.5617 2.81667 16.88 2.75 17.22 2.75C17.56 2.75 17.8317 2.855 18.035 3.065C18.2417 3.275 18.345 3.52333 18.345 3.81C18.345 4.18667 18.1983 4.48667 17.905 4.71C17.6117 4.93333 17.24 5.045 16.79 5.045C16.4567 5.04833 16.1667 4.945 15.92 4.735C15.6733 4.52167 15.5267 4.19667 15.48 3.76C15.4067 3.79333 15.3417 3.81 15.285 3.81C15.2283 3.81 15.2 3.78667 15.2 3.74ZM17.675 3.805C17.675 3.635 17.62 3.49333 17.51 3.38C17.4 3.26667 17.2233 3.21 16.98 3.21C16.7367 3.21 16.4883 3.27333 16.235 3.4C16.2483 3.72 16.3233 3.97 16.46 4.15C16.6 4.32667 16.7733 4.41667 16.98 4.42C17.1867 4.42 17.3533 4.36 17.48 4.24C17.61 4.11667 17.675 3.97167 17.675 3.805ZM19.4443 3.275C19.2977 3.22833 19.2093 3.155 19.1793 3.055C19.2127 2.765 19.2827 2.445 19.3893 2.095C19.4227 1.98167 19.4627 1.87667 19.5093 1.78C19.4027 1.79 19.321 1.795 19.2643 1.795C19.2077 1.795 19.1793 1.77833 19.1793 1.745C19.1793 1.685 19.2127 1.62167 19.2793 1.555C19.346 1.485 19.4393 1.42 19.5593 1.36C19.8327 1.22667 20.166 1.16167 20.5593 1.165L21.5693 1.18C21.6227 1.18 21.6493 1.21167 21.6493 1.275C21.6493 1.295 21.641 1.33 21.6243 1.38C21.6077 1.43 21.5927 1.48167 21.5793 1.535C21.5527 1.645 21.496 1.7 21.4093 1.7L20.6493 1.665C20.5027 1.665 20.296 1.68167 20.0293 1.715C19.996 1.855 19.9543 2.00833 19.9043 2.175C19.8543 2.34167 19.8027 2.53 19.7493 2.74C19.8227 2.72667 19.9243 2.72 20.0543 2.72C20.1877 2.72 20.3327 2.74167 20.4893 2.785C20.6493 2.825 20.7893 2.89167 20.9093 2.985C21.1727 3.18833 21.3043 3.49167 21.3043 3.895C21.3043 4.295 21.1677 4.59833 20.8943 4.805C20.621 5.00833 20.2627 5.11 19.8193 5.11C19.5093 5.11 19.2343 5.02 18.9943 4.84C18.891 4.76 18.811 4.67333 18.7543 4.58C18.6977 4.48667 18.6693 4.405 18.6693 4.335C18.6693 4.26167 18.7027 4.225 18.7693 4.225C18.836 4.225 18.901 4.24667 18.9643 4.29C19.0277 4.33 19.096 4.37667 19.1693 4.43C19.356 4.56333 19.536 4.63 19.7093 4.63C19.9693 4.63 20.161 4.56667 20.2843 4.44C20.411 4.31333 20.4743 4.15167 20.4743 3.955C20.4743 3.44833 20.2543 3.195 19.8143 3.195L19.6293 3.2C19.5927 3.25 19.531 3.275 19.4443 3.275ZM23.1392 1.5L22.8342 1.475C22.7242 1.475 22.6392 1.53333 22.5792 1.65C22.5259 1.75 22.4976 1.86667 22.4942 2C22.4942 2.13333 22.5176 2.22833 22.5642 2.285C22.6142 2.33833 22.6659 2.365 22.7192 2.365C22.8226 2.365 22.9159 2.32 22.9992 2.23C23.0826 2.13667 23.1242 2.015 23.1242 1.865C23.1242 1.82167 23.1176 1.78 23.1042 1.74C23.0909 1.7 23.0842 1.66333 23.0842 1.63C23.0842 1.57 23.1159 1.54 23.1792 1.54C23.2426 1.54 23.2926 1.57333 23.3292 1.64C23.3659 1.70333 23.3842 1.795 23.3842 1.915C23.3842 2.16167 23.3126 2.35667 23.1692 2.5C23.0359 2.64 22.8676 2.71 22.6642 2.71C22.4142 2.71 22.2426 2.59667 22.1492 2.37C22.1159 2.29 22.0992 2.19667 22.0992 2.09C22.0992 1.86667 22.1676 1.66167 22.3042 1.475C22.4409 1.28833 22.6176 1.195 22.8342 1.195C22.9642 1.195 23.0609 1.22 23.1242 1.27C23.1909 1.31667 23.2242 1.37167 23.2242 1.435C23.2242 1.47833 23.1959 1.5 23.1392 1.5ZM24.2792 1.285C24.2892 1.25833 24.3059 1.245 24.3292 1.245C24.3759 1.245 24.4326 1.29167 24.4992 1.385C24.5659 1.47833 24.5976 1.56167 24.5942 1.635C24.5942 1.70833 24.5776 1.78167 24.5442 1.855C24.5142 1.925 24.4709 2.005 24.4142 2.095C24.3609 2.18167 24.2992 2.27667 24.2292 2.38C23.8992 2.86667 23.5659 3.405 23.2292 3.995C22.8926 4.585 22.6826 5.005 22.5992 5.255C22.5926 5.265 22.5759 5.27 22.5492 5.27C22.4959 5.27 22.4392 5.22667 22.3792 5.14C22.3192 5.05333 22.2892 4.985 22.2892 4.935C22.2892 4.885 22.2942 4.845 22.3042 4.815L24.2792 1.285ZM24.6092 3.85L24.3042 3.825C24.1942 3.825 24.1092 3.88333 24.0492 4C23.9959 4.1 23.9676 4.21667 23.9642 4.35C23.9642 4.48333 23.9876 4.57833 24.0342 4.635C24.0842 4.68833 24.1359 4.715 24.1892 4.715C24.2926 4.715 24.3859 4.67 24.4692 4.58C24.5526 4.48667 24.5942 4.365 24.5942 4.215C24.5942 4.17167 24.5876 4.13 24.5742 4.09C24.5609 4.05 24.5542 4.01333 24.5542 3.98C24.5542 3.92 24.5859 3.89 24.6492 3.89C24.7126 3.89 24.7626 3.92333 24.7992 3.99C24.8359 4.05333 24.8542 4.145 24.8542 4.265C24.8542 4.51167 24.7826 4.70667 24.6392 4.85C24.5059 4.99 24.3376 5.06 24.1342 5.06C23.8842 5.06 23.7126 4.94667 23.6192 4.72C23.5859 4.64 23.5692 4.54667 23.5692 4.44C23.5692 4.21667 23.6376 4.01167 23.7742 3.825C23.9109 3.63833 24.0876 3.545 24.3042 3.545C24.4342 3.545 24.5309 3.57 24.5942 3.62C24.6609 3.66667 24.6942 3.72167 24.6942 3.785C24.6942 3.82833 24.6659 3.85 24.6092 3.85Z" fill="black" fill-opacity="0.6"/>
<path d="M0.875 3.275C0.728333 3.22833 0.64 3.155 0.61 3.055C0.643333 2.765 0.713333 2.445 0.82 2.095C0.853333 1.98167 0.893333 1.87667 0.94 1.78C0.833333 1.79 0.751667 1.795 0.695 1.795C0.638333 1.795 0.61 1.77833 0.61 1.745C0.61 1.685 0.643333 1.62167 0.71 1.555C0.776667 1.485 0.87 1.42 0.99 1.36C1.26333 1.22667 1.59667 1.16167 1.99 1.165L3 1.18C3.05333 1.18 3.08 1.21167 3.08 1.275C3.08 1.295 3.07167 1.33 3.055 1.38C3.03833 1.43 3.02333 1.48167 3.01 1.535C2.98333 1.645 2.92667 1.7 2.84 1.7L2.08 1.665C1.93333 1.665 1.72667 1.68167 1.46 1.715C1.42667 1.855 1.385 2.00833 1.335 2.175C1.285 2.34167 1.23333 2.53 1.18 2.74C1.25333 2.72667 1.355 2.72 1.485 2.72C1.61833 2.72 1.76333 2.74167 1.92 2.785C2.08 2.825 2.22 2.89167 2.34 2.985C2.60333 3.18833 2.735 3.49167 2.735 3.895C2.735 4.295 2.59833 4.59833 2.325 4.805C2.05167 5.00833 1.69333 5.11 1.25 5.11C0.94 5.11 0.665 5.02 0.425 4.84C0.321667 4.76 0.241667 4.67333 0.185 4.58C0.128333 4.48667 0.1 4.405 0.1 4.335C0.1 4.26167 0.133333 4.225 0.2 4.225C0.266667 4.225 0.331667 4.24667 0.395 4.29C0.458333 4.33 0.526667 4.37667 0.6 4.43C0.786667 4.56333 0.966667 4.63 1.14 4.63C1.4 4.63 1.59167 4.56667 1.715 4.44C1.84167 4.31333 1.905 4.15167 1.905 3.955C1.905 3.44833 1.685 3.195 1.245 3.195L1.06 3.2C1.02333 3.25 0.961667 3.275 0.875 3.275ZM4.00488 3.275C3.85822 3.22833 3.76988 3.155 3.73988 3.055C3.77322 2.765 3.84322 2.445 3.94988 2.095C3.98322 1.98167 4.02322 1.87667 4.06988 1.78C3.96322 1.79 3.88155 1.795 3.82488 1.795C3.76822 1.795 3.73988 1.77833 3.73988 1.745C3.73988 1.685 3.77322 1.62167 3.83988 1.555C3.90655 1.485 3.99988 1.42 4.11988 1.36C4.39322 1.22667 4.72655 1.16167 5.11988 1.165L6.12988 1.18C6.18322 1.18 6.20988 1.21167 6.20988 1.275C6.20988 1.295 6.20155 1.33 6.18488 1.38C6.16822 1.43 6.15322 1.48167 6.13988 1.535C6.11322 1.645 6.05655 1.7 5.96988 1.7L5.20988 1.665C5.06322 1.665 4.85655 1.68167 4.58988 1.715C4.55655 1.855 4.51488 2.00833 4.46488 2.175C4.41488 2.34167 4.36322 2.53 4.30988 2.74C4.38322 2.72667 4.48488 2.72 4.61488 2.72C4.74822 2.72 4.89322 2.74167 5.04988 2.785C5.20988 2.825 5.34988 2.89167 5.46988 2.985C5.73322 3.18833 5.86488 3.49167 5.86488 3.895C5.86488 4.295 5.72822 4.59833 5.45488 4.805C5.18155 5.00833 4.82322 5.11 4.37988 5.11C4.06988 5.11 3.79488 5.02 3.55488 4.84C3.45155 4.76 3.37155 4.67333 3.31488 4.58C3.25822 4.48667 3.22988 4.405 3.22988 4.335C3.22988 4.26167 3.26322 4.225 3.32988 4.225C3.39655 4.225 3.46155 4.24667 3.52488 4.29C3.58822 4.33 3.65655 4.37667 3.72988 4.43C3.91655 4.56333 4.09655 4.63 4.26988 4.63C4.52988 4.63 4.72155 4.56667 4.84488 4.44C4.97155 4.31333 5.03488 4.15167 5.03488 3.955C5.03488 3.44833 4.81488 3.195 4.37488 3.195L4.18988 3.2C4.15322 3.25 4.09155 3.275 4.00488 3.275ZM7.69977 1.5L7.39477 1.475C7.28477 1.475 7.19977 1.53333 7.13977 1.65C7.08643 1.75 7.0581 1.86667 7.05477 2C7.05477 2.13333 7.0781 2.22833 7.12477 2.285C7.17477 2.33833 7.22643 2.365 7.27977 2.365C7.3831 2.365 7.47643 2.32 7.55977 2.23C7.6431 2.13667 7.68477 2.015 7.68477 1.865C7.68477 1.82167 7.6781 1.78 7.66477 1.74C7.65143 1.7 7.64477 1.66333 7.64477 1.63C7.64477 1.57 7.67643 1.54 7.73977 1.54C7.8031 1.54 7.8531 1.57333 7.88977 1.64C7.92643 1.70333 7.94477 1.795 7.94477 1.915C7.94477 2.16167 7.8731 2.35667 7.72977 2.5C7.59643 2.64 7.4281 2.71 7.22477 2.71C6.97477 2.71 6.8031 2.59667 6.70977 2.37C6.67643 2.29 6.65977 2.19667 6.65977 2.09C6.65977 1.86667 6.7281 1.66167 6.86477 1.475C7.00143 1.28833 7.1781 1.195 7.39477 1.195C7.52477 1.195 7.62143 1.22 7.68477 1.27C7.75143 1.31667 7.78477 1.37167 7.78477 1.435C7.78477 1.47833 7.75643 1.5 7.69977 1.5ZM8.83977 1.285C8.84977 1.25833 8.86643 1.245 8.88977 1.245C8.93643 1.245 8.9931 1.29167 9.05977 1.385C9.12643 1.47833 9.1581 1.56167 9.15477 1.635C9.15477 1.70833 9.1381 1.78167 9.10477 1.855C9.07477 1.925 9.03143 2.005 8.97477 2.095C8.92143 2.18167 8.85977 2.27667 8.78977 2.38C8.45977 2.86667 8.12643 3.405 7.78977 3.995C7.4531 4.585 7.2431 5.005 7.15977 5.255C7.1531 5.265 7.13643 5.27 7.10977 5.27C7.05643 5.27 6.99977 5.22667 6.93977 5.14C6.87977 5.05333 6.84977 4.985 6.84977 4.935C6.84977 4.885 6.85477 4.845 6.86477 4.815L8.83977 1.285ZM9.16977 3.85L8.86477 3.825C8.75477 3.825 8.66977 3.88333 8.60977 4C8.55643 4.1 8.5281 4.21667 8.52477 4.35C8.52477 4.48333 8.5481 4.57833 8.59477 4.635C8.64477 4.68833 8.69643 4.715 8.74977 4.715C8.8531 4.715 8.94643 4.67 9.02977 4.58C9.1131 4.48667 9.15477 4.365 9.15477 4.215C9.15477 4.17167 9.1481 4.13 9.13477 4.09C9.12143 4.05 9.11477 4.01333 9.11477 3.98C9.11477 3.92 9.14643 3.89 9.20977 3.89C9.2731 3.89 9.3231 3.92333 9.35977 3.99C9.39643 4.05333 9.41477 4.145 9.41477 4.265C9.41477 4.51167 9.3431 4.70667 9.19977 4.85C9.06643 4.99 8.8981 5.06 8.69477 5.06C8.44477 5.06 8.2731 4.94667 8.17977 4.72C8.14643 4.64 8.12977 4.54667 8.12977 4.44C8.12977 4.21667 8.1981 4.01167 8.33477 3.825C8.47143 3.63833 8.6481 3.545 8.86477 3.545C8.99477 3.545 9.09143 3.57 9.15477 3.62C9.22143 3.66667 9.25477 3.72167 9.25477 3.785C9.25477 3.82833 9.22643 3.85 9.16977 3.85Z" fill="black" fill-opacity="0.6"/>
<path d="M46.635 2.77C46.7417 2.77667 46.795 2.80667 46.795 2.86C46.795 2.89 46.7867 2.93 46.77 2.98C46.7533 3.03 46.7383 3.08167 46.725 3.135C46.6983 3.245 46.64 3.3 46.55 3.3C46.46 3.3 46.29 3.29167 46.04 3.275C45.8167 4.025 45.705 4.56167 45.705 4.885C45.705 4.97833 45.6383 5.025 45.505 5.025C45.295 5.025 45.1517 4.985 45.075 4.905C44.9983 4.82167 44.96 4.67833 44.96 4.475C44.96 4.26833 45.0633 3.87833 45.27 3.305C45.1 3.32167 44.935 3.34167 44.775 3.365C44.615 3.385 44.4867 3.395 44.39 3.395C44.3467 3.395 44.325 3.37833 44.325 3.345C44.3283 3.22167 44.44 3.10833 44.66 3.005C44.8833 2.90167 45.1533 2.82833 45.47 2.785C45.5733 2.52167 45.7283 2.15333 45.935 1.68C45.835 1.67 45.73 1.665 45.62 1.665C45.4533 1.665 45.2017 1.68667 44.865 1.73C44.5283 1.77333 44.3117 1.795 44.215 1.795C44.1717 1.795 44.15 1.77833 44.15 1.745C44.15 1.685 44.1833 1.62167 44.25 1.555C44.3167 1.485 44.41 1.42 44.53 1.36C44.8033 1.22667 45.1367 1.16167 45.53 1.165L46.54 1.18C46.62 1.18 46.66 1.23333 46.66 1.34C46.66 1.40333 46.6467 1.47 46.62 1.54C46.5933 1.61 46.5617 1.65667 46.525 1.68L46.19 2.77C46.3367 2.77 46.485 2.77 46.635 2.77ZM47.8682 3.275C47.7215 3.22833 47.6332 3.155 47.6032 3.055C47.6365 2.765 47.7065 2.445 47.8132 2.095C47.8465 1.98167 47.8865 1.87667 47.9332 1.78C47.8265 1.79 47.7448 1.795 47.6882 1.795C47.6315 1.795 47.6032 1.77833 47.6032 1.745C47.6032 1.685 47.6365 1.62167 47.7032 1.555C47.7698 1.485 47.8632 1.42 47.9832 1.36C48.2565 1.22667 48.5898 1.16167 48.9832 1.165L49.9932 1.18C50.0465 1.18 50.0732 1.21167 50.0732 1.275C50.0732 1.295 50.0648 1.33 50.0482 1.38C50.0315 1.43 50.0165 1.48167 50.0032 1.535C49.9765 1.645 49.9198 1.7 49.8332 1.7L49.0732 1.665C48.9265 1.665 48.7198 1.68167 48.4532 1.715C48.4198 1.855 48.3782 2.00833 48.3282 2.175C48.2782 2.34167 48.2265 2.53 48.1732 2.74C48.2465 2.72667 48.3482 2.72 48.4782 2.72C48.6115 2.72 48.7565 2.74167 48.9132 2.785C49.0732 2.825 49.2132 2.89167 49.3332 2.985C49.5965 3.18833 49.7282 3.49167 49.7282 3.895C49.7282 4.295 49.5915 4.59833 49.3182 4.805C49.0448 5.00833 48.6865 5.11 48.2432 5.11C47.9332 5.11 47.6582 5.02 47.4182 4.84C47.3148 4.76 47.2348 4.67333 47.1782 4.58C47.1215 4.48667 47.0932 4.405 47.0932 4.335C47.0932 4.26167 47.1265 4.225 47.1932 4.225C47.2598 4.225 47.3248 4.24667 47.3882 4.29C47.4515 4.33 47.5198 4.37667 47.5932 4.43C47.7798 4.56333 47.9598 4.63 48.1332 4.63C48.3932 4.63 48.5848 4.56667 48.7082 4.44C48.8348 4.31333 48.8982 4.15167 48.8982 3.955C48.8982 3.44833 48.6782 3.195 48.2382 3.195L48.0532 3.2C48.0165 3.25 47.9548 3.275 47.8682 3.275ZM51.563 1.5L51.258 1.475C51.148 1.475 51.063 1.53333 51.003 1.65C50.9497 1.75 50.9214 1.86667 50.918 2C50.918 2.13333 50.9414 2.22833 50.988 2.285C51.038 2.33833 51.0897 2.365 51.143 2.365C51.2464 2.365 51.3397 2.32 51.423 2.23C51.5064 2.13667 51.548 2.015 51.548 1.865C51.548 1.82167 51.5414 1.78 51.528 1.74C51.5147 1.7 51.508 1.66333 51.508 1.63C51.508 1.57 51.5397 1.54 51.603 1.54C51.6664 1.54 51.7164 1.57333 51.753 1.64C51.7897 1.70333 51.808 1.795 51.808 1.915C51.808 2.16167 51.7364 2.35667 51.593 2.5C51.4597 2.64 51.2914 2.71 51.088 2.71C50.838 2.71 50.6664 2.59667 50.573 2.37C50.5397 2.29 50.523 2.19667 50.523 2.09C50.523 1.86667 50.5914 1.66167 50.728 1.475C50.8647 1.28833 51.0414 1.195 51.258 1.195C51.388 1.195 51.4847 1.22 51.548 1.27C51.6147 1.31667 51.648 1.37167 51.648 1.435C51.648 1.47833 51.6197 1.5 51.563 1.5ZM52.703 1.285C52.713 1.25833 52.7297 1.245 52.753 1.245C52.7997 1.245 52.8564 1.29167 52.923 1.385C52.9897 1.47833 53.0214 1.56167 53.018 1.635C53.018 1.70833 53.0014 1.78167 52.968 1.855C52.938 1.925 52.8947 2.005 52.838 2.095C52.7847 2.18167 52.723 2.27667 52.653 2.38C52.323 2.86667 51.9897 3.405 51.653 3.995C51.3164 4.585 51.1064 5.005 51.023 5.255C51.0164 5.265 50.9997 5.27 50.973 5.27C50.9197 5.27 50.863 5.22667 50.803 5.14C50.743 5.05333 50.713 4.985 50.713 4.935C50.713 4.885 50.718 4.845 50.728 4.815L52.703 1.285ZM53.033 3.85L52.728 3.825C52.618 3.825 52.533 3.88333 52.473 4C52.4197 4.1 52.3914 4.21667 52.388 4.35C52.388 4.48333 52.4114 4.57833 52.458 4.635C52.508 4.68833 52.5597 4.715 52.613 4.715C52.7164 4.715 52.8097 4.67 52.893 4.58C52.9764 4.48667 53.018 4.365 53.018 4.215C53.018 4.17167 53.0114 4.13 52.998 4.09C52.9847 4.05 52.978 4.01333 52.978 3.98C52.978 3.92 53.0097 3.89 53.073 3.89C53.1364 3.89 53.1864 3.92333 53.223 3.99C53.2597 4.05333 53.278 4.145 53.278 4.265C53.278 4.51167 53.2064 4.70667 53.063 4.85C52.9297 4.99 52.7614 5.06 52.558 5.06C52.308 5.06 52.1364 4.94667 52.043 4.72C52.0097 4.64 51.993 4.54667 51.993 4.44C51.993 4.21667 52.0614 4.01167 52.198 3.825C52.3347 3.63833 52.5114 3.545 52.728 3.545C52.858 3.545 52.9547 3.57 53.018 3.62C53.0847 3.66667 53.118 3.72167 53.118 3.785C53.118 3.82833 53.0897 3.85 53.033 3.85Z" fill="black" fill-opacity="0.6"/>
<path d="M58.475 2.305C58.445 2.305 58.43 2.26333 58.43 2.18C58.43 2.02333 58.49 1.88167 58.61 1.755C58.73 1.625 58.8733 1.53667 59.04 1.49C59.1033 1.47 59.1767 1.44667 59.26 1.42C59.3433 1.39333 59.4567 1.35833 59.6 1.315C59.7467 1.27167 59.8733 1.25167 59.98 1.255C60.03 1.255 60.0783 1.31167 60.125 1.425C60.1383 1.45833 60.145 1.51167 60.145 1.585C60.145 1.655 60.12 1.79833 60.07 2.015C60.0233 2.23167 59.97 2.47667 59.91 2.75C59.74 3.49667 59.64 4.07 59.61 4.47C59.8033 4.47 59.9967 4.47 60.19 4.47C60.3233 4.47667 60.39 4.51167 60.39 4.575C60.39 4.595 60.38 4.63 60.36 4.68C60.34 4.73 60.3217 4.78167 60.305 4.835C60.2717 4.945 60.2017 5 60.095 5L59.05 4.965C58.8367 4.965 58.6433 4.98 58.47 5.01C58.3 5.04 58.1767 5.06167 58.1 5.075C58.0267 5.08833 57.9667 5.095 57.92 5.095C57.8733 5.095 57.85 5.07833 57.85 5.045C57.85 4.92167 57.9467 4.79833 58.14 4.675C58.3333 4.55167 58.5717 4.48333 58.855 4.47V4.39C58.855 4.05 58.9617 3.5 59.175 2.74C59.2683 2.40667 59.3567 2.12833 59.44 1.905L59.26 1.95C59.14 1.98333 59.0133 2.03833 58.88 2.115C58.7467 2.18833 58.655 2.23833 58.605 2.265C58.555 2.29167 58.5117 2.305 58.475 2.305ZM63.6266 1.75C63.6266 1.78667 63.5849 1.805 63.5016 1.805C63.4183 1.805 63.3499 1.8 63.2966 1.79C63.2466 1.78 63.1633 1.765 63.0466 1.745C62.9299 1.725 62.7983 1.715 62.6516 1.715C62.5083 1.715 62.3733 1.765 62.2466 1.865C62.1233 1.96167 62.0183 2.08667 61.9316 2.24C61.7583 2.55 61.6733 2.90833 61.6766 3.315C61.6799 3.66167 61.7549 3.925 61.9016 4.105C62.0483 4.28167 62.2333 4.37 62.4566 4.37C62.5899 4.37 62.7249 4.33667 62.8616 4.27C63.0016 4.20333 63.1283 4.10667 63.2416 3.98C63.4949 3.69333 63.6199 3.335 63.6166 2.905C63.6199 2.635 63.5383 2.42333 63.3716 2.27C63.3116 2.21 63.2549 2.16 63.2016 2.12C63.1483 2.08 63.1216 2.02833 63.1216 1.965C63.1216 1.92833 63.1583 1.91 63.2316 1.91C63.4183 1.91 63.5883 1.98 63.7416 2.12C63.9483 2.31 64.0516 2.58333 64.0516 2.94C64.0516 3.60667 63.8799 4.12333 63.5366 4.49C63.1933 4.85333 62.7649 5.035 62.2516 5.035C61.8649 5.035 61.5483 4.91 61.3016 4.66C61.0283 4.38 60.8916 3.995 60.8916 3.505C60.8916 3.14833 60.9649 2.8 61.1116 2.46C61.3516 1.89333 61.7083 1.51667 62.1816 1.33C62.3483 1.26333 62.5183 1.23 62.6916 1.23C62.9949 1.23333 63.2266 1.29 63.3866 1.4C63.5499 1.50667 63.6299 1.62333 63.6266 1.75ZM67.2887 1.75C67.2887 1.78667 67.247 1.805 67.1637 1.805C67.0804 1.805 67.012 1.8 66.9587 1.79C66.9087 1.78 66.8254 1.765 66.7087 1.745C66.592 1.725 66.4604 1.715 66.3137 1.715C66.1704 1.715 66.0354 1.765 65.9087 1.865C65.7854 1.96167 65.6804 2.08667 65.5937 2.24C65.4204 2.55 65.3354 2.90833 65.3387 3.315C65.342 3.66167 65.417 3.925 65.5637 4.105C65.7104 4.28167 65.8954 4.37 66.1187 4.37C66.252 4.37 66.387 4.33667 66.5237 4.27C66.6637 4.20333 66.7904 4.10667 66.9037 3.98C67.157 3.69333 67.282 3.335 67.2787 2.905C67.282 2.635 67.2004 2.42333 67.0337 2.27C66.9737 2.21 66.917 2.16 66.8637 2.12C66.8104 2.08 66.7837 2.02833 66.7837 1.965C66.7837 1.92833 66.8204 1.91 66.8937 1.91C67.0804 1.91 67.2504 1.98 67.4037 2.12C67.6104 2.31 67.7137 2.58333 67.7137 2.94C67.7137 3.60667 67.542 4.12333 67.1987 4.49C66.8554 4.85333 66.427 5.035 65.9137 5.035C65.527 5.035 65.2104 4.91 64.9637 4.66C64.6904 4.38 64.5537 3.995 64.5537 3.505C64.5537 3.14833 64.627 2.8 64.7737 2.46C65.0137 1.89333 65.3704 1.51667 65.8437 1.33C66.0104 1.26333 66.1804 1.23 66.3537 1.23C66.657 1.23333 66.8887 1.29 67.0487 1.4C67.212 1.50667 67.292 1.62333 67.2887 1.75ZM69.4058 1.5L69.1008 1.475C68.9908 1.475 68.9058 1.53333 68.8458 1.65C68.7925 1.75 68.7642 1.86667 68.7608 2C68.7608 2.13333 68.7842 2.22833 68.8308 2.285C68.8808 2.33833 68.9325 2.365 68.9858 2.365C69.0892 2.365 69.1825 2.32 69.2658 2.23C69.3492 2.13667 69.3908 2.015 69.3908 1.865C69.3908 1.82167 69.3842 1.78 69.3708 1.74C69.3575 1.7 69.3508 1.66333 69.3508 1.63C69.3508 1.57 69.3825 1.54 69.4458 1.54C69.5092 1.54 69.5592 1.57333 69.5958 1.64C69.6325 1.70333 69.6508 1.795 69.6508 1.915C69.6508 2.16167 69.5792 2.35667 69.4358 2.5C69.3025 2.64 69.1342 2.71 68.9308 2.71C68.6808 2.71 68.5092 2.59667 68.4158 2.37C68.3825 2.29 68.3658 2.19667 68.3658 2.09C68.3658 1.86667 68.4342 1.66167 68.5708 1.475C68.7075 1.28833 68.8842 1.195 69.1008 1.195C69.2308 1.195 69.3275 1.22 69.3908 1.27C69.4575 1.31667 69.4908 1.37167 69.4908 1.435C69.4908 1.47833 69.4625 1.5 69.4058 1.5ZM70.5458 1.285C70.5558 1.25833 70.5725 1.245 70.5958 1.245C70.6425 1.245 70.6992 1.29167 70.7658 1.385C70.8325 1.47833 70.8642 1.56167 70.8608 1.635C70.8608 1.70833 70.8442 1.78167 70.8108 1.855C70.7808 1.925 70.7375 2.005 70.6808 2.095C70.6275 2.18167 70.5658 2.27667 70.4958 2.38C70.1658 2.86667 69.8325 3.405 69.4958 3.995C69.1592 4.585 68.9492 5.005 68.8658 5.255C68.8592 5.265 68.8425 5.27 68.8158 5.27C68.7625 5.27 68.7058 5.22667 68.6458 5.14C68.5858 5.05333 68.5558 4.985 68.5558 4.935C68.5558 4.885 68.5608 4.845 68.5708 4.815L70.5458 1.285ZM70.8758 3.85L70.5708 3.825C70.4608 3.825 70.3758 3.88333 70.3158 4C70.2625 4.1 70.2342 4.21667 70.2308 4.35C70.2308 4.48333 70.2542 4.57833 70.3008 4.635C70.3508 4.68833 70.4025 4.715 70.4558 4.715C70.5592 4.715 70.6525 4.67 70.7358 4.58C70.8192 4.48667 70.8608 4.365 70.8608 4.215C70.8608 4.17167 70.8542 4.13 70.8408 4.09C70.8275 4.05 70.8208 4.01333 70.8208 3.98C70.8208 3.92 70.8525 3.89 70.9158 3.89C70.9792 3.89 71.0292 3.92333 71.0658 3.99C71.1025 4.05333 71.1208 4.145 71.1208 4.265C71.1208 4.51167 71.0492 4.70667 70.9058 4.85C70.7725 4.99 70.6042 5.06 70.4008 5.06C70.1508 5.06 69.9792 4.94667 69.8858 4.72C69.8525 4.64 69.8358 4.54667 69.8358 4.44C69.8358 4.21667 69.9042 4.01167 70.0408 3.825C70.1775 3.63833 70.3542 3.545 70.5708 3.545C70.7008 3.545 70.7975 3.57 70.8608 3.62C70.9275 3.66667 70.9608 3.72167 70.9608 3.785C70.9608 3.82833 70.9325 3.85 70.8758 3.85Z" fill="black" fill-opacity="0.6"/>
<path d="M77.21 3.03C77.58 3.27 77.765 3.55333 77.765 3.88C77.765 4.22333 77.6467 4.51333 77.41 4.75C77.1533 4.99667 76.8217 5.12167 76.415 5.125C76.0717 5.12833 75.7917 5.04167 75.575 4.865C75.3583 4.68833 75.25 4.47 75.25 4.21C75.25 3.76333 75.4467 3.43 75.84 3.21C75.9533 3.15 76.07 3.095 76.19 3.045C75.9733 2.915 75.83 2.81 75.76 2.73C75.6167 2.56667 75.545 2.395 75.545 2.215C75.545 1.89167 75.64 1.64833 75.83 1.485C76.0233 1.31833 76.285 1.235 76.615 1.235C76.845 1.23167 77.05 1.3 77.23 1.44C77.41 1.57333 77.4983 1.71833 77.495 1.875C77.495 1.905 77.4817 1.92 77.455 1.92C77.3783 1.92 77.2533 1.88667 77.08 1.82C76.91 1.75333 76.75 1.72 76.6 1.72C76.4533 1.71667 76.3383 1.75 76.255 1.82C76.1717 1.89 76.13 1.97333 76.13 2.07C76.13 2.23667 76.195 2.37833 76.325 2.495C76.4117 2.57167 76.5633 2.66833 76.78 2.785C76.8967 2.72167 76.99 2.64833 77.06 2.565C77.1333 2.48167 77.17 2.37167 77.17 2.235C77.17 2.195 77.1583 2.15667 77.135 2.12C77.115 2.08333 77.105 2.04833 77.105 2.015C77.105 1.98167 77.1167 1.965 77.14 1.965C77.22 1.965 77.2983 2.00833 77.375 2.095C77.4517 2.18167 77.49 2.29333 77.49 2.43C77.49 2.69667 77.3967 2.89667 77.21 3.03ZM76.465 4.485C76.6083 4.485 76.7267 4.44167 76.82 4.355C76.9167 4.265 76.965 4.14167 76.965 3.985C76.965 3.715 76.85 3.49167 76.62 3.315C76.43 3.40167 76.3 3.485 76.23 3.565C76.0967 3.715 76.03 3.90167 76.03 4.125C76.03 4.22833 76.0667 4.315 76.14 4.385C76.2167 4.45167 76.325 4.485 76.465 4.485ZM78.8877 3.275C78.741 3.22833 78.6527 3.155 78.6227 3.055C78.656 2.765 78.726 2.445 78.8327 2.095C78.866 1.98167 78.906 1.87667 78.9527 1.78C78.846 1.79 78.7644 1.795 78.7077 1.795C78.651 1.795 78.6227 1.77833 78.6227 1.745C78.6227 1.685 78.656 1.62167 78.7227 1.555C78.7894 1.485 78.8827 1.42 79.0027 1.36C79.276 1.22667 79.6094 1.16167 80.0027 1.165L81.0127 1.18C81.066 1.18 81.0927 1.21167 81.0927 1.275C81.0927 1.295 81.0844 1.33 81.0677 1.38C81.051 1.43 81.036 1.48167 81.0227 1.535C80.996 1.645 80.9394 1.7 80.8527 1.7L80.0927 1.665C79.946 1.665 79.7394 1.68167 79.4727 1.715C79.4394 1.855 79.3977 2.00833 79.3477 2.175C79.2977 2.34167 79.246 2.53 79.1927 2.74C79.266 2.72667 79.3677 2.72 79.4977 2.72C79.631 2.72 79.776 2.74167 79.9327 2.785C80.0927 2.825 80.2327 2.89167 80.3527 2.985C80.616 3.18833 80.7477 3.49167 80.7477 3.895C80.7477 4.295 80.611 4.59833 80.3377 4.805C80.0644 5.00833 79.706 5.11 79.2627 5.11C78.9527 5.11 78.6777 5.02 78.4377 4.84C78.3344 4.76 78.2544 4.67333 78.1977 4.58C78.141 4.48667 78.1127 4.405 78.1127 4.335C78.1127 4.26167 78.146 4.225 78.2127 4.225C78.2794 4.225 78.3444 4.24667 78.4077 4.29C78.471 4.33 78.5394 4.37667 78.6127 4.43C78.7994 4.56333 78.9794 4.63 79.1527 4.63C79.4127 4.63 79.6044 4.56667 79.7277 4.44C79.8544 4.31333 79.9177 4.15167 79.9177 3.955C79.9177 3.44833 79.6977 3.195 79.2577 3.195L79.0727 3.2C79.036 3.25 78.9744 3.275 78.8877 3.275ZM82.5826 1.5L82.2776 1.475C82.1676 1.475 82.0826 1.53333 82.0226 1.65C81.9692 1.75 81.9409 1.86667 81.9376 2C81.9376 2.13333 81.9609 2.22833 82.0076 2.285C82.0576 2.33833 82.1092 2.365 82.1626 2.365C82.2659 2.365 82.3592 2.32 82.4426 2.23C82.5259 2.13667 82.5676 2.015 82.5676 1.865C82.5676 1.82167 82.5609 1.78 82.5476 1.74C82.5342 1.7 82.5276 1.66333 82.5276 1.63C82.5276 1.57 82.5592 1.54 82.6226 1.54C82.6859 1.54 82.7359 1.57333 82.7726 1.64C82.8092 1.70333 82.8276 1.795 82.8276 1.915C82.8276 2.16167 82.7559 2.35667 82.6126 2.5C82.4792 2.64 82.3109 2.71 82.1076 2.71C81.8576 2.71 81.6859 2.59667 81.5926 2.37C81.5592 2.29 81.5426 2.19667 81.5426 2.09C81.5426 1.86667 81.6109 1.66167 81.7476 1.475C81.8842 1.28833 82.0609 1.195 82.2776 1.195C82.4076 1.195 82.5042 1.22 82.5676 1.27C82.6342 1.31667 82.6676 1.37167 82.6676 1.435C82.6676 1.47833 82.6392 1.5 82.5826 1.5ZM83.7226 1.285C83.7326 1.25833 83.7492 1.245 83.7726 1.245C83.8192 1.245 83.8759 1.29167 83.9426 1.385C84.0092 1.47833 84.0409 1.56167 84.0376 1.635C84.0376 1.70833 84.0209 1.78167 83.9876 1.855C83.9576 1.925 83.9142 2.005 83.8576 2.095C83.8042 2.18167 83.7426 2.27667 83.6726 2.38C83.3426 2.86667 83.0092 3.405 82.6726 3.995C82.3359 4.585 82.1259 5.005 82.0426 5.255C82.0359 5.265 82.0192 5.27 81.9926 5.27C81.9392 5.27 81.8826 5.22667 81.8226 5.14C81.7626 5.05333 81.7326 4.985 81.7326 4.935C81.7326 4.885 81.7376 4.845 81.7476 4.815L83.7226 1.285ZM84.0526 3.85L83.7476 3.825C83.6376 3.825 83.5526 3.88333 83.4926 4C83.4392 4.1 83.4109 4.21667 83.4076 4.35C83.4076 4.48333 83.4309 4.57833 83.4776 4.635C83.5276 4.68833 83.5792 4.715 83.6326 4.715C83.7359 4.715 83.8292 4.67 83.9126 4.58C83.9959 4.48667 84.0376 4.365 84.0376 4.215C84.0376 4.17167 84.0309 4.13 84.0176 4.09C84.0042 4.05 83.9976 4.01333 83.9976 3.98C83.9976 3.92 84.0292 3.89 84.0926 3.89C84.1559 3.89 84.2059 3.92333 84.2426 3.99C84.2792 4.05333 84.2976 4.145 84.2976 4.265C84.2976 4.51167 84.2259 4.70667 84.0826 4.85C83.9492 4.99 83.7809 5.06 83.5776 5.06C83.3276 5.06 83.1559 4.94667 83.0626 4.72C83.0292 4.64 83.0126 4.54667 83.0126 4.44C83.0126 4.21667 83.0809 4.01167 83.2176 3.825C83.3542 3.63833 83.5309 3.545 83.7476 3.545C83.8776 3.545 83.9742 3.57 84.0376 3.62C84.1042 3.66667 84.1376 3.72167 84.1376 3.785C84.1376 3.82833 84.1092 3.85 84.0526 3.85Z" fill="black" fill-opacity="0.6"/>
</svg>
