<svg width="76" height="95" viewBox="0 0 76 95" fill="none" xmlns="http://www.w3.org/2000/svg">
<path d="M16.0873 1.60032C16.0873 0.716488 15.3685 -0.00940444 14.4904 0.0907728C11.645 0.415372 8.952 1.60185 6.78275 3.5101C4.21106 5.77236 2.55167 8.89406 2.11497 12.2912C1.67827 15.6884 2.4942 19.1283 4.41011 21.9674C6.32602 24.8065 9.21067 26.8504 12.5244 27.7166C15.8382 28.5829 19.354 28.2122 22.4142 26.6739C25.4745 25.1356 27.8695 22.5351 29.1511 19.3589C30.4328 16.1826 30.5134 12.6482 29.3779 9.4168C28.42 6.69107 26.6522 4.33846 24.3297 2.6629C23.6129 2.14579 22.6308 2.42705 22.1983 3.19782V3.19782C21.7657 3.96858 22.0492 4.9354 22.7483 5.47617C24.3997 6.75361 25.6586 8.48698 26.3583 10.4779C27.2358 12.9752 27.1735 15.7066 26.183 18.1612C25.1925 20.6158 23.3417 22.6255 20.9768 23.8142C18.6118 25.003 15.8948 25.2895 13.3339 24.6201C10.773 23.9506 8.54379 22.3711 7.06318 20.177C5.58256 17.983 4.95201 15.3246 5.28949 12.6993C5.62697 10.074 6.90935 7.66152 8.89675 5.91325C10.4812 4.5194 12.4273 3.62385 14.4927 3.31804C15.367 3.18858 16.0873 2.48415 16.0873 1.60032V1.60032Z" fill="#136220"/>
<ellipse cx="16.2474" cy="14.0873" rx="11.3659" ry="11.2058" fill="#B0FF09"/>
<path d="M12.8172 17.2445C12.8172 17.6727 12.3999 17.8868 11.5653 17.8868C11.3839 17.8868 11.275 17.7961 11.2387 17.6146C11.2097 17.426 11.1952 17.1647 11.1952 16.8309C11.1952 16.1269 11.3367 15.2561 11.6197 14.2183C12.0914 12.5056 12.5958 11.4969 13.1328 11.1921C13.2054 11.1486 13.2852 11.1268 13.3723 11.1268C13.4594 11.1268 13.503 11.2683 13.503 11.5513C13.503 11.8344 13.4884 12.0847 13.4594 12.3024C13.4014 12.7379 13.2961 13.3003 13.1437 13.9897C12.9986 14.6791 12.926 15.0855 12.926 15.2089L12.8172 17.2445ZM13.5574 14.3163C13.5574 14.2219 13.6082 14.1603 13.7098 14.1312C13.8186 14.1022 13.9529 14.0768 14.1125 14.055C14.2722 14.026 14.4464 13.9861 14.6351 13.9353C14.8237 13.8845 14.9979 13.7901 15.1576 13.6523C15.5277 13.3329 15.7127 12.7996 15.7127 12.0521C15.7127 11.5731 15.5495 11.2066 15.2229 10.9526C14.9036 10.6986 14.4391 10.5716 13.8295 10.5716C13.2272 10.5716 12.6611 10.6986 12.1314 10.9526C11.9354 11.047 11.7576 11.134 11.598 11.2139C11.4456 11.2937 11.304 11.3336 11.1734 11.3336C11.0428 11.3336 10.9775 11.2937 10.9775 11.2139C10.9775 11.0905 11.0972 10.8873 11.3367 10.6043C11.5762 10.343 11.9536 10.0999 12.4688 9.87494C12.9913 9.64997 13.5392 9.53748 14.1125 9.53748C15.1939 9.53022 16.0357 9.78422 16.638 10.2995C17.1605 10.7494 17.4218 11.3336 17.4218 12.0521C17.4218 12.7633 17.1642 13.4019 16.6489 13.9679C16.1337 14.5267 15.4878 14.8061 14.7113 14.8061C13.942 14.8061 13.5574 14.6429 13.5574 14.3163ZM19.7982 12.4548C20.2844 12.4476 20.6473 12.5383 20.8867 12.727C21.1262 12.9084 21.246 13.1733 21.246 13.5216C21.246 13.8627 21.1407 14.1566 20.9303 14.4034C20.7271 14.6429 20.4767 14.8134 20.1792 14.915C20.3896 15.1327 20.5783 15.3541 20.7452 15.579C20.9194 15.804 21.0065 16.0398 21.0065 16.2866C21.0065 16.7728 20.8142 17.1502 20.4295 17.4187C20.0449 17.68 19.5079 17.8106 18.8185 17.8106C18.1363 17.8106 17.6247 17.6763 17.2836 17.4078C16.9425 17.132 16.772 16.8236 16.772 16.4825C16.772 16.1342 16.8554 15.8185 17.0223 15.5355C17.1965 15.2525 17.3816 15.1109 17.5775 15.1109C17.6936 15.1109 17.7771 15.1545 17.8279 15.2416C17.8787 15.3214 17.973 15.5609 18.1109 15.96C18.1617 16.1052 18.2452 16.243 18.3613 16.3737C18.6298 16.6712 19.0543 16.82 19.6349 16.82C19.5478 16.5442 19.4063 16.3084 19.2104 16.1124C19.0217 15.9092 18.833 15.7133 18.6443 15.5246C18.4556 15.3359 18.2887 15.1363 18.1436 14.9259C17.9984 14.7082 17.9258 14.4542 17.9258 14.1639C17.9258 13.6414 18.1218 13.2168 18.5137 12.8903C18.8838 12.6 19.312 12.4548 19.7982 12.4548ZM19.7546 14.4687C20.0449 14.1566 20.1901 13.9063 20.1901 13.7176C20.1901 13.6305 20.1574 13.5543 20.0921 13.489C20.034 13.4164 19.9469 13.3801 19.8308 13.3801C19.7147 13.3801 19.6022 13.3946 19.4934 13.4237C19.3918 13.4527 19.3083 13.4745 19.243 13.489C19.243 13.7647 19.4136 14.0913 19.7546 14.4687Z" fill="#136220"/>
<path d="M1.603 37.692C1.603 37.9673 1.33467 38.105 0.798 38.105C0.681333 38.105 0.611333 38.0467 0.588 37.93C0.569333 37.8087 0.56 37.6407 0.56 37.426C0.56 36.9733 0.651 36.4133 0.833 35.746C1.13633 34.6447 1.46067 33.996 1.806 33.8C1.85267 33.772 1.904 33.758 1.96 33.758C2.016 33.758 2.044 33.849 2.044 34.031C2.044 34.213 2.03467 34.374 2.016 34.514C1.97867 34.794 1.911 35.1557 1.813 35.599C1.71967 36.0423 1.673 36.3037 1.673 36.383L1.603 37.692ZM2.079 35.809C2.079 35.7483 2.11167 35.7087 2.177 35.69C2.247 35.6713 2.33333 35.655 2.436 35.641C2.53867 35.6223 2.65067 35.5967 2.772 35.564C2.89333 35.5313 3.00533 35.4707 3.108 35.382C3.346 35.1767 3.465 34.8337 3.465 34.353C3.465 34.045 3.36 33.8093 3.15 33.646C2.94467 33.4827 2.646 33.401 2.254 33.401C1.86667 33.401 1.50267 33.4827 1.162 33.646C1.036 33.7067 0.921667 33.7627 0.819 33.814C0.721 33.8653 0.63 33.891 0.546 33.891C0.462 33.891 0.42 33.8653 0.42 33.814C0.42 33.7347 0.497 33.604 0.651 33.422C0.805 33.254 1.04767 33.0977 1.379 32.953C1.715 32.8083 2.06733 32.736 2.436 32.736C3.13133 32.7313 3.67267 32.8947 4.06 33.226C4.396 33.5153 4.564 33.891 4.564 34.353C4.564 34.8103 4.39833 35.221 4.067 35.585C3.73567 35.9443 3.32033 36.124 2.821 36.124C2.32633 36.124 2.079 36.019 2.079 35.809ZM6.82713 35.648C6.82713 35.48 6.7268 35.396 6.52613 35.396C6.33013 35.396 6.13647 35.55 5.94513 35.858C5.7538 36.1613 5.6348 36.4717 5.58813 36.789C5.59747 36.8963 5.6068 37.0037 5.61613 37.111C5.62547 37.2183 5.63013 37.3233 5.63013 37.426C5.63013 37.6733 5.54847 37.8413 5.38513 37.93C5.31047 37.972 5.23813 38.0117 5.16813 38.049C5.1028 38.0863 5.0258 38.105 4.93713 38.105C4.84847 38.105 4.76913 38.0467 4.69913 37.93C4.6338 37.8087 4.60113 37.622 4.60113 37.37C4.60113 36.6653 4.65247 36.054 4.75513 35.536C4.9138 34.7333 5.2288 33.8747 5.70013 32.96C5.76547 32.834 5.86113 32.7733 5.98713 32.778C6.11313 32.778 6.2158 32.8643 6.29513 33.037C6.37447 33.2097 6.4118 33.3543 6.40713 33.471C6.40713 33.5877 6.38847 33.702 6.35113 33.814C6.31847 33.9213 6.27413 34.0287 6.21813 34.136C6.1668 34.2387 6.10613 34.346 6.03613 34.458C5.9708 34.5653 5.90547 34.682 5.84013 34.808L5.73513 35.312C5.91713 35.0087 6.16213 34.8057 6.47013 34.703C6.58213 34.6657 6.7058 34.647 6.84113 34.647C7.15847 34.647 7.3988 34.7193 7.56213 34.864C7.72547 35.004 7.80713 35.2047 7.80713 35.466C7.80713 35.7227 7.77213 35.984 7.70213 36.25C7.6368 36.516 7.5878 36.7073 7.55513 36.824C7.52713 36.936 7.51313 37.0293 7.51313 37.104C7.51313 37.1787 7.5388 37.216 7.59013 37.216C7.66013 37.216 7.74647 37.1717 7.84913 37.083C7.9518 36.9943 8.05447 36.8987 8.15713 36.796C8.2598 36.6887 8.35313 36.5907 8.43713 36.502C8.5258 36.4133 8.58647 36.369 8.61913 36.369C8.68447 36.369 8.71713 36.4483 8.71713 36.607C8.71713 36.9337 8.55613 37.2487 8.23413 37.552C7.6928 37.8693 7.34747 38.028 7.19813 38.028C7.18413 38.028 7.1748 38.0257 7.17013 38.021C6.7968 38.021 6.61013 37.7223 6.61013 37.125C6.61013 36.8683 6.63347 36.6327 6.68013 36.418C6.73147 36.2033 6.7688 36.047 6.79213 35.949C6.81547 35.851 6.82713 35.7507 6.82713 35.648ZM11.1933 37.405C10.8246 37.839 10.3813 38.056 9.86327 38.056C9.34994 38.056 8.96494 37.9253 8.70827 37.664C8.45161 37.398 8.32561 37.069 8.33027 36.677C8.32561 36.1217 8.50061 35.6433 8.85527 35.242C9.20994 34.8407 9.67427 34.64 10.2483 34.64C10.5096 34.64 10.7196 34.6727 10.8783 34.738C11.1536 34.85 11.2913 34.955 11.2913 35.053C11.2913 35.1277 11.0976 35.1673 10.7103 35.172C10.3276 35.172 10.0056 35.305 9.74427 35.571C9.48761 35.8323 9.35927 36.1637 9.35927 36.565C9.35927 36.775 9.41994 36.9523 9.54127 37.097C9.66727 37.237 9.84227 37.307 10.0663 37.307C10.2949 37.307 10.4839 37.2603 10.6333 37.167C10.3019 36.943 10.1363 36.6187 10.1363 36.194C10.1316 35.97 10.2109 35.767 10.3743 35.585C10.5423 35.3983 10.7546 35.305 11.0113 35.305C11.2726 35.3003 11.4593 35.3703 11.5713 35.515C11.6833 35.6597 11.7393 35.8463 11.7393 36.075C11.7393 36.299 11.6856 36.537 11.5783 36.789H11.6203C11.8256 36.7843 12.0029 36.712 12.1523 36.572C12.2083 36.516 12.2549 36.467 12.2923 36.425C12.3343 36.383 12.3763 36.362 12.4183 36.362C12.4836 36.362 12.5163 36.439 12.5163 36.593C12.5163 36.8777 12.4323 37.0923 12.2643 37.237C12.0963 37.377 11.9096 37.447 11.7043 37.447C11.5036 37.447 11.3333 37.433 11.1933 37.405ZM11.1303 36.593C11.2096 36.425 11.2493 36.2617 11.2493 36.103C11.2493 35.9443 11.1979 35.865 11.0953 35.865C11.0533 35.865 11.0183 35.8953 10.9903 35.956C10.9623 36.0167 10.9483 36.075 10.9483 36.131C10.9483 36.3177 11.0089 36.4717 11.1303 36.593ZM12.4741 37.622C12.4227 37.496 12.3854 37.3513 12.3621 37.188C12.3387 37.02 12.3271 36.7867 12.3271 36.488C12.3271 36.1893 12.3831 35.7857 12.4951 35.277H12.1801C12.1241 35.277 12.0961 35.2537 12.0961 35.207C12.0961 35.095 12.1054 35.004 12.1241 34.934C12.1474 34.8593 12.1987 34.7753 12.2781 34.682H12.4461C12.5114 34.682 12.5814 34.6797 12.6561 34.675C12.8801 33.9563 13.1087 33.597 13.3421 33.597C13.5287 33.6017 13.6594 33.7207 13.7341 33.954C13.7527 34.0193 13.7737 34.0893 13.7971 34.164L13.5101 34.668C13.8367 34.6773 14.0421 34.682 14.1261 34.682C14.2147 34.682 14.2614 34.6913 14.2661 34.71C14.2754 34.724 14.2801 34.7473 14.2801 34.78C14.2801 34.864 14.2591 34.969 14.2171 35.095C14.1797 35.221 14.1354 35.2817 14.0841 35.277L13.3841 35.242C13.2861 35.8113 13.2371 36.2827 13.2371 36.656C13.2371 37.0293 13.2907 37.216 13.3981 37.216C13.4867 37.216 13.6477 37.1437 13.8811 36.999C14.1144 36.8497 14.2824 36.7073 14.3851 36.572C14.4877 36.4367 14.5717 36.369 14.6371 36.369C14.7024 36.369 14.7351 36.4483 14.7351 36.607C14.7351 36.7657 14.6791 36.929 14.5671 37.097C14.4551 37.2603 14.3127 37.412 14.1401 37.552C13.9721 37.6873 13.7831 37.7993 13.5731 37.888C13.3677 37.9767 13.1881 38.021 13.0341 38.021C12.8801 38.021 12.7611 37.986 12.6771 37.916C12.5977 37.8413 12.5301 37.7433 12.4741 37.622ZM17.2157 37.405C16.8471 37.839 16.4037 38.056 15.8857 38.056C15.3724 38.056 14.9874 37.9253 14.7307 37.664C14.4741 37.398 14.3481 37.069 14.3527 36.677C14.3481 36.1217 14.5231 35.6433 14.8777 35.242C15.2324 34.8407 15.6967 34.64 16.2707 34.64C16.5321 34.64 16.7421 34.6727 16.9007 34.738C17.1761 34.85 17.3137 34.955 17.3137 35.053C17.3137 35.1277 17.1201 35.1673 16.7327 35.172C16.3501 35.172 16.0281 35.305 15.7667 35.571C15.5101 35.8323 15.3817 36.1637 15.3817 36.565C15.3817 36.775 15.4424 36.9523 15.5637 37.097C15.6897 37.237 15.8647 37.307 16.0887 37.307C16.3174 37.307 16.5064 37.2603 16.6557 37.167C16.3244 36.943 16.1587 36.6187 16.1587 36.194C16.1541 35.97 16.2334 35.767 16.3967 35.585C16.5647 35.3983 16.7771 35.305 17.0337 35.305C17.2951 35.3003 17.4817 35.3703 17.5937 35.515C17.7057 35.6597 17.7617 35.8463 17.7617 36.075C17.7617 36.299 17.7081 36.537 17.6007 36.789H17.6427C17.8481 36.7843 18.0254 36.712 18.1747 36.572C18.2307 36.516 18.2774 36.467 18.3147 36.425C18.3567 36.383 18.3987 36.362 18.4407 36.362C18.5061 36.362 18.5387 36.439 18.5387 36.593C18.5387 36.8777 18.4547 37.0923 18.2867 37.237C18.1187 37.377 17.9321 37.447 17.7267 37.447C17.5261 37.447 17.3557 37.433 17.2157 37.405ZM17.1527 36.593C17.2321 36.425 17.2717 36.2617 17.2717 36.103C17.2717 35.9443 17.2204 35.865 17.1177 35.865C17.0757 35.865 17.0407 35.8953 17.0127 35.956C16.9847 36.0167 16.9707 36.075 16.9707 36.131C16.9707 36.3177 17.0314 36.4717 17.1527 36.593ZM19.7845 34.612C20.0972 34.6073 20.3305 34.6657 20.4845 34.787C20.6385 34.9037 20.7155 35.074 20.7155 35.298C20.7155 35.5173 20.6478 35.7063 20.5125 35.865C20.3818 36.019 20.2208 36.1287 20.0295 36.194C20.1648 36.334 20.2862 36.4763 20.3935 36.621C20.5055 36.7657 20.5615 36.9173 20.5615 37.076C20.5615 37.3887 20.4378 37.6313 20.1905 37.804C19.9432 37.972 19.5978 38.056 19.1545 38.056C18.7158 38.056 18.3868 37.9697 18.1675 37.797C17.9482 37.6197 17.8385 37.4213 17.8385 37.202C17.8385 36.978 17.8922 36.775 17.9995 36.593C18.1115 36.411 18.2305 36.32 18.3565 36.32C18.4312 36.32 18.4848 36.348 18.5175 36.404C18.5502 36.4553 18.6108 36.6093 18.6995 36.866C18.7322 36.9593 18.7858 37.048 18.8605 37.132C19.0332 37.3233 19.3062 37.419 19.6795 37.419C19.6235 37.2417 19.5325 37.09 19.4065 36.964C19.2852 36.8333 19.1638 36.7073 19.0425 36.586C18.9212 36.4647 18.8138 36.3363 18.7205 36.201C18.6272 36.061 18.5805 35.8977 18.5805 35.711C18.5805 35.375 18.7065 35.102 18.9585 34.892C19.1965 34.7053 19.4718 34.612 19.7845 34.612ZM19.7565 35.907C19.9432 35.7063 20.0365 35.5453 20.0365 35.424C20.0365 35.368 20.0155 35.319 19.9735 35.277C19.9362 35.2303 19.8802 35.207 19.8055 35.207C19.7308 35.207 19.6585 35.2163 19.5885 35.235C19.5232 35.2537 19.4695 35.2677 19.4275 35.277C19.4275 35.4543 19.5372 35.6643 19.7565 35.907ZM23.3291 35.648C23.3291 35.48 23.2288 35.396 23.0281 35.396C22.8321 35.396 22.6384 35.55 22.4471 35.858C22.2558 36.1613 22.1368 36.4717 22.0901 36.789C22.0994 36.8963 22.1088 37.0037 22.1181 37.111C22.1274 37.2183 22.1321 37.3233 22.1321 37.426C22.1321 37.6733 22.0504 37.8413 21.8871 37.93C21.8124 37.972 21.7401 38.0117 21.6701 38.049C21.6048 38.0863 21.5278 38.105 21.4391 38.105C21.3504 38.105 21.2711 38.0467 21.2011 37.93C21.1358 37.8087 21.1031 37.622 21.1031 37.37C21.1031 36.6653 21.1544 36.054 21.2571 35.536C21.4158 34.7333 21.7308 33.8747 22.2021 32.96C22.2674 32.834 22.3631 32.7733 22.4891 32.778C22.6151 32.778 22.7178 32.8643 22.7971 33.037C22.8764 33.2097 22.9138 33.3543 22.9091 33.471C22.9091 33.5877 22.8904 33.702 22.8531 33.814C22.8204 33.9213 22.7761 34.0287 22.7201 34.136C22.6688 34.2387 22.6081 34.346 22.5381 34.458C22.4728 34.5653 22.4074 34.682 22.3421 34.808L22.2371 35.312C22.4191 35.0087 22.6641 34.8057 22.9721 34.703C23.0841 34.6657 23.2078 34.647 23.3431 34.647C23.6604 34.647 23.9008 34.7193 24.0641 34.864C24.2274 35.004 24.3091 35.2047 24.3091 35.466C24.3091 35.7227 24.2741 35.984 24.2041 36.25C24.1388 36.516 24.0898 36.7073 24.0571 36.824C24.0291 36.936 24.0151 37.0293 24.0151 37.104C24.0151 37.1787 24.0408 37.216 24.0921 37.216C24.1621 37.216 24.2484 37.1717 24.3511 37.083C24.4538 36.9943 24.5564 36.8987 24.6591 36.796C24.7618 36.6887 24.8551 36.5907 24.9391 36.502C25.0278 36.4133 25.0884 36.369 25.1211 36.369C25.1864 36.369 25.2191 36.4483 25.2191 36.607C25.2191 36.9337 25.0581 37.2487 24.7361 37.552C24.1948 37.8693 23.8494 38.028 23.7001 38.028C23.6861 38.028 23.6768 38.0257 23.6721 38.021C23.2988 38.021 23.1121 37.7223 23.1121 37.125C23.1121 36.8683 23.1354 36.6327 23.1821 36.418C23.2334 36.2033 23.2708 36.047 23.2941 35.949C23.3174 35.851 23.3291 35.7507 23.3291 35.648ZM27.6952 37.405C27.3266 37.839 26.8832 38.056 26.3652 38.056C25.8519 38.056 25.4669 37.9253 25.2102 37.664C24.9536 37.398 24.8276 37.069 24.8322 36.677C24.8276 36.1217 25.0026 35.6433 25.3572 35.242C25.7119 34.8407 26.1762 34.64 26.7502 34.64C27.0116 34.64 27.2216 34.6727 27.3802 34.738C27.6556 34.85 27.7932 34.955 27.7932 35.053C27.7932 35.1277 27.5996 35.1673 27.2122 35.172C26.8296 35.172 26.5076 35.305 26.2462 35.571C25.9896 35.8323 25.8612 36.1637 25.8612 36.565C25.8612 36.775 25.9219 36.9523 26.0432 37.097C26.1692 37.237 26.3442 37.307 26.5682 37.307C26.7969 37.307 26.9859 37.2603 27.1352 37.167C26.8039 36.943 26.6382 36.6187 26.6382 36.194C26.6336 35.97 26.7129 35.767 26.8762 35.585C27.0442 35.3983 27.2566 35.305 27.5132 35.305C27.7746 35.3003 27.9612 35.3703 28.0732 35.515C28.1852 35.6597 28.2412 35.8463 28.2412 36.075C28.2412 36.299 28.1876 36.537 28.0802 36.789H28.1222C28.3276 36.7843 28.5049 36.712 28.6542 36.572C28.7102 36.516 28.7569 36.467 28.7942 36.425C28.8362 36.383 28.8782 36.362 28.9202 36.362C28.9856 36.362 29.0182 36.439 29.0182 36.593C29.0182 36.8777 28.9342 37.0923 28.7662 37.237C28.5982 37.377 28.4116 37.447 28.2062 37.447C28.0056 37.447 27.8352 37.433 27.6952 37.405ZM27.6322 36.593C27.7116 36.425 27.7512 36.2617 27.7512 36.103C27.7512 35.9443 27.6999 35.865 27.5972 35.865C27.5552 35.865 27.5202 35.8953 27.4922 35.956C27.4642 36.0167 27.4502 36.075 27.4502 36.131C27.4502 36.3177 27.5109 36.4717 27.6322 36.593ZM29.991 35.067C30.2337 34.7917 30.544 34.654 30.922 34.654C31.4633 34.654 31.8063 34.8733 31.951 35.312C31.993 35.4427 32.014 35.5873 32.014 35.746C32.014 36.1007 31.8973 36.4507 31.664 36.796C31.4353 37.1413 31.1577 37.3747 30.831 37.496H30.915C31.2557 37.496 31.601 37.37 31.951 37.118C32.175 36.9593 32.35 36.796 32.476 36.628C32.6067 36.4553 32.7047 36.369 32.77 36.369C32.8353 36.369 32.868 36.4437 32.868 36.593C32.868 36.8543 32.756 37.118 32.532 37.384C32.196 37.7667 31.7667 37.9907 31.244 38.056C30.866 38.098 30.5977 38.105 30.439 38.077C30.2803 38.049 30.159 38.014 30.075 37.972C29.893 37.8787 29.802 37.7387 29.802 37.552C29.802 37.4493 29.823 37.356 29.865 37.272C30.2337 37.272 30.5137 37.132 30.705 36.852C30.8963 36.572 30.992 36.222 30.992 35.802C30.992 35.6993 30.9547 35.6083 30.88 35.529C30.8053 35.445 30.705 35.403 30.579 35.403C30.4577 35.403 30.3247 35.4567 30.18 35.564C30.0353 35.6713 29.9187 35.8067 29.83 35.97C29.746 36.1287 29.669 36.2873 29.599 36.446C29.529 36.6 29.473 36.796 29.431 37.034C29.3563 37.4633 29.27 38.0047 29.172 38.658C29.0787 39.316 29.0203 39.6683 28.997 39.715C28.9737 39.7663 28.9387 39.813 28.892 39.855C28.8453 39.897 28.7963 39.918 28.745 39.918C28.6517 39.918 28.5747 39.89 28.514 39.834C28.346 39.6893 28.248 39.5773 28.22 39.498C28.192 39.4233 28.178 39.3253 28.178 39.204C28.178 38.7467 28.255 38.105 28.409 37.279C28.563 36.453 28.829 35.5943 29.207 34.703C29.263 34.5723 29.361 34.507 29.501 34.507C29.6457 34.507 29.7833 34.633 29.914 34.885C29.9513 34.9503 29.977 35.011 29.991 35.067Z" fill="black"/>
<path d="M58.0873 1.60032C58.0873 0.716488 57.3685 -0.00939612 56.4904 0.0907911C54.0541 0.368742 51.7227 1.27924 49.7334 2.74426C47.3129 4.5269 45.5261 7.03709 44.6343 9.90784C43.7424 12.7786 43.7922 15.8594 44.7765 18.6998C45.7608 21.5402 47.6278 23.9913 50.1047 25.6947C52.5816 27.3981 55.5385 28.2645 58.543 28.1673C61.5475 28.07 64.4422 27.0142 66.8038 25.1542C69.1653 23.2942 70.87 20.7275 71.6685 17.8294C72.3248 15.4477 72.3408 12.9448 71.7286 10.5704C71.5079 9.71455 70.5729 9.30307 69.7476 9.61931V9.61931C68.9223 9.93556 68.5222 10.8602 68.7142 11.723C69.0988 13.4516 69.0576 15.2564 68.5829 16.9792C67.9658 19.2189 66.6484 21.2024 64.8234 22.6398C62.9984 24.0772 60.7614 24.8932 58.4395 24.9683C56.1176 25.0434 53.8325 24.3739 51.9184 23.0575C50.0042 21.7411 48.5614 19.8469 47.8007 17.6518C47.0401 15.4568 47.0016 13.0759 47.6908 10.8574C48.38 8.6389 49.7609 6.69903 51.6314 5.3214C53.0703 4.26171 54.7409 3.57744 56.4927 3.31805C57.367 3.18859 58.0873 2.48415 58.0873 1.60032V1.60032Z" fill="#136220"/>
<ellipse cx="58.2474" cy="14.0873" rx="11.3659" ry="11.2058" fill="#B0FF09"/>
<path d="M60.5757 15.1545C60.699 15.1545 60.7607 15.3214 60.7607 15.6552C60.7607 15.8366 60.6845 16.058 60.5321 16.3192C60.3797 16.5732 60.1802 16.8091 59.9334 17.0268C59.6939 17.2373 59.4254 17.4114 59.1279 17.5493C58.8303 17.6872 58.5401 17.7562 58.257 17.7562C57.8289 17.7562 57.5313 17.6509 57.3644 17.4405C57.2047 17.2228 57.1249 16.9071 57.1249 16.4934C57.1249 16.0725 57.2882 15.3541 57.6148 14.3381C56.6133 14.2945 55.884 14.2727 55.4268 14.2727H55.2744C55.1437 15.0783 55.0784 15.9237 55.0784 16.8091C55.0784 17.201 54.9296 17.4695 54.6321 17.6146C54.4942 17.68 54.36 17.7416 54.2293 17.7997C54.106 17.8578 53.9717 17.8868 53.8266 17.8868C53.4637 17.8868 53.2823 17.5602 53.2823 16.9071C53.2823 16.2539 53.431 15.4157 53.7286 14.3925C53.4093 14.4288 53.1263 14.4651 52.8795 14.5013C52.64 14.5376 52.4513 14.5558 52.3135 14.5558C52.1756 14.5558 52.1066 14.5195 52.1066 14.4469C52.1066 14.2292 52.2844 14.0079 52.64 13.7829C53.0029 13.5579 53.4927 13.3874 54.1096 13.2713C54.7918 11.5368 55.6263 10.3793 56.6133 9.79874C56.9761 9.58102 57.3608 9.47217 57.7672 9.47217C58.4929 9.47942 59.0154 9.67537 59.3347 10.06C59.6613 10.4446 59.8246 10.9562 59.8246 11.5949C59.8318 12.2262 59.6395 13.0499 59.2476 14.0659C59.1025 14.4578 58.9682 14.8134 58.8448 15.1327C58.7215 15.452 58.6598 15.7096 58.6598 15.9056C58.6598 16.1015 58.6743 16.2503 58.7033 16.3519C58.7324 16.4535 58.8013 16.5043 58.9102 16.5043C59.1061 16.5043 59.5669 16.1269 60.2926 15.3722C60.4233 15.2271 60.5176 15.1545 60.5757 15.1545ZM58.257 11.9106C58.257 11.2792 58.0212 10.9635 57.5495 10.9635C57.0705 10.9635 56.6568 11.1667 56.3085 11.5731C55.9674 11.9722 55.7025 12.5093 55.5138 13.1842L57.9849 13.2168C58.1663 12.6363 58.257 12.2008 58.257 11.9106ZM61.5261 17.7562C60.8004 17.7562 60.4376 17.0776 60.4376 15.7205C60.4376 14.9803 60.5283 14.309 60.7097 13.7067C60.9927 12.7778 61.312 12.3133 61.6676 12.3133C61.8781 12.3133 62.045 12.4548 62.1684 12.7379C62.27 12.9556 62.3171 13.1697 62.3099 13.3801C62.3099 13.6704 62.2228 14.182 62.0486 14.915C61.8817 15.5536 61.7983 15.9491 61.7983 16.1015C61.7983 16.2539 61.8345 16.3592 61.9071 16.4172C61.9869 16.4753 62.0777 16.5043 62.1793 16.5043C62.2881 16.5043 62.4224 16.4354 62.582 16.2975C62.7417 16.1596 62.9013 16.0108 63.061 15.8512C63.2207 15.6842 63.3658 15.5318 63.4964 15.394C63.6343 15.2561 63.7287 15.1871 63.7795 15.1871C63.8811 15.1871 63.9319 15.3105 63.9319 15.5572C63.9319 16.0652 63.6742 16.5624 63.159 17.0486C62.651 17.5276 62.1067 17.7634 61.5261 17.7562ZM61.9724 11.4316C61.7765 11.1413 61.6785 10.8292 61.6785 10.4954C61.6785 10.1616 61.7293 9.88582 61.8309 9.66811C61.9398 9.44314 62.0414 9.27985 62.1357 9.17825C62.2301 9.0694 62.3389 9.01497 62.4623 9.01497C62.6655 9.01497 62.8505 9.16737 63.0175 9.47217C63.1844 9.76971 63.2678 10.0201 63.2678 10.2233C63.2678 10.6006 63.1336 10.8982 62.8651 11.1159C62.6038 11.3264 62.3063 11.4316 61.9724 11.4316Z" fill="#136220"/>
<path d="M43.498 37.839C43.498 37.9697 43.4047 38.035 43.218 38.035C42.924 38.035 42.7233 37.979 42.616 37.867C42.5087 37.7503 42.455 37.5567 42.455 37.286C42.4597 36.866 42.574 36.194 42.798 35.27C43.0267 34.346 43.2413 33.66 43.442 33.212C43.4933 33.0953 43.5657 32.9857 43.659 32.883C43.7523 32.7757 43.876 32.722 44.03 32.722C44.0953 32.722 44.149 32.7617 44.191 32.841C44.2377 32.9203 44.261 33.0113 44.261 33.114C44.261 33.2167 44.2423 33.3707 44.205 33.576C44.1677 33.7767 44.121 34.0077 44.065 34.269C44.009 34.5303 43.946 34.8127 43.876 35.116C43.624 36.2687 43.498 37.1763 43.498 37.839ZM46.0679 38.021C45.4005 38.0257 44.9455 37.776 44.7029 37.272C44.6189 37.0947 44.5769 36.873 44.5769 36.607C44.5769 36.3363 44.6002 36.0493 44.6469 35.746C44.7402 35.1393 44.9199 34.5793 45.1859 34.066C45.3212 33.8047 45.4729 33.5807 45.6409 33.394C46.0095 32.9833 46.4202 32.7803 46.8729 32.785C47.0735 32.785 47.2299 32.841 47.3419 32.953C47.4585 33.0603 47.5169 33.2167 47.5169 33.422C47.5169 33.6273 47.4562 33.835 47.3349 34.045C47.2135 34.2503 47.0572 34.465 46.8659 34.689C46.6792 34.9083 46.4715 35.1393 46.2429 35.382C46.0142 35.6247 45.7902 35.8883 45.5709 36.173V36.453C45.5709 36.7143 45.6269 36.9057 45.7389 37.027C45.8509 37.1483 45.9815 37.209 46.1309 37.209C46.5322 37.209 46.8869 37.0107 47.1949 36.614C47.3209 36.4507 47.4165 36.369 47.4819 36.369C47.5472 36.369 47.5799 36.4483 47.5799 36.607C47.5799 36.7657 47.5355 36.929 47.4469 37.097C47.3629 37.2603 47.2509 37.412 47.1109 37.552C46.9709 37.6873 46.8099 37.7993 46.6279 37.888C46.4459 37.9767 46.2592 38.021 46.0679 38.021ZM46.4459 34.262C46.5439 34.1407 46.6209 34.031 46.6769 33.933C46.7329 33.835 46.7609 33.7347 46.7609 33.632C46.7609 33.5247 46.7235 33.471 46.6489 33.471C46.4855 33.471 46.3035 33.639 46.1029 33.975C45.9069 34.311 45.7599 34.752 45.6619 35.298C45.8205 35.0553 45.9652 34.8523 46.0959 34.689C46.2312 34.5257 46.3479 34.3833 46.4459 34.262ZM48.7271 38.021C48.0597 38.0257 47.6047 37.776 47.3621 37.272C47.2781 37.0947 47.2361 36.873 47.2361 36.607C47.2361 36.3363 47.2594 36.0493 47.3061 35.746C47.3994 35.1393 47.5791 34.5793 47.8451 34.066C47.9804 33.8047 48.1321 33.5807 48.3001 33.394C48.6687 32.9833 49.0794 32.7803 49.5321 32.785C49.7327 32.785 49.8891 32.841 50.0011 32.953C50.1177 33.0603 50.1761 33.2167 50.1761 33.422C50.1761 33.6273 50.1154 33.835 49.9941 34.045C49.8727 34.2503 49.7164 34.465 49.5251 34.689C49.3384 34.9083 49.1307 35.1393 48.9021 35.382C48.6734 35.6247 48.4494 35.8883 48.2301 36.173V36.453C48.2301 36.7143 48.2861 36.9057 48.3981 37.027C48.5101 37.1483 48.6407 37.209 48.7901 37.209C49.1914 37.209 49.5461 37.0107 49.8541 36.614C49.9801 36.4507 50.0757 36.369 50.1411 36.369C50.2064 36.369 50.2391 36.4483 50.2391 36.607C50.2391 36.7657 50.1947 36.929 50.1061 37.097C50.0221 37.2603 49.9101 37.412 49.7701 37.552C49.6301 37.6873 49.4691 37.7993 49.2871 37.888C49.1051 37.9767 48.9184 38.021 48.7271 38.021ZM49.1051 34.262C49.2031 34.1407 49.2801 34.031 49.3361 33.933C49.3921 33.835 49.4201 33.7347 49.4201 33.632C49.4201 33.5247 49.3827 33.471 49.3081 33.471C49.1447 33.471 48.9627 33.639 48.7621 33.975C48.5661 34.311 48.4191 34.752 48.3211 35.298C48.4797 35.0553 48.6244 34.8523 48.7551 34.689C48.8904 34.5257 49.0071 34.3833 49.1051 34.262ZM52.0022 35.046C52.0022 34.7333 52.2449 34.577 52.7302 34.577C52.8516 34.577 52.9262 34.6167 52.9542 34.696C52.9869 34.7753 53.0032 34.8967 53.0032 35.06C53.0032 35.2887 52.9519 35.6433 52.8492 36.124C52.7466 36.6047 52.6976 36.929 52.7022 37.097C52.7022 37.1763 52.7279 37.216 52.7792 37.216C52.8492 37.216 52.9356 37.1717 53.0382 37.083C53.1409 36.9943 53.2436 36.8987 53.3462 36.796C53.4489 36.6887 53.5422 36.5907 53.6262 36.502C53.7149 36.4133 53.7756 36.369 53.8082 36.369C53.8736 36.369 53.9062 36.4483 53.9062 36.607C53.9062 36.9337 53.7452 37.2487 53.4232 37.552C52.8819 37.8693 52.5389 38.028 52.3942 38.028C52.3802 38.028 52.3686 38.0257 52.3592 38.021C52.1819 38.021 52.0559 37.9627 51.9812 37.846C51.9112 37.7293 51.8669 37.5823 51.8482 37.405C51.7549 37.5777 51.6266 37.727 51.4632 37.853C51.2999 37.9743 51.1132 38.035 50.9032 38.035C50.5346 38.035 50.2499 37.965 50.0492 37.825C49.8532 37.685 49.7552 37.4773 49.7552 37.202C49.7552 37.0807 49.7716 36.9687 49.8042 36.866C49.8416 36.7633 49.8999 36.6373 49.9792 36.488L50.1822 34.766C50.3269 34.654 50.5346 34.598 50.8052 34.598C51.0199 34.598 51.1412 34.738 51.1692 35.018C51.1926 35.2467 51.1809 35.452 51.1342 35.634C51.0922 35.8113 51.0339 36.0377 50.9592 36.313C50.8846 36.5837 50.8472 36.824 50.8472 37.034C50.8472 37.202 50.9522 37.286 51.1622 37.286C51.3909 37.286 51.5892 37.0853 51.7572 36.684C51.8879 36.376 51.9766 36.033 52.0232 35.655C52.0186 35.6177 52.0139 35.571 52.0092 35.515C52.0092 35.4543 52.0069 35.396 52.0022 35.34C52.0022 35.284 52.0022 35.228 52.0022 35.172V35.046ZM55.1537 34.612C55.4663 34.6073 55.6997 34.6657 55.8537 34.787C56.0077 34.9037 56.0847 35.074 56.0847 35.298C56.0847 35.5173 56.017 35.7063 55.8817 35.865C55.751 36.019 55.59 36.1287 55.3987 36.194C55.534 36.334 55.6553 36.4763 55.7627 36.621C55.8747 36.7657 55.9307 36.9173 55.9307 37.076C55.9307 37.3887 55.807 37.6313 55.5597 37.804C55.3123 37.972 54.967 38.056 54.5237 38.056C54.085 38.056 53.756 37.9697 53.5367 37.797C53.3173 37.6197 53.2077 37.4213 53.2077 37.202C53.2077 36.978 53.2613 36.775 53.3687 36.593C53.4807 36.411 53.5997 36.32 53.7257 36.32C53.8003 36.32 53.854 36.348 53.8867 36.404C53.9193 36.4553 53.98 36.6093 54.0687 36.866C54.1013 36.9593 54.155 37.048 54.2297 37.132C54.4023 37.3233 54.6753 37.419 55.0487 37.419C54.9927 37.2417 54.9017 37.09 54.7757 36.964C54.6543 36.8333 54.533 36.7073 54.4117 36.586C54.2903 36.4647 54.183 36.3363 54.0897 36.201C53.9963 36.061 53.9497 35.8977 53.9497 35.711C53.9497 35.375 54.0757 35.102 54.3277 34.892C54.5657 34.7053 54.841 34.612 55.1537 34.612ZM55.1257 35.907C55.3123 35.7063 55.4057 35.5453 55.4057 35.424C55.4057 35.368 55.3847 35.319 55.3427 35.277C55.3053 35.2303 55.2493 35.207 55.1747 35.207C55.1 35.207 55.0277 35.2163 54.9577 35.235C54.8923 35.2537 54.8387 35.2677 54.7967 35.277C54.7967 35.4543 54.9063 35.6643 55.1257 35.907ZM56.6752 37.622C56.6239 37.496 56.5866 37.3513 56.5632 37.188C56.5399 37.02 56.5282 36.7867 56.5282 36.488C56.5282 36.1893 56.5842 35.7857 56.6962 35.277H56.3812C56.3252 35.277 56.2972 35.2537 56.2972 35.207C56.2972 35.095 56.3066 35.004 56.3252 34.934C56.3486 34.8593 56.3999 34.7753 56.4792 34.682H56.6472C56.7126 34.682 56.7826 34.6797 56.8572 34.675C57.0812 33.9563 57.3099 33.597 57.5432 33.597C57.7299 33.6017 57.8606 33.7207 57.9352 33.954C57.9539 34.0193 57.9749 34.0893 57.9982 34.164L57.7112 34.668C58.0379 34.6773 58.2432 34.682 58.3272 34.682C58.4159 34.682 58.4626 34.6913 58.4672 34.71C58.4766 34.724 58.4812 34.7473 58.4812 34.78C58.4812 34.864 58.4602 34.969 58.4182 35.095C58.3809 35.221 58.3366 35.2817 58.2852 35.277L57.5852 35.242C57.4872 35.8113 57.4382 36.2827 57.4382 36.656C57.4382 37.0293 57.4919 37.216 57.5992 37.216C57.6879 37.216 57.8489 37.1437 58.0822 36.999C58.3156 36.8497 58.4836 36.7073 58.5862 36.572C58.6889 36.4367 58.7729 36.369 58.8382 36.369C58.9036 36.369 58.9362 36.4483 58.9362 36.607C58.9362 36.7657 58.8802 36.929 58.7682 37.097C58.6562 37.2603 58.5139 37.412 58.3412 37.552C58.1732 37.6873 57.9842 37.7993 57.7742 37.888C57.5689 37.9767 57.3892 38.021 57.2352 38.021C57.0812 38.021 56.9622 37.986 56.8782 37.916C56.7989 37.8413 56.7312 37.7433 56.6752 37.622ZM59.6109 36.824L59.6529 37.678C59.6529 37.79 59.5946 37.8903 59.4779 37.979C59.3612 38.0677 59.2026 38.112 59.0019 38.112C58.8852 38.112 58.8036 38.0513 58.7569 37.93C58.7149 37.8087 58.6939 37.6313 58.6939 37.398C58.6939 36.908 58.7172 36.5253 58.7639 36.25C58.8152 35.97 58.9132 35.6877 59.0579 35.403C58.8432 35.1977 58.7359 35.0203 58.7359 34.871C58.7359 34.5583 58.9039 34.402 59.2399 34.402C59.4126 34.402 59.5642 34.493 59.6949 34.675C59.7882 34.801 59.8559 34.948 59.8979 35.116C59.9632 35.1393 60.0449 35.151 60.1429 35.151C60.2782 35.151 60.4346 35.1067 60.6119 35.018L60.7939 34.927C60.8499 34.899 60.8989 34.885 60.9409 34.885C61.0762 34.885 61.2116 35.0833 61.3469 35.48C61.3049 35.662 61.2582 35.837 61.2069 36.005C61.1602 36.173 61.1042 36.376 61.0389 36.614C60.9736 36.852 60.9386 37.013 60.9339 37.097C60.9339 37.1763 60.9596 37.216 61.0109 37.216C61.0809 37.216 61.1672 37.1717 61.2699 37.083C61.3726 36.9943 61.4752 36.8987 61.5779 36.796C61.6806 36.6887 61.7739 36.5907 61.8579 36.502C61.9466 36.4133 62.0072 36.369 62.0399 36.369C62.1052 36.369 62.1379 36.4483 62.1379 36.607C62.1379 36.929 61.9956 37.2463 61.7109 37.559C61.4309 37.8717 61.1089 38.0257 60.7449 38.021C60.5302 38.021 60.3692 37.9347 60.2619 37.762C60.1546 37.5893 60.0986 37.3793 60.0939 37.132C60.0939 36.642 60.2036 36.1777 60.4229 35.739C60.3202 35.781 60.2036 35.802 60.0729 35.802C59.9469 35.802 59.8559 35.7973 59.7999 35.788C59.7579 35.9653 59.7159 36.145 59.6739 36.327C59.6319 36.5043 59.6109 36.67 59.6109 36.824ZM66.0861 36.348C66.1701 36.348 66.2121 36.4553 66.2121 36.67C66.2121 36.7867 66.1631 36.929 66.0651 37.097C65.9671 37.2603 65.8388 37.412 65.6801 37.552C65.5261 37.6873 65.3535 37.7993 65.1621 37.888C64.9708 37.9767 64.7841 38.021 64.6021 38.021C64.3548 38.021 64.1891 37.804 64.1051 37.37C63.9838 37.5707 63.8251 37.7363 63.6291 37.867C63.4331 37.993 63.1695 38.056 62.8381 38.056C62.5115 38.056 62.2478 37.9533 62.0471 37.748C61.8465 37.5427 61.7485 37.293 61.7531 36.999C61.7531 36.2057 62.0168 35.5803 62.5441 35.123C62.7681 34.9317 62.9758 34.8057 63.1671 34.745C63.3631 34.6843 63.5685 34.654 63.7831 34.654C63.9978 34.654 64.1728 34.6913 64.3081 34.766C64.3735 34.6307 64.4481 34.563 64.5321 34.563C64.6955 34.563 64.8495 34.6353 64.9941 34.78C65.1435 34.92 65.2181 35.053 65.2181 35.179C65.1528 35.333 65.0571 35.5173 64.9311 35.732C64.8938 35.9467 64.8751 36.2477 64.8751 36.635C64.8751 37.0223 64.9241 37.216 65.0221 37.216C65.1435 37.216 65.4375 36.9733 65.9041 36.488C65.9881 36.3947 66.0488 36.348 66.0861 36.348ZM62.7821 36.768C62.7821 37.1273 62.9151 37.307 63.1811 37.307C63.4658 37.3023 63.7015 37.1507 63.8881 36.852C63.9535 36.7493 64.0071 36.6233 64.0491 36.474C64.0491 35.9513 64.0958 35.5033 64.1891 35.13C63.8111 35.2047 63.4821 35.3867 63.2021 35.676C62.9221 35.9653 62.7821 36.3293 62.7821 36.768ZM66.1703 37.622C66.119 37.496 66.0817 37.3513 66.0583 37.188C66.035 37.02 66.0233 36.7867 66.0233 36.488C66.0233 36.1893 66.0793 35.7857 66.1913 35.277H65.8763C65.8203 35.277 65.7923 35.2537 65.7923 35.207C65.7923 35.095 65.8017 35.004 65.8203 34.934C65.8437 34.8593 65.895 34.7753 65.9743 34.682H66.1423C66.2077 34.682 66.2777 34.6797 66.3523 34.675C66.5763 33.9563 66.805 33.597 67.0383 33.597C67.225 33.6017 67.3557 33.7207 67.4303 33.954C67.449 34.0193 67.47 34.0893 67.4933 34.164L67.2063 34.668C67.533 34.6773 67.7383 34.682 67.8223 34.682C67.911 34.682 67.9577 34.6913 67.9623 34.71C67.9717 34.724 67.9763 34.7473 67.9763 34.78C67.9763 34.864 67.9553 34.969 67.9133 35.095C67.876 35.221 67.8317 35.2817 67.7803 35.277L67.0803 35.242C66.9823 35.8113 66.9333 36.2827 66.9333 36.656C66.9333 37.0293 66.987 37.216 67.0943 37.216C67.183 37.216 67.344 37.1437 67.5773 36.999C67.8107 36.8497 67.9787 36.7073 68.0813 36.572C68.184 36.4367 68.268 36.369 68.3333 36.369C68.3987 36.369 68.4313 36.4483 68.4313 36.607C68.4313 36.7657 68.3753 36.929 68.2633 37.097C68.1513 37.2603 68.009 37.412 67.8363 37.552C67.6683 37.6873 67.4793 37.7993 67.2693 37.888C67.064 37.9767 66.8843 38.021 66.7303 38.021C66.5763 38.021 66.4573 37.986 66.3733 37.916C66.294 37.8413 66.2263 37.7433 66.1703 37.622ZM70.912 37.405C70.5434 37.839 70.1 38.056 69.582 38.056C69.0687 38.056 68.6837 37.9253 68.427 37.664C68.1704 37.398 68.0444 37.069 68.049 36.677C68.0444 36.1217 68.2194 35.6433 68.574 35.242C68.9287 34.8407 69.393 34.64 69.967 34.64C70.2284 34.64 70.4384 34.6727 70.597 34.738C70.8724 34.85 71.01 34.955 71.01 35.053C71.01 35.1277 70.8164 35.1673 70.429 35.172C70.0464 35.172 69.7244 35.305 69.463 35.571C69.2064 35.8323 69.078 36.1637 69.078 36.565C69.078 36.775 69.1387 36.9523 69.26 37.097C69.386 37.237 69.561 37.307 69.785 37.307C70.0137 37.307 70.2027 37.2603 70.352 37.167C70.0207 36.943 69.855 36.6187 69.855 36.194C69.8504 35.97 69.9297 35.767 70.093 35.585C70.261 35.3983 70.4734 35.305 70.73 35.305C70.9914 35.3003 71.178 35.3703 71.29 35.515C71.402 35.6597 71.458 35.8463 71.458 36.075C71.458 36.299 71.4044 36.537 71.297 36.789H71.339C71.5444 36.7843 71.7217 36.712 71.871 36.572C71.927 36.516 71.9737 36.467 72.011 36.425C72.053 36.383 72.095 36.362 72.137 36.362C72.2024 36.362 72.235 36.439 72.235 36.593C72.235 36.8777 72.151 37.0923 71.983 37.237C71.815 37.377 71.6284 37.447 71.423 37.447C71.2224 37.447 71.052 37.433 70.912 37.405ZM70.849 36.593C70.9284 36.425 70.968 36.2617 70.968 36.103C70.968 35.9443 70.9167 35.865 70.814 35.865C70.772 35.865 70.737 35.8953 70.709 35.956C70.681 36.0167 70.667 36.075 70.667 36.131C70.667 36.3177 70.7277 36.4717 70.849 36.593ZM72.9068 36.824L72.9488 37.678C72.9488 37.79 72.8905 37.8903 72.7738 37.979C72.6571 38.0677 72.4985 38.112 72.2978 38.112C72.1811 38.112 72.0995 38.0513 72.0528 37.93C72.0108 37.8087 71.9898 37.6313 71.9898 37.398C71.9898 36.908 72.0131 36.5253 72.0598 36.25C72.1111 35.97 72.2091 35.6877 72.3538 35.403C72.1391 35.1977 72.0318 35.0203 72.0318 34.871C72.0318 34.5583 72.1998 34.402 72.5358 34.402C72.7085 34.402 72.8601 34.493 72.9908 34.675C73.0841 34.801 73.1518 34.948 73.1938 35.116C73.2591 35.1393 73.3408 35.151 73.4388 35.151C73.5741 35.151 73.7305 35.1067 73.9078 35.018L74.0898 34.927C74.1458 34.899 74.1948 34.885 74.2368 34.885C74.3721 34.885 74.5075 35.0833 74.6428 35.48C74.6008 35.662 74.5541 35.837 74.5028 36.005C74.4561 36.173 74.4001 36.376 74.3348 36.614C74.2695 36.852 74.2345 37.013 74.2298 37.097C74.2298 37.1763 74.2555 37.216 74.3068 37.216C74.3768 37.216 74.4631 37.1717 74.5658 37.083C74.6685 36.9943 74.7711 36.8987 74.8738 36.796C74.9765 36.6887 75.0698 36.5907 75.1538 36.502C75.2425 36.4133 75.3031 36.369 75.3358 36.369C75.4011 36.369 75.4338 36.4483 75.4338 36.607C75.4338 36.929 75.2915 37.2463 75.0068 37.559C74.7268 37.8717 74.4048 38.0257 74.0408 38.021C73.8261 38.021 73.6651 37.9347 73.5578 37.762C73.4505 37.5893 73.3945 37.3793 73.3898 37.132C73.3898 36.642 73.4995 36.1777 73.7188 35.739C73.6161 35.781 73.4995 35.802 73.3688 35.802C73.2428 35.802 73.1518 35.7973 73.0958 35.788C73.0538 35.9653 73.0118 36.145 72.9698 36.327C72.9278 36.5043 72.9068 36.67 72.9068 36.824Z" fill="black"/>
<path d="M59.0873 55.6003C59.0873 54.7165 58.3685 53.9906 57.4903 54.0908C54.3904 54.4444 51.4785 55.8202 49.2284 58.0248C46.5952 60.6047 45.0783 64.1139 45.0029 67.7995C44.9276 71.4851 46.3 75.0534 48.8255 77.7386C51.3511 80.4239 54.8286 82.0123 58.5118 82.1629C62.1951 82.3135 65.7907 81.0143 68.527 78.5442C71.2633 76.074 72.9224 72.6297 73.1482 68.9502C73.374 65.2708 72.1486 61.6495 69.7348 58.8633C67.6722 56.4823 64.8823 54.8733 61.8216 54.2679C60.9546 54.0963 60.1788 54.7611 60.1067 55.642V55.642C60.0345 56.5229 60.6949 57.2837 61.5558 57.4841C63.7812 58.0022 65.8019 59.2116 67.3157 60.959C69.181 63.1122 70.1281 65.9107 69.9536 68.7542C69.779 71.5976 68.4969 74.2594 66.3823 76.1684C64.2677 78.0773 61.489 79.0813 58.6426 78.9649C55.7962 78.8485 53.1087 77.6211 51.157 75.5459C49.2053 73.4707 48.1447 70.7131 48.2029 67.8649C48.2611 65.0167 49.4334 62.3048 51.4683 60.311C53.1197 58.693 55.2324 57.6527 57.4927 57.318C58.367 57.1886 59.0873 56.4842 59.0873 55.6003V55.6003Z" fill="#136220"/>
<ellipse cx="59.2475" cy="68.0873" rx="11.3659" ry="11.2058" fill="#B0FF09"/>
<path d="M59.7815 63.3217C59.7815 63.7426 58.9578 64.9545 57.3105 66.9575C57.3831 67.3421 57.452 67.7122 57.5173 68.0678C57.5826 68.4162 57.6552 68.7246 57.735 68.9931C57.8149 69.2544 57.9056 69.4648 58.0072 69.6245C58.116 69.7841 58.2358 69.864 58.3664 69.864C58.497 69.864 58.6422 69.795 58.8018 69.6571C58.9615 69.5193 59.1211 69.3705 59.2808 69.2108C59.4404 69.0439 59.5856 68.8915 59.7162 68.7536C59.8541 68.6157 59.9484 68.5468 59.9992 68.5468C60.1008 68.5468 60.1516 68.6702 60.1516 68.9169C60.1516 69.4177 59.894 69.9111 59.3788 70.3974C58.8635 70.8763 58.3192 71.1158 57.7459 71.1158C57.1436 71.1158 56.6682 70.5933 56.3199 69.5483C56.2183 69.2362 56.1203 68.906 56.026 68.5577C55.8155 68.8335 55.5906 69.1274 55.3511 69.4394C55.1116 69.7442 54.854 70.0273 54.5782 70.2885C53.9541 70.8908 53.3808 71.192 52.8583 71.192C52.6986 71.192 52.5752 71.1666 52.4881 71.1158C52.4011 71.065 52.3575 71.0178 52.3575 70.9743C52.3575 70.9235 52.3865 70.8763 52.4446 70.8328C52.5027 70.7892 52.6551 70.655 52.9018 70.43C53.9758 69.4431 54.9156 68.3617 55.7212 67.1861C55.5833 66.4894 55.4527 65.8907 55.3293 65.39C55.1188 65.448 54.8975 65.477 54.6653 65.477C54.1355 65.477 53.7146 65.3863 53.4025 65.2049C53.0034 64.9799 52.8038 64.657 52.8038 64.2361C52.8038 63.8152 52.9381 63.4777 53.2066 63.2237C53.4751 62.9697 53.8089 62.8427 54.2081 62.8427C54.6145 62.8427 54.9556 62.9117 55.2313 63.0495C55.5071 63.1802 55.7538 63.3616 55.9716 63.5938C56.3417 63.9857 56.6537 64.5735 56.9077 65.3573C57.0456 65.1323 57.1907 64.9001 57.3431 64.6606C57.5028 64.4139 57.6479 64.1817 57.7786 63.9639C57.9165 63.7462 58.0398 63.5539 58.1487 63.387C58.2575 63.2201 58.3374 63.0967 58.3882 63.0169C58.4462 62.9298 58.5261 62.8826 58.6277 62.8754C58.8599 62.8681 59.1102 62.908 59.3788 62.9951C59.6473 63.0749 59.7815 63.1838 59.7815 63.3217ZM54.3931 63.8007C54.2625 63.8007 54.1972 63.8914 54.1972 64.0728C54.1972 64.247 54.2843 64.4066 54.4584 64.5518C54.6399 64.6969 54.8794 64.7985 55.1769 64.8566C54.9519 64.1526 54.6907 63.8007 54.3931 63.8007ZM66.296 68.5141C66.4266 68.5141 66.4919 68.6811 66.4919 69.0149C66.4919 69.1963 66.4157 69.4177 66.2633 69.6789C66.1109 69.9329 65.9114 70.1688 65.6646 70.3865C65.4251 70.5969 65.1566 70.7711 64.8591 70.909C64.5616 71.0469 64.2713 71.1158 63.9882 71.1158C63.5891 71.1158 63.3278 70.7892 63.2045 70.1361C62.769 70.8255 62.1232 71.1702 61.2668 71.1702C60.7443 71.1702 60.327 71.0106 60.015 70.6913C59.7029 70.372 59.5505 69.9837 59.5578 69.5265C59.5578 68.2928 59.9678 67.3204 60.7879 66.6092C61.3539 66.1229 61.9417 65.8798 62.5513 65.8798C62.8271 65.8798 63.0448 65.9016 63.2045 65.9451L63.4548 66.0104C63.7524 64.6098 64.0971 63.6737 64.489 63.2019C64.6196 63.0423 64.7502 62.9625 64.8809 62.9625C65.0913 62.9625 65.2873 63.1076 65.4687 63.3979C65.6283 63.6374 65.7082 63.8442 65.7082 64.0184C65.7082 64.1925 65.6828 64.3631 65.632 64.53C65.5812 64.6969 65.5159 64.8529 65.436 64.9981C65.3635 65.136 65.28 65.2738 65.1857 65.4117C65.0913 65.5424 64.997 65.6766 64.9026 65.8145C64.6922 66.5983 64.5362 67.4764 64.4346 68.4488C64.4055 68.7246 64.391 68.9459 64.391 69.1129C64.391 69.6136 64.4745 69.864 64.6414 69.864C64.8301 69.864 65.2873 69.4866 66.013 68.7319C66.1436 68.5867 66.2379 68.5141 66.296 68.5141ZM61.158 69.1673C61.158 69.7261 61.3648 70.0055 61.7785 70.0055C62.0252 70.0055 62.2719 69.9111 62.5187 69.7225C62.7727 69.5338 62.9686 69.2181 63.1065 68.7754C63.121 68.1223 63.1972 67.4038 63.3351 66.62C62.7545 66.7362 62.2465 67.0192 61.8111 67.4691C61.3757 67.9191 61.158 68.4851 61.158 69.1673Z" fill="#136220"/>
<path d="M49.306 90.5226C49.3853 90.5226 49.425 90.63 49.425 90.8446C49.425 90.9613 49.376 91.1036 49.278 91.2716C49.18 91.435 49.0517 91.5866 48.893 91.7266C48.739 91.862 48.5663 91.974 48.375 92.0626C48.1837 92.1513 47.997 92.1956 47.815 92.1956C47.5397 92.1956 47.3483 92.128 47.241 91.9926C47.1383 91.8526 47.087 91.6496 47.087 91.3836C47.087 91.113 47.192 90.651 47.402 89.9976C46.758 89.9696 46.289 89.9556 45.995 89.9556H45.897C45.813 90.4736 45.771 91.0173 45.771 91.5866C45.771 91.8386 45.6753 92.0113 45.484 92.1046C45.3953 92.1466 45.309 92.1863 45.225 92.2236C45.1457 92.261 45.0593 92.2796 44.966 92.2796C44.7327 92.2796 44.616 92.0696 44.616 91.6496C44.616 91.2296 44.7117 90.6906 44.903 90.0326C44.6977 90.056 44.5157 90.0793 44.357 90.1026C44.203 90.126 44.0817 90.1376 43.993 90.1376C43.9043 90.1376 43.86 90.1143 43.86 90.0676C43.86 89.9276 43.9743 89.7853 44.203 89.6406C44.4363 89.496 44.7513 89.3863 45.148 89.3116C45.5867 88.1963 46.1233 87.452 46.758 87.0786C46.9913 86.9386 47.2387 86.8686 47.5 86.8686C47.9667 86.8733 48.3027 86.9993 48.508 87.2466C48.718 87.494 48.823 87.823 48.823 88.2336C48.8277 88.6396 48.704 89.1693 48.452 89.8226C48.3587 90.0746 48.2723 90.3033 48.193 90.5086C48.1137 90.714 48.074 90.8796 48.074 91.0056C48.074 91.1316 48.0833 91.2273 48.102 91.2926C48.1207 91.358 48.165 91.3906 48.235 91.3906C48.361 91.3906 48.6573 91.148 49.124 90.6626C49.208 90.5693 49.2687 90.5226 49.306 90.5226ZM47.815 88.4366C47.815 88.0306 47.6633 87.8276 47.36 87.8276C47.052 87.8276 46.786 87.9583 46.562 88.2196C46.3427 88.4763 46.1723 88.8216 46.051 89.2556L47.64 89.2766C47.7567 88.9033 47.815 88.6233 47.815 88.4366ZM53.3752 90.5226C53.4592 90.5226 53.5012 90.63 53.5012 90.8446C53.5012 90.9613 53.4522 91.1036 53.3542 91.2716C53.2562 91.435 53.1279 91.5866 52.9692 91.7266C52.8152 91.862 52.6425 91.974 52.4512 92.0626C52.2599 92.1513 52.0732 92.1956 51.8912 92.1956C51.6345 92.1956 51.4665 91.9856 51.3872 91.5656C51.1072 92.009 50.6919 92.2306 50.1412 92.2306C49.8052 92.2306 49.5369 92.128 49.3362 91.9226C49.1355 91.7173 49.0375 91.4676 49.0422 91.1736C49.0422 90.3803 49.3059 89.755 49.8332 89.2976C50.1972 88.985 50.5752 88.8286 50.9672 88.8286C51.1445 88.8286 51.2845 88.8426 51.3872 88.8706L51.5482 88.9126C51.7395 88.012 51.9612 87.41 52.2132 87.1066C52.2972 87.004 52.3812 86.9526 52.4652 86.9526C52.6005 86.9526 52.7265 87.046 52.8432 87.2326C52.9459 87.3866 52.9972 87.5196 52.9972 87.6316C52.9972 87.7436 52.9809 87.8533 52.9482 87.9606C52.9155 88.068 52.8735 88.1683 52.8222 88.2616C52.7755 88.3503 52.7219 88.439 52.6612 88.5276C52.6005 88.6116 52.5399 88.698 52.4792 88.7866C52.3439 89.2906 52.2435 89.8553 52.1782 90.4806C52.1595 90.658 52.1502 90.8003 52.1502 90.9076C52.1502 91.2296 52.2039 91.3906 52.3112 91.3906C52.4325 91.3906 52.7265 91.148 53.1932 90.6626C53.2772 90.5693 53.3379 90.5226 53.3752 90.5226ZM50.0712 90.9426C50.0712 91.302 50.2042 91.4816 50.4702 91.4816C50.6289 91.4816 50.7875 91.421 50.9462 91.2996C51.1095 91.1783 51.2355 90.9753 51.3242 90.6906C51.3335 90.2706 51.3825 89.8086 51.4712 89.3046C51.0979 89.3793 50.7712 89.5613 50.4912 89.8506C50.2112 90.14 50.0712 90.504 50.0712 90.9426ZM55.9794 91.5796C55.6107 92.0136 55.1674 92.2306 54.6494 92.2306C54.1361 92.2306 53.7511 92.1 53.4944 91.8386C53.2377 91.5726 53.1117 91.2436 53.1164 90.8516C53.1117 90.2963 53.2867 89.818 53.6414 89.4166C53.9961 89.0153 54.4604 88.8146 55.0344 88.8146C55.2957 88.8146 55.5057 88.8473 55.6644 88.9126C55.9397 89.0246 56.0774 89.1296 56.0774 89.2276C56.0774 89.3023 55.8837 89.342 55.4964 89.3466C55.1137 89.3466 54.7917 89.4796 54.5304 89.7456C54.2737 90.007 54.1454 90.3383 54.1454 90.7396C54.1454 90.9496 54.2061 91.127 54.3274 91.2716C54.4534 91.4116 54.6284 91.4816 54.8524 91.4816C55.0811 91.4816 55.2701 91.435 55.4194 91.3416C55.0881 91.1176 54.9224 90.7933 54.9224 90.3686C54.9177 90.1446 54.9971 89.9416 55.1604 89.7596C55.3284 89.573 55.5407 89.4796 55.7974 89.4796C56.0587 89.475 56.2454 89.545 56.3574 89.6896C56.4694 89.8343 56.5254 90.021 56.5254 90.2496C56.5254 90.4736 56.4717 90.7116 56.3644 90.9636H56.4064C56.6117 90.959 56.7891 90.8866 56.9384 90.7466C56.9944 90.6906 57.0411 90.6416 57.0784 90.5996C57.1204 90.5576 57.1624 90.5366 57.2044 90.5366C57.2697 90.5366 57.3024 90.6136 57.3024 90.7676C57.3024 91.0523 57.2184 91.267 57.0504 91.4116C56.8824 91.5516 56.6957 91.6216 56.4904 91.6216C56.2897 91.6216 56.1194 91.6076 55.9794 91.5796ZM55.9164 90.7676C55.9957 90.5996 56.0354 90.4363 56.0354 90.2776C56.0354 90.119 55.9841 90.0396 55.8814 90.0396C55.8394 90.0396 55.8044 90.07 55.7764 90.1306C55.7484 90.1913 55.7344 90.2496 55.7344 90.3056C55.7344 90.4923 55.7951 90.6463 55.9164 90.7676ZM57.5402 88.8846C57.1949 88.7353 57.0222 88.5906 57.0222 88.4506C57.0222 88.376 57.0525 88.341 57.1132 88.3456C57.1972 88.3456 57.2929 88.3666 57.4002 88.4086C57.5075 88.446 57.6172 88.4763 57.7292 88.4996C58.1119 87.7763 58.5459 87.3026 59.0312 87.0786C59.1945 87.004 59.3579 86.9643 59.5212 86.9596C59.8432 86.9596 60.0882 87.039 60.2562 87.1976C60.4289 87.3516 60.5152 87.5406 60.5152 87.7646C60.5152 88.166 60.2982 88.4763 59.8642 88.6956C59.5095 88.873 59.0265 88.9826 58.4152 89.0246C58.1959 89.566 58.0862 90.147 58.0862 90.7676C58.0862 91.2296 58.1935 91.498 58.4082 91.5726C58.5575 91.624 58.6695 91.6263 58.7442 91.5796C58.8189 91.5283 58.8772 91.463 58.9192 91.3836C58.9612 91.2996 58.9822 91.1783 58.9822 91.0196C58.9869 90.861 58.9425 90.728 58.8492 90.6206C58.7605 90.5086 58.6742 90.406 58.5902 90.3126C58.6322 90.1586 58.6929 90.0303 58.7722 89.9276C58.9215 89.727 59.0499 89.6266 59.1572 89.6266C59.2645 89.6266 59.3509 89.664 59.4162 89.7386C59.4862 89.8133 59.5422 89.9066 59.5842 90.0186C59.6262 90.1306 59.6589 90.252 59.6822 90.3826C59.7102 90.5133 59.7405 90.6346 59.7732 90.7466C59.8059 90.8586 59.8455 90.952 59.8922 91.0266C59.9435 91.1013 60.0089 91.1386 60.0882 91.1386C60.1722 91.1386 60.2469 91.1083 60.3122 91.0476C60.3775 90.9823 60.4359 90.9123 60.4872 90.8376C60.5385 90.763 60.5852 90.6953 60.6272 90.6346C60.6692 90.5693 60.7112 90.5366 60.7532 90.5366C60.7999 90.5366 60.8442 90.574 60.8862 90.6486C60.9329 90.7233 60.9562 90.7933 60.9562 90.8586C60.9562 91.008 60.8815 91.1853 60.7322 91.3906C60.5875 91.596 60.4009 91.6986 60.1722 91.6986C59.9435 91.694 59.7662 91.645 59.6402 91.5516C59.5609 91.7476 59.4255 91.911 59.2342 92.0416C59.0429 92.1723 58.7699 92.2376 58.4152 92.2376C58.0652 92.2376 57.7642 92.1466 57.5122 91.9646C57.2089 91.7453 57.0572 91.4046 57.0572 90.9426C57.0572 90.2846 57.2182 89.5986 57.5402 88.8846ZM59.7452 87.8906C59.7405 87.7273 59.6799 87.6456 59.5632 87.6456C59.4512 87.6456 59.3042 87.732 59.1222 87.9046C58.9402 88.0773 58.7652 88.3176 58.5972 88.6256C59.1059 88.537 59.4535 88.3806 59.6402 88.1566C59.7055 88.0726 59.7405 87.984 59.7452 87.8906ZM62.1994 91.4116C62.5634 91.4116 62.9157 91.267 63.2564 90.9776C63.3824 90.8703 63.4851 90.7723 63.5644 90.6836C63.6437 90.5903 63.7044 90.5436 63.7464 90.5436C63.8117 90.5436 63.8444 90.609 63.8444 90.7396C63.8444 90.8703 63.8094 91.0173 63.7394 91.1806C63.6694 91.3393 63.5527 91.4956 63.3894 91.6496C62.9881 92.0276 62.4374 92.2166 61.7374 92.2166C61.1821 92.2166 60.8041 92.016 60.6034 91.6146C60.5334 91.4746 60.4984 91.274 60.4984 91.0126C60.4984 90.7513 60.5497 90.4806 60.6524 90.2006C60.7551 89.916 60.8904 89.671 61.0584 89.4656C61.2311 89.2603 61.4294 89.1016 61.6534 88.9896C61.8774 88.873 62.1154 88.8146 62.3674 88.8146C62.6241 88.8146 62.8201 88.8776 62.9554 89.0036C63.0954 89.1296 63.1654 89.293 63.1654 89.4936C63.1654 89.6943 63.1141 89.86 63.0114 89.9906C62.9134 90.1166 62.7851 90.224 62.6264 90.3126C62.4677 90.3966 62.2904 90.4736 62.0944 90.5436C61.9031 90.609 61.7141 90.6836 61.5274 90.7676V90.9426C61.5321 91.1106 61.6021 91.2296 61.7374 91.2996C61.8727 91.3696 62.0267 91.407 62.1994 91.4116ZM62.0804 89.4376C61.8377 89.4376 61.6697 89.72 61.5764 90.2846C61.6744 90.2193 61.7654 90.161 61.8494 90.1096C61.9381 90.0583 62.0151 90.0093 62.0804 89.9626C62.2204 89.86 62.2927 89.7433 62.2974 89.6126C62.2974 89.496 62.2251 89.4376 62.0804 89.4376ZM67.7109 91.4396C67.5756 91.6543 67.4496 91.8363 67.3329 91.9856C67.2209 92.1303 67.1299 92.2026 67.0599 92.2026C66.9246 92.2026 66.8032 92.1723 66.6959 92.1116C66.5886 92.051 66.5372 91.988 66.5419 91.9226C66.5419 91.918 66.5676 91.8853 66.6189 91.8246C66.9176 91.4653 67.2092 91.1013 67.4939 90.7326C67.3959 90.3686 67.3049 90.1353 67.2209 90.0326C67.1836 89.986 67.1416 89.965 67.0949 89.9696C66.9176 89.9696 66.7892 89.9206 66.7099 89.8226C66.6306 89.7246 66.5909 89.6266 66.5909 89.5286C66.5909 89.3653 66.6562 89.1903 66.7869 89.0036C66.9222 88.817 67.0716 88.7236 67.2349 88.7236C67.4029 88.7236 67.5732 88.8146 67.7459 88.9966C67.9186 89.174 68.0726 89.4096 68.2079 89.7036L68.2289 89.7736C68.2896 89.699 68.3549 89.622 68.4249 89.5426C68.6769 89.23 68.8262 89.0293 68.8729 88.9406C68.9196 88.852 68.9709 88.8076 69.0269 88.8076C69.1482 88.8076 69.2696 88.8333 69.3909 88.8846C69.5122 88.936 69.5706 89.006 69.5659 89.0946C69.5659 89.1833 69.5379 89.2603 69.4819 89.3256C69.4306 89.3863 69.3559 89.461 69.2579 89.5496C69.1599 89.6336 69.0409 89.741 68.9009 89.8716C68.7609 90.0023 68.6046 90.1773 68.4319 90.3966C68.5532 90.7466 68.6372 90.9706 68.6839 91.0686C68.7912 91.2833 68.8916 91.3906 68.9849 91.3906C69.0549 91.3906 69.1412 91.3463 69.2439 91.2576C69.3466 91.169 69.4492 91.0733 69.5519 90.9706C69.6546 90.8633 69.7479 90.7653 69.8319 90.6766C69.9206 90.588 69.9812 90.5436 70.0139 90.5436C70.0792 90.5436 70.1119 90.623 70.1119 90.7816C70.1119 91.1083 69.9462 91.4256 69.6149 91.7336C69.2882 92.0416 68.9382 92.1956 68.5649 92.1956C68.3876 92.1956 68.2289 92.1256 68.0889 91.9856C67.9536 91.841 67.8276 91.659 67.7109 91.4396ZM74.0607 90.5226C74.1447 90.5226 74.1867 90.63 74.1867 90.8446C74.1867 90.9613 74.1377 91.1036 74.0397 91.2716C73.9417 91.435 73.8134 91.5866 73.6547 91.7266C73.5007 91.862 73.3281 91.974 73.1367 92.0626C72.9454 92.1513 72.7587 92.1956 72.5767 92.1956C72.3201 92.1956 72.1521 91.9856 72.0727 91.5656C71.7927 92.009 71.3774 92.2306 70.8267 92.2306C70.4907 92.2306 70.2224 92.128 70.0217 91.9226C69.8211 91.7173 69.7231 91.4676 69.7277 91.1736C69.7277 90.3803 69.9914 89.755 70.5187 89.2976C70.8827 88.985 71.2607 88.8286 71.6527 88.8286C71.8301 88.8286 71.9701 88.8426 72.0727 88.8706L72.2337 88.9126C72.4251 88.012 72.6467 87.41 72.8987 87.1066C72.9827 87.004 73.0667 86.9526 73.1507 86.9526C73.2861 86.9526 73.4121 87.046 73.5287 87.2326C73.6314 87.3866 73.6827 87.5196 73.6827 87.6316C73.6827 87.7436 73.6664 87.8533 73.6337 87.9606C73.6011 88.068 73.5591 88.1683 73.5077 88.2616C73.4611 88.3503 73.4074 88.439 73.3467 88.5276C73.2861 88.6116 73.2254 88.698 73.1647 88.7866C73.0294 89.2906 72.9291 89.8553 72.8637 90.4806C72.8451 90.658 72.8357 90.8003 72.8357 90.9076C72.8357 91.2296 72.8894 91.3906 72.9967 91.3906C73.1181 91.3906 73.4121 91.148 73.8787 90.6626C73.9627 90.5693 74.0234 90.5226 74.0607 90.5226ZM70.7567 90.9426C70.7567 91.302 70.8897 91.4816 71.1557 91.4816C71.3144 91.4816 71.4731 91.421 71.6317 91.2996C71.7951 91.1783 71.9211 90.9753 72.0097 90.6906C72.0191 90.2706 72.0681 89.8086 72.1567 89.3046C71.7834 89.3793 71.4567 89.5613 71.1767 89.8506C70.8967 90.14 70.7567 90.504 70.7567 90.9426Z" fill="black"/>
<path d="M16.0873 55.6003C16.0873 54.7165 15.3685 53.9906 14.4904 54.0908C11.6327 54.4168 8.92889 55.6121 6.75514 57.5345C4.17988 59.8118 2.52626 62.9523 2.10577 66.3643C1.68529 69.7762 2.52696 73.2242 4.47224 76.0587C6.41752 78.8932 9.33214 80.9185 12.6671 81.7531C16.002 82.5878 19.527 82.1742 22.5781 80.5902C25.6293 79.0062 27.9959 76.3612 29.2322 73.1534C30.4685 69.9456 30.4891 66.3965 29.2902 63.1745C28.2782 60.4549 26.4563 58.1268 24.089 56.4931C23.3616 55.9911 22.3857 56.2928 21.9693 57.0725V57.0725C21.553 57.8521 21.8566 58.8128 22.5668 59.3388C24.2523 60.5872 25.5512 62.3037 26.2905 64.2907C27.217 66.7806 27.2011 69.5234 26.2457 72.0024C25.2903 74.4814 23.4613 76.5254 21.1034 77.7495C18.7455 78.9736 16.0214 79.2933 13.4441 78.6483C10.8669 78.0032 8.6145 76.4381 7.11119 74.2476C5.60788 72.0571 4.95743 69.3925 5.28238 66.7557C5.60734 64.119 6.88525 61.692 8.87541 59.9321C10.4636 58.5276 12.4179 57.6253 14.4927 57.318C15.367 57.1886 16.0873 56.4842 16.0873 55.6003V55.6003Z" fill="#136220"/>
<ellipse cx="16.2474" cy="68.0873" rx="11.3659" ry="11.2058" fill="#B0FF09"/>
<path d="M12.6539 71.4731C12.6539 71.6763 12.5087 71.7779 12.2184 71.7779C11.7612 71.7779 11.4492 71.6908 11.2823 71.5167C11.1154 71.3352 11.0319 71.0341 11.0319 70.6132C11.0392 69.96 11.217 68.915 11.5653 67.4781C11.9209 66.0412 12.2547 64.9744 12.5668 64.2777C12.6466 64.0963 12.7591 63.9257 12.9042 63.7661C13.0494 63.5992 13.2417 63.5157 13.4812 63.5157C13.5828 63.5157 13.6662 63.5774 13.7316 63.7008C13.8041 63.8241 13.8404 63.9657 13.8404 64.1253C13.8404 64.285 13.8114 64.5244 13.7533 64.8438C13.6953 65.1558 13.6227 65.515 13.5356 65.9214C13.4485 66.3278 13.3506 66.7669 13.2417 67.2386C12.8498 69.0311 12.6539 70.4426 12.6539 71.4731ZM20.9066 69.1545C21.0372 69.1545 21.1025 69.3214 21.1025 69.6552C21.1025 69.8366 21.0263 70.058 20.8739 70.3192C20.7215 70.5732 20.5219 70.8091 20.2752 71.0268C20.0357 71.2373 19.7672 71.4114 19.4697 71.5493C19.1721 71.6872 18.8818 71.7562 18.5988 71.7562C18.1997 71.7562 17.9384 71.4296 17.815 70.7764C17.3796 71.4659 16.7337 71.8106 15.8774 71.8106C15.3549 71.8106 14.9376 71.6509 14.6255 71.3316C14.3135 71.0123 14.1611 70.624 14.1683 70.1668C14.1683 68.9331 14.5784 67.9607 15.3984 67.2495C15.9645 66.7633 16.5523 66.5202 17.1619 66.5202C17.4377 66.5202 17.6554 66.5419 17.815 66.5855L18.0654 66.6508C18.3629 65.2502 18.7077 64.314 19.0995 63.8423C19.2302 63.6826 19.3608 63.6028 19.4914 63.6028C19.7019 63.6028 19.8978 63.7479 20.0792 64.0382C20.2389 64.2777 20.3187 64.4845 20.3187 64.6587C20.3187 64.8329 20.2933 65.0034 20.2425 65.1703C20.1917 65.3372 20.1264 65.4933 20.0466 65.6384C19.974 65.7763 19.8906 65.9142 19.7962 66.0521C19.7019 66.1827 19.6075 66.317 19.5132 66.4548C19.3027 67.2386 19.1467 68.1167 19.0451 69.0892C19.0161 69.3649 19.0016 69.5863 19.0016 69.7532C19.0016 70.2539 19.085 70.5043 19.2519 70.5043C19.4406 70.5043 19.8978 70.1269 20.6235 69.3722C20.7542 69.2271 20.8485 69.1545 20.9066 69.1545ZM15.7685 69.8076C15.7685 70.3664 15.9754 70.6458 16.389 70.6458C16.6358 70.6458 16.8825 70.5515 17.1292 70.3628C17.3832 70.1741 17.5792 69.8584 17.7171 69.4157C17.7316 68.7626 17.8078 68.0441 17.9457 67.2604C17.3651 67.3765 16.8571 67.6595 16.4217 68.1095C15.9862 68.5594 15.7685 69.1255 15.7685 69.8076Z" fill="#136220"/>
<path d="M4.498 91.839C4.498 91.9697 4.40467 92.035 4.218 92.035C3.924 92.035 3.72333 91.979 3.616 91.867C3.50867 91.7503 3.455 91.5567 3.455 91.286C3.45967 90.866 3.574 90.194 3.798 89.27C4.02667 88.346 4.24133 87.66 4.442 87.212C4.49333 87.0953 4.56567 86.9857 4.659 86.883C4.75233 86.7757 4.876 86.722 5.03 86.722C5.09533 86.722 5.149 86.7617 5.191 86.841C5.23767 86.9203 5.261 87.0113 5.261 87.114C5.261 87.2167 5.24233 87.3707 5.205 87.576C5.16767 87.7767 5.121 88.0077 5.065 88.269C5.009 88.5303 4.946 88.8127 4.876 89.116C4.624 90.2687 4.498 91.1763 4.498 91.839ZM6.43788 88.507C6.60588 88.507 6.76454 88.668 6.91388 88.99C7.13321 88.7613 7.40388 88.647 7.72588 88.647C8.05254 88.647 8.29754 88.7193 8.46088 88.864C8.62421 89.004 8.70588 89.2047 8.70588 89.466C8.70588 89.7227 8.67088 89.984 8.60088 90.25C8.53554 90.516 8.48654 90.7073 8.45388 90.824C8.42588 90.936 8.41188 91.0293 8.41188 91.104C8.41188 91.1787 8.43754 91.216 8.48888 91.216C8.55888 91.216 8.64521 91.1717 8.74788 91.083C8.85054 90.9943 8.95321 90.8987 9.05588 90.796C9.15854 90.6887 9.25188 90.5907 9.33588 90.502C9.42454 90.4133 9.48521 90.369 9.51788 90.369C9.58321 90.369 9.61588 90.4483 9.61588 90.607C9.61588 90.9337 9.45488 91.2487 9.13288 91.552C8.59154 91.8693 8.24621 92.028 8.09688 92.028C8.08288 92.028 8.07354 92.0257 8.06888 92.021C7.69554 92.021 7.50888 91.7223 7.50888 91.125C7.50888 90.8683 7.53221 90.6327 7.57888 90.418C7.63021 90.2033 7.66754 90.047 7.69088 89.949C7.71421 89.851 7.72588 89.7507 7.72588 89.648C7.72588 89.48 7.62788 89.396 7.43188 89.396C7.24054 89.396 7.05621 89.5407 6.87888 89.83C6.70621 90.1147 6.58954 90.411 6.52888 90.719V90.768C6.52888 90.9267 6.55221 91.09 6.59888 91.258C6.65021 91.426 6.67588 91.5427 6.67588 91.608C6.67588 91.7667 6.47754 91.923 6.08088 92.077C6.02021 92.1003 5.96654 92.112 5.91988 92.112C5.80321 92.112 5.72154 92.0513 5.67488 91.93C5.63288 91.8087 5.61188 91.6197 5.61188 91.363C5.61188 90.7003 5.63754 90.222 5.68888 89.928C5.75888 89.4893 5.91754 89.081 6.16488 88.703C6.24888 88.5723 6.33988 88.507 6.43788 88.507ZM13.5646 90.348C13.6486 90.348 13.6906 90.4553 13.6906 90.67C13.6906 90.7867 13.6416 90.929 13.5436 91.097C13.4456 91.2603 13.3173 91.412 13.1586 91.552C13.0046 91.6873 12.832 91.7993 12.6406 91.888C12.4493 91.9767 12.2626 92.021 12.0806 92.021C11.824 92.021 11.656 91.811 11.5766 91.391C11.2966 91.8343 10.8813 92.056 10.3306 92.056C9.99464 92.056 9.72631 91.9533 9.52564 91.748C9.32497 91.5427 9.22697 91.293 9.23164 90.999C9.23164 90.2057 9.49531 89.5803 10.0226 89.123C10.3866 88.8103 10.7646 88.654 11.1566 88.654C11.334 88.654 11.474 88.668 11.5766 88.696L11.7376 88.738C11.929 87.8373 12.1506 87.2353 12.4026 86.932C12.4866 86.8293 12.5706 86.778 12.6546 86.778C12.79 86.778 12.916 86.8713 13.0326 87.058C13.1353 87.212 13.1866 87.345 13.1866 87.457C13.1866 87.569 13.1703 87.6787 13.1376 87.786C13.105 87.8933 13.063 87.9937 13.0116 88.087C12.965 88.1757 12.9113 88.2643 12.8506 88.353C12.79 88.437 12.7293 88.5233 12.6686 88.612C12.5333 89.116 12.433 89.6807 12.3676 90.306C12.349 90.4833 12.3396 90.6257 12.3396 90.733C12.3396 91.055 12.3933 91.216 12.5006 91.216C12.622 91.216 12.916 90.9733 13.3826 90.488C13.4666 90.3947 13.5273 90.348 13.5646 90.348ZM10.2606 90.768C10.2606 91.1273 10.3936 91.307 10.6596 91.307C10.8183 91.307 10.977 91.2463 11.1356 91.125C11.299 91.0037 11.425 90.8007 11.5136 90.516C11.523 90.096 11.572 89.634 11.6606 89.13C11.2873 89.2047 10.9606 89.3867 10.6806 89.676C10.4006 89.9653 10.2606 90.3293 10.2606 90.768ZM14.9719 91.237C15.3359 91.237 15.6882 91.0923 16.0289 90.803C16.1549 90.6957 16.2575 90.5977 16.3369 90.509C16.4162 90.4157 16.4769 90.369 16.5189 90.369C16.5842 90.369 16.6169 90.4343 16.6169 90.565C16.6169 90.6957 16.5819 90.8427 16.5119 91.006C16.4419 91.1647 16.3252 91.321 16.1619 91.475C15.7605 91.853 15.2099 92.042 14.5099 92.042C13.9545 92.042 13.5765 91.8413 13.3759 91.44C13.3059 91.3 13.2709 91.0993 13.2709 90.838C13.2709 90.5767 13.3222 90.306 13.4249 90.026C13.5275 89.7413 13.6629 89.4963 13.8309 89.291C14.0035 89.0857 14.2019 88.927 14.4259 88.815C14.6499 88.6983 14.8879 88.64 15.1399 88.64C15.3965 88.64 15.5925 88.703 15.7279 88.829C15.8679 88.955 15.9379 89.1183 15.9379 89.319C15.9379 89.5197 15.8865 89.6853 15.7839 89.816C15.6859 89.942 15.5575 90.0493 15.3989 90.138C15.2402 90.222 15.0629 90.299 14.8669 90.369C14.6755 90.4343 14.4865 90.509 14.2999 90.593V90.768C14.3045 90.936 14.3745 91.055 14.5099 91.125C14.6452 91.195 14.7992 91.2323 14.9719 91.237ZM14.8529 89.263C14.6102 89.263 14.4422 89.5453 14.3489 90.11C14.4469 90.0447 14.5379 89.9863 14.6219 89.935C14.7105 89.8837 14.7875 89.8347 14.8529 89.788C14.9929 89.6853 15.0652 89.5687 15.0699 89.438C15.0699 89.3213 14.9975 89.263 14.8529 89.263ZM17.8626 88.612C18.1753 88.6073 18.4086 88.6657 18.5626 88.787C18.7166 88.9037 18.7936 89.074 18.7936 89.298C18.7936 89.5173 18.726 89.7063 18.5906 89.865C18.46 90.019 18.299 90.1287 18.1076 90.194C18.243 90.334 18.3643 90.4763 18.4716 90.621C18.5836 90.7657 18.6396 90.9173 18.6396 91.076C18.6396 91.3887 18.516 91.6313 18.2686 91.804C18.0213 91.972 17.676 92.056 17.2326 92.056C16.794 92.056 16.465 91.9697 16.2456 91.797C16.0263 91.6197 15.9166 91.4213 15.9166 91.202C15.9166 90.978 15.9703 90.775 16.0776 90.593C16.1896 90.411 16.3086 90.32 16.4346 90.32C16.5093 90.32 16.563 90.348 16.5956 90.404C16.6283 90.4553 16.689 90.6093 16.7776 90.866C16.8103 90.9593 16.864 91.048 16.9386 91.132C17.1113 91.3233 17.3843 91.419 17.7576 91.419C17.7016 91.2417 17.6106 91.09 17.4846 90.964C17.3633 90.8333 17.242 90.7073 17.1206 90.586C16.9993 90.4647 16.892 90.3363 16.7986 90.201C16.7053 90.061 16.6586 89.8977 16.6586 89.711C16.6586 89.375 16.7846 89.102 17.0366 88.892C17.2746 88.7053 17.55 88.612 17.8626 88.612ZM17.8346 89.907C18.0213 89.7063 18.1146 89.5453 18.1146 89.424C18.1146 89.368 18.0936 89.319 18.0516 89.277C18.0143 89.2303 17.9583 89.207 17.8836 89.207C17.809 89.207 17.7366 89.2163 17.6666 89.235C17.6013 89.2537 17.5476 89.2677 17.5056 89.277C17.5056 89.4543 17.6153 89.6643 17.8346 89.907ZM19.9162 92.021C19.4495 92.021 19.2162 91.5847 19.2162 90.712C19.2162 90.236 19.2745 89.8043 19.3912 89.417C19.5732 88.8197 19.7785 88.521 20.0072 88.521C20.1425 88.521 20.2499 88.612 20.3292 88.794C20.3945 88.934 20.4249 89.0717 20.4202 89.207C20.4202 89.3937 20.3642 89.7227 20.2522 90.194C20.1449 90.6047 20.0912 90.859 20.0912 90.957C20.0912 91.055 20.1145 91.1227 20.1612 91.16C20.2125 91.1973 20.2709 91.216 20.3362 91.216C20.4062 91.216 20.4925 91.1717 20.5952 91.083C20.6979 90.9943 20.8005 90.8987 20.9032 90.796C21.0059 90.6887 21.0992 90.5907 21.1832 90.502C21.2719 90.4133 21.3325 90.369 21.3652 90.369C21.4305 90.369 21.4632 90.4483 21.4632 90.607C21.4632 90.9337 21.2975 91.2533 20.9662 91.566C20.6395 91.874 20.2895 92.0257 19.9162 92.021ZM20.2032 87.954C20.0772 87.7673 20.0142 87.5667 20.0142 87.352C20.0142 87.1373 20.0469 86.96 20.1122 86.82C20.1822 86.6753 20.2475 86.5703 20.3082 86.505C20.3689 86.435 20.4389 86.4 20.5182 86.4C20.6489 86.4 20.7679 86.498 20.8752 86.694C20.9825 86.8853 21.0362 87.0463 21.0362 87.177C21.0362 87.4197 20.9499 87.611 20.7772 87.751C20.6092 87.8863 20.4179 87.954 20.2032 87.954ZM23.7943 88.815C23.8597 88.6097 23.9647 88.507 24.1093 88.507C24.24 88.5117 24.3637 88.605 24.4803 88.787C24.597 88.9643 24.6553 89.102 24.6553 89.2C24.646 89.3913 24.5877 89.697 24.4803 90.117C24.373 90.5323 24.2213 91.0737 24.0253 91.741C24.3333 91.503 24.6367 91.1927 24.9353 90.81C25.038 90.6793 25.1243 90.5743 25.1943 90.495C25.269 90.411 25.3297 90.369 25.3763 90.369C25.4417 90.369 25.4743 90.4437 25.4743 90.593C25.4743 90.887 25.3087 91.23 24.9773 91.622C24.6507 92.014 24.2493 92.3197 23.7733 92.539C23.7173 92.7257 23.6567 92.903 23.5913 93.071C23.526 93.239 23.442 93.386 23.3393 93.512C23.1153 93.7827 22.7747 93.918 22.3173 93.918C22.0093 93.918 21.7457 93.8293 21.5263 93.652C21.3117 93.4747 21.2043 93.253 21.2043 92.987C21.2043 92.8423 21.251 92.728 21.3443 92.644C21.4423 92.56 21.5753 92.4923 21.7433 92.441C21.9113 92.3897 22.1073 92.3453 22.3313 92.308C22.56 92.2707 22.8027 92.224 23.0593 92.168C23.0827 92.0887 23.1013 92.0117 23.1153 91.937C23.134 91.8577 23.1527 91.7783 23.1713 91.699C22.9147 91.937 22.5997 92.056 22.2263 92.056C21.8577 92.056 21.573 91.9533 21.3723 91.748C21.1717 91.5427 21.0737 91.293 21.0783 90.999C21.0783 90.2057 21.342 89.5803 21.8693 89.123C22.2333 88.8103 22.6113 88.654 23.0033 88.654C23.1387 88.654 23.2833 88.6703 23.4373 88.703C23.596 88.7357 23.715 88.773 23.7943 88.815ZM22.1073 90.768C22.1073 91.1273 22.2403 91.307 22.5063 91.307C22.6557 91.307 22.8073 91.251 22.9613 91.139C23.1153 91.027 23.239 90.845 23.3323 90.593C23.4023 90.2663 23.4747 89.9653 23.5493 89.69C23.6287 89.4147 23.6823 89.2233 23.7103 89.116C23.3183 89.1673 22.952 89.3423 22.6113 89.641C22.2753 89.9397 22.1073 90.3153 22.1073 90.768ZM22.8423 92.812C22.6743 92.8447 22.5273 92.8703 22.4013 92.889C22.2753 92.9077 22.1703 92.924 22.0863 92.938C22.007 92.952 21.9463 92.9683 21.9043 92.987C21.867 93.0057 21.8483 93.036 21.8483 93.078C21.8483 93.162 21.8997 93.2343 22.0023 93.295C22.1097 93.3557 22.2147 93.3837 22.3173 93.379C22.4947 93.379 22.6697 93.19 22.8423 92.812ZM26.057 88.507C26.225 88.507 26.3837 88.668 26.533 88.99C26.7523 88.7613 27.023 88.647 27.345 88.647C27.6717 88.647 27.9167 88.7193 28.08 88.864C28.2433 89.004 28.325 89.2047 28.325 89.466C28.325 89.7227 28.29 89.984 28.22 90.25C28.1547 90.516 28.1057 90.7073 28.073 90.824C28.045 90.936 28.031 91.0293 28.031 91.104C28.031 91.1787 28.0567 91.216 28.108 91.216C28.178 91.216 28.2643 91.1717 28.367 91.083C28.4697 90.9943 28.5723 90.8987 28.675 90.796C28.7777 90.6887 28.871 90.5907 28.955 90.502C29.0437 90.4133 29.1043 90.369 29.137 90.369C29.2023 90.369 29.235 90.4483 29.235 90.607C29.235 90.9337 29.074 91.2487 28.752 91.552C28.2107 91.8693 27.8653 92.028 27.716 92.028C27.702 92.028 27.6927 92.0257 27.688 92.021C27.3147 92.021 27.128 91.7223 27.128 91.125C27.128 90.8683 27.1513 90.6327 27.198 90.418C27.2493 90.2033 27.2867 90.047 27.31 89.949C27.3333 89.851 27.345 89.7507 27.345 89.648C27.345 89.48 27.247 89.396 27.051 89.396C26.8597 89.396 26.6753 89.5407 26.498 89.83C26.3253 90.1147 26.2087 90.411 26.148 90.719V90.768C26.148 90.9267 26.1713 91.09 26.218 91.258C26.2693 91.426 26.295 91.5427 26.295 91.608C26.295 91.7667 26.0967 91.923 25.7 92.077C25.6393 92.1003 25.5857 92.112 25.539 92.112C25.4223 92.112 25.3407 92.0513 25.294 91.93C25.252 91.8087 25.231 91.6197 25.231 91.363C25.231 90.7003 25.2567 90.222 25.308 89.928C25.378 89.4893 25.5367 89.081 25.784 88.703C25.868 88.5723 25.959 88.507 26.057 88.507Z" fill="black"/>
</svg>
